<?xml version="1.0" standalone="no"?>
<!DOCTYPE svg PUBLIC "-//W3C//DTD SVG 1.1//EN" "http://www.w3.org/Graphics/SVG/1.1/DTD/svg11.dtd" >
<svg xmlns="http://www.w3.org/2000/svg" xmlns:xlink="http://www.w3.org/1999/xlink" version="1.1">
<metadata>
Created by FontForge 20160407 at Fri Sep 23 10:57:15 2016
 By Jimmy Warting
(c) 1993, 1994, 2001, 2002 Adobe Systems Incorporated. All rights reserved.
</metadata>
<defs>
<font id="CaliFontBold-Bold" horiz-adv-x="555" >
  <font-face 
    font-family="Cali Font Bold"
    font-weight="700"
    font-stretch="normal"
    units-per-em="1000"
    panose-1="2 11 8 2 2 2 2 2 2 4"
    ascent="740"
    descent="-260"
    x-height="555"
    cap-height="740"
    bbox="-371 -271 1222 1173"
    underline-thickness="50"
    underline-position="-100"
    unicode-range="U+0020-FB02"
  />
<missing-glyph horiz-adv-x="500" 
d="M0 700h500v-700h-500v700zM420 650h-340l170 -255zM450 95v510l-170 -255zM420 50l-170 255l-170 -255h340zM50 95l170 255l-170 255v-510z" />
    <glyph glyph-name="f_i" unicode="fi" horiz-adv-x="601" 
d="M232 429v-429h-166v429h-62v126h62v24q0 107 74 148q51 27 162 27v-125h-12l-12 -1q-14 -2 -23 -6q-23 -11 -23 -46v-21h309v-555h-166v429h-143zM375 614v126h166v-126h-166z" />
    <glyph glyph-name="f_l" unicode="fl" horiz-adv-x="601" 
d="M232 429v-429h-166v429h-62v126h62v24q0 107 74 148q51 27 162 27v-125h-12l-12 -1q-14 -2 -23 -6q-23 -11 -23 -46v-21h143v184h166v-739h-166v429h-143z" />
    <glyph glyph-name=".notdef" horiz-adv-x="500" 
d="M0 700h500v-700h-500v700zM420 650h-340l170 -255zM450 95v510l-170 -255zM420 50l-170 255l-170 -255h340zM50 95l170 255l-170 255v-510z" />
    <glyph glyph-name=".null" horiz-adv-x="0" 
 />
    <glyph glyph-name=".null" horiz-adv-x="0" 
 />
    <glyph glyph-name="nonmarkingreturn" horiz-adv-x="250" 
 />
    <glyph glyph-name="space" unicode=" " horiz-adv-x="309" 
 />
    <glyph glyph-name="exclam" unicode="!" horiz-adv-x="333" 
d="M252 244h-171v496h171v-496zM252 0h-171v170h171v-170z" />
    <glyph glyph-name="quotedbl" unicode="&#x22;" horiz-adv-x="463" 
d="M75 444v296h124v-296h-124zM264 444v296h124v-296h-124z" />
    <glyph glyph-name="numbersign" unicode="#" horiz-adv-x="618" 
d="M410 57h-113l24 174h-78l-24 -174h-114l24 174h-99l15 111h100l10 73h-100l15 111h100l22 158h114l-22 -158h78l22 158h114l-22 -158h111l-15 -111h-112l-10 -73h111l-15 -111h-112zM347 415h-78l-10 -73h78z" />
    <glyph glyph-name="dollar" unicode="$" horiz-adv-x="618" 
d="M381 710q62 -15 100 -63q40 -51 39 -127h-155q0 26 -12 42q-15 21 -43 21q-23 0 -40 -17q-14 -17 -14 -39q0 -35 35 -58q23 -15 100 -45q83 -32 120 -94q15 -26 21 -53q6 -22 6 -45q0 -65 -38 -120q-42 -58 -119 -87v-101h-135v101q-81 12 -126 76q-40 55 -40 123h171
q0 -30 16 -50q17 -21 43 -21q25 0 41 18q16 17 16 41q0 40 -46 68q-9 5 -20 11t-25 12q-8 4 -20.5 8.5t-29.5 10.5q-13 4 -24 9t-21 10q-27 16 -45 34q-50 52 -50 133q0 84 52 139q41 44 108 63v101h135v-101z" />
    <glyph glyph-name="percent" unicode="%" horiz-adv-x="858" 
d="M36 575q0 74 53 127t127 53q75 0 128 -53q52 -52 52 -128q0 -74 -53 -127t-127 -53t-127 53t-53 127v1zM147 573q0 -27 20 -47q21 -21 49 -21t48 20q21 21 21 50t-20 49t-49 20t-49 -20t-20 -50v-1zM461 167q0 74 53 127t128 53q74 0 127 -53t53 -128t-54 -128
q-53 -53 -126 -53q-75 0 -127 52q-54 53 -54 129v1zM572 165q0 -28 20 -48q21 -21 50 -21q28 0 48 20q21 21 21 50q0 31 -21 50q-20 20 -48 20q-30 0 -50 -21q-20 -20 -20 -49v-1zM331 0h-115l306 740h116z" />
    <glyph glyph-name="ampersand" unicode="&#x26;" horiz-adv-x="758" 
d="M725 435l-120 -225l112 -114l-113 -111l-90 93q-7 -13 -22 -28q-8 -9 -18.5 -16.5t-21.5 -14.5q-56 -34 -137 -34q-121 0 -195 63q-71 60 -71 152q0 73 49 129q9 11 20 21.5t24 21.5q5 4 10.5 8t12.5 8l11 8l10 7q-70 70 -70 160q0 81 60 136q58 55 145 55q84 0 140 -53
q54 -52 54 -129q0 -63 -39 -113q-7 -9 -15.5 -17.5t-18.5 -16.5q-4 -4 -7.5 -7t-7.5 -6l-8 -5l-6 -5l82 -83l55 116h175zM321 620q-16 0 -30 -12q-14 -14 -14 -37t15 -46q2 -5 5.5 -9.5t7.5 -9.5l7 -8l7 -7l16 17q11 12 15 19q15 23 15 46q0 47 -43 47h-1zM288 303l-9 -7
l-10 -9q-11 -10 -18 -19q-20 -25 -20 -51q0 -34 26 -54q25 -19 63 -19q33 0 56 13q18 11 29 28z" />
    <glyph glyph-name="quotesingle" unicode="'" horiz-adv-x="242" 
d="M59 444v296h124v-296h-124z" />
    <glyph glyph-name="parenleft" unicode="(" horiz-adv-x="473" 
d="M430 689q-70 -30 -123 -111q-62 -95 -62 -216q0 -115 59 -209q53 -84 126 -115v-184q-181 58 -280 216q-85 136 -85 294t84 293q98 156 281 215v-183z" />
    <glyph glyph-name="parenright" unicode=")" horiz-adv-x="473" 
d="M43 38q71 30 123 111q62 95 62 216q0 115 -59 209q-53 84 -126 115v184q181 -58 280 -216q85 -136 85 -294t-84 -293q-98 -156 -281 -215v183z" />
    <glyph glyph-name="asterisk" unicode="*" horiz-adv-x="670" 
d="M357 587l118 103l52 -94l-144 -46l144 -46l-56 -98l-116 106l34 -152h-108l32 154l-114 -108l-56 98l144 48l-144 44l52 94l120 -102l-34 152h108z" />
    <glyph glyph-name="plus" unicode="+" horiz-adv-x="600" 
d="M380 333h172v-160h-172v-173h-160v173h-172v160h172v173h160v-173z" />
    <glyph glyph-name="comma" unicode="," horiz-adv-x="314" 
d="M143 -80h-137l64 250h173z" />
    <glyph glyph-name="hyphen" unicode="-" horiz-adv-x="510" 
d="M402 370v-163h-281v163h281z" />
    <glyph glyph-name="period" unicode="." horiz-adv-x="314" 
d="M244 0h-173v170h173v-170z" />
    <glyph glyph-name="slash" unicode="/" horiz-adv-x="593" 
d="M337 740h184l-264 -840h-185z" />
    <glyph glyph-name="zero" unicode="0" horiz-adv-x="618" 
d="M33 473q0 145 100 221q78 60 179 60q41 0 83 -13q50 -17 89 -45q101 -77 101 -223v-206q0 -141 -93 -218q-76 -63 -180 -63q-100 0 -180 62q-99 78 -99 219v206zM222 262q0 -43 16 -71q23 -39 71 -39q56 0 76 47q7 15 10 37q1 5 1 15v238v8t-1 8q-3 22 -10 37
q-19 46 -76 46q-50 0 -72 -40q-7 -15 -12 -36q-3 -16 -3 -34v-216z" />
    <glyph glyph-name="one" unicode="1" horiz-adv-x="618" 
d="M225 581h-121v159h310v-740h-189v581z" />
    <glyph glyph-name="two" unicode="2" horiz-adv-x="618" 
d="M51 147l100 84l99 84q71 59 94 89q35 47 35 101q0 83 -79 83q-44 0 -62 -38q-12 -26 -14 -79h-180l1 19l1 19q2 23 6 42q11 50 36 90q42 65 117 93q14 5 29.5 9.5t31.5 6.5q13 2 25 3t25 1q118 0 188 -70q64 -64 64 -159q0 -71 -25 -122q-29 -58 -97 -120l-68 -62
l-68 -62h263v-159h-522v147z" />
    <glyph glyph-name="three" unicode="3" horiz-adv-x="618" 
d="M53 524q3 119 90 181q67 49 163 49q103 0 170 -62q62 -59 62 -140q0 -66 -39 -110q-7 -8 -15 -15t-17 -14l-15 -9l-6 -4l-6 -3q89 -30 122 -98q10 -22 15 -49q1 -5 1 -9.5t1 -9.5v-13q0 -96 -81 -164q-82 -68 -193 -68q-70 0 -130 25q-67 28 -101 79q-22 33 -32 73l-6 33
l-2 14l-1 11h191l1 -4l1 -4q1 -2 1.5 -5t1.5 -5q5 -11 14 -22q22 -27 66 -29q81 0 81 83q0 45 -39 64q-15 6 -33 9q-4 1 -7.5 1t-7.5 1h-79v139h41q9 0 13 1q16 1 31 8q40 18 40 65q0 27 -12 45q-14 20 -40 20q-36 0 -49 -25l-4 -10t-3 -11l-1 -10l-1 -8h-186z" />
    <glyph glyph-name="four" unicode="4" horiz-adv-x="618" 
d="M341 130h-326v138l331 472h176v-462h82v-148h-82v-130h-181v130zM353 278v232l-148 -232h148z" />
    <glyph glyph-name="five" unicode="5" horiz-adv-x="618" 
d="M525 740v-159h-264l-16 -101q40 22 100 22q120 0 189 -86q58 -70 58 -162q0 -100 -67 -177q-80 -92 -217 -92q-115 0 -192 63q-73 59 -90 150h190q34 -46 87 -46q41 0 70 29q30 29 30 69q0 38 -26 67q-28 30 -75 30q-69 0 -97 -64l-153 38l64 419h409z" />
    <glyph glyph-name="six" unicode="6" horiz-adv-x="618" 
d="M492 740l-134 -183l-14 -20l-15 -20l14 1l12 1h12q89 0 157 -62q76 -70 76 -189q0 -125 -85 -204q-82 -78 -202 -78q-153 0 -229 100q-33 37 -49 92q-14 48 -14 94q0 92 68 198l184 270h219zM207 254q0 -47 33 -76q29 -26 67 -26q44 0 73 28q31 28 31 72q0 38 -26 69
q-30 32 -78 32q-43 0 -72 -29q-28 -28 -28 -69v-1z" />
    <glyph glyph-name="seven" unicode="7" horiz-adv-x="618" 
d="M547 740v-145l-260 -595h-208l273 581h-287v159h482z" />
    <glyph glyph-name="eight" unicode="8" horiz-adv-x="618" 
d="M58 549q0 82 61 140q70 65 190 65t190 -65q61 -58 61 -141q0 -53 -27 -94q-12 -17 -24 -29l-5 -5t-6 -5l-5 -4l-5 -4q91 -45 91 -172q0 -108 -75 -179q-76 -70 -195 -70t-195 70q-75 71 -75 179q0 127 91 172l-5 4l-5 4q-3 2 -6 5l-5 5q-12 12 -24 29q-27 41 -27 94v1z
M241 532q0 -28 21 -48q19 -19 47 -19q29 0 48 19q20 20 20 49t-20 49q-19 19 -48 19q-28 0 -47 -19q-21 -19 -21 -49v-1zM228 235q0 -30 21 -56q24 -27 60 -27t60 27q21 26 21 57q0 33 -21 58q-22 27 -60 27q-37 0 -60 -27q-21 -25 -21 -58v-1z" />
    <glyph glyph-name="nine" unicode="9" horiz-adv-x="618" 
d="M128 0l134 183l15 20l14 20l-14 -1l-12 -1h-12q-89 0 -157 63q-76 70 -76 188q0 125 85 204q83 78 202 78q153 0 229 -100q32 -37 49 -91q14 -48 14 -95q0 -92 -68 -198l-184 -270h-219zM413 487q0 48 -33 76q-28 25 -69 25q-42 0 -71 -27q-31 -28 -31 -72q0 -39 26 -68
q29 -33 76 -33q46 0 74 30q28 28 28 68v1z" />
    <glyph glyph-name="colon" unicode=":" horiz-adv-x="314" 
d="M244 385h-173v170h173v-170zM244 0h-173v170h173v-170z" />
    <glyph glyph-name="semicolon" unicode=";" horiz-adv-x="314" 
d="M244 385h-173v170h173v-170zM134 -80h-127l64 250h173z" />
    <glyph glyph-name="less" unicode="&#x3c;" horiz-adv-x="600" 
d="M554 544v-175l-340 -117l340 -115v-175l-508 214v154z" />
    <glyph glyph-name="equal" unicode="=" horiz-adv-x="600" 
d="M552 465v-160h-504v160h504zM552 201v-160h-504v160h504z" />
    <glyph glyph-name="greater" unicode="&#x3e;" horiz-adv-x="600" 
d="M386 254l-340 115v175l508 -214v-154l-508 -214v175z" />
    <glyph glyph-name="question" unicode="?" horiz-adv-x="592" 
d="M187 235q2 50 28 91q20 32 76 85q68 68 68 110q0 62 -58 62q-37 0 -54 -24q-13 -19 -14 -51q-1 -5 -1 -21h-183q-1 5 -1 9v9q0 108 74 179q73 70 189 70q110 0 179 -69q61 -61 61 -143q0 -61 -36 -114q-15 -21 -37 -43l-20 -20l-20 -19q-72 -66 -77 -111h-174zM361 0
h-174v170h174v-170z" />
    <glyph glyph-name="at" unicode="@" horiz-adv-x="925" 
d="M715 -74q-32 -11 -68 -19t-76 -12q-14 -2 -28 -2.5t-28 -1.5q-5 -1 -9.5 -1h-9.5h-13q-197 0 -307 132q-88 107 -88 249q0 158 106 270q112 121 286 121q156 0 256 -96q98 -93 98 -232q0 -107 -59 -189q-59 -80 -137 -80q-72 0 -98 72q-43 -72 -119 -72q-64 0 -109 50
q-45 51 -45 127q0 84 54 151q58 73 141 73q78 0 99 -59l10 47h104l-37 -218q-1 -5 -2 -11.5t-2 -13.5q-1 -15 -3 -23q-2 -29 27 -29q30 0 55 51q27 53 27 123q0 105 -73 172q-72 66 -183 66q-127 0 -213 -93q-81 -88 -81 -209q0 -39 10 -78q14 -54 42 -96q76 -114 241 -114
q112 0 211 37zM374 245q0 -43 25 -67q19 -19 50 -19q56 0 82 68q10 30 10 64q0 31 -14 54q-18 27 -52 27q-42 0 -72 -39q-29 -38 -29 -87v-1z" />
    <glyph glyph-name="_36" horiz-adv-x="0" 
 />
    <glyph glyph-name="_37" horiz-adv-x="0" 
 />
    <glyph glyph-name="A" unicode="A" horiz-adv-x="758" 
d="M214 0h-205l293 740h163l284 -740h-207l-35 107h-259zM375 515l-80 -258h163z" />
    <glyph glyph-name="B" unicode="B" horiz-adv-x="647" 
d="M67 740h272q114 0 179 -50q66 -49 66 -144q0 -99 -86 -149q78 -27 106 -90q5 -11 8.5 -23t5.5 -25q1 -5 1 -9.5t1 -9.5v-15q0 -105 -68 -161q-51 -41 -100 -53q-46 -11 -142 -11h-243v740zM256 459h78l13 1q16 2 26 6q30 14 30 52q0 35 -29 49q-10 4 -26 6l-13 1h-79
v-115zM256 166h100q9 0 14 1q16 1 31 8q38 17 38 62q0 43 -36 56q-6 2 -13.5 4t-16.5 3l-15 1h-102v-135z" />
    <glyph glyph-name="C" unicode="C" horiz-adv-x="832" 
d="M801 277q-32 -131 -136 -211t-238 -80q-170 0 -282 118q-108 113 -108 267q0 152 103 262q112 121 285 121q158 0 268 -104q90 -85 108 -191h-198q-20 52 -59 85q-52 44 -120 44q-90 0 -147 -69q-51 -61 -51 -147q0 -87 53 -152q57 -68 146 -68q76 0 129 53q18 18 33 42
q2 4 5 8t5 9l3 7l3 6h198z" />
    <glyph glyph-name="D" unicode="D" horiz-adv-x="742" 
d="M67 740h279q11 -1 20.5 -1t18.5 -1q47 -5 86 -15q105 -32 168 -121q68 -94 68 -230q0 -167 -85 -262q-98 -110 -296 -110h-259v740zM256 166h81q181 0 181 203q0 82 -36 137q-18 28 -49 46q-37 22 -95 22h-82v-408z" />
    <glyph glyph-name="E" unicode="E" horiz-adv-x="528" 
d="M67 740h419v-166h-230v-115h223v-166h-223v-127h230v-166h-419v740z" />
    <glyph glyph-name="F" unicode="F" horiz-adv-x="506" 
d="M67 740h404v-166h-215v-126h207v-166h-207v-282h-189v740z" />
    <glyph glyph-name="G" unicode="G" horiz-adv-x="854" 
d="M589 492q-15 26 -39 50q-52 46 -124 46q-77 0 -136 -53q-66 -60 -66 -162q0 -108 67 -169q58 -53 136 -53q70 0 116 33q46 30 61 86h-221v151h439q5 -46 -3 -99q-9 -65 -31 -113q-50 -113 -161 -173q-94 -51 -199 -51q-167 0 -280 114q-113 113 -113 274q0 163 116 273
q114 108 280 108q129 0 236 -77q102 -74 134 -185h-212z" />
    <glyph glyph-name="H" unicode="H" horiz-adv-x="754" 
d="M67 0v740h189v-278h242v278h189v-740h-189v296h-242v-296h-189z" />
    <glyph glyph-name="I" unicode="I" horiz-adv-x="323" 
d="M67 740h189v-740h-189v740z" />
    <glyph glyph-name="J" unicode="J" horiz-adv-x="578" 
d="M510 293q0 -123 -24 -176q-25 -54 -82 -88q-67 -43 -149 -43h-14l-27 3q-40 6 -75 21q-109 48 -128 171q-2 15 -3.5 29t-1.5 28h201q0 -3 0.5 -8.5t1.5 -13.5q5 -30 14 -43q14 -21 41 -21q37 0 50 34q5 14 6 31l1 15v508h189v-447z" />
    <glyph glyph-name="K" unicode="K" horiz-adv-x="707" 
d="M87 740h189v-333l211 333h198l-244 -368l269 -372h-230l-204 320v-320h-189v740z" />
    <glyph glyph-name="L" unicode="L" horiz-adv-x="487" 
d="M72 740h189v-574h219v-166h-408v740z" />
    <glyph glyph-name="M" unicode="M" horiz-adv-x="915" 
d="M67 0v740h253l139 -477l135 477h254v-740h-174l6 554l-160 -554h-125l-160 554l6 -554h-174z" />
    <glyph glyph-name="N" unicode="N" horiz-adv-x="759" 
d="M514 289l-4 451h181v-740h-164l-283 446l4 -446h-181v740h163z" />
    <glyph glyph-name="O" unicode="O" horiz-adv-x="851" 
d="M35 362q0 174 119 287q111 105 271 105q169 0 281 -115q110 -112 110 -269t-110 -269q-112 -115 -282 -115q-169 0 -282 116q-107 110 -107 259v1zM224 371q0 -89 54 -152q58 -67 150 -67q93 0 150 73q49 62 49 144t-49 146q-58 73 -152 73q-93 0 -150 -69
q-52 -61 -52 -147v-1z" />
    <glyph glyph-name="P" unicode="P" horiz-adv-x="636" 
d="M309 740q164 0 228 -54q87 -72 87 -196q0 -57 -21 -110q-22 -54 -57 -84q-76 -64 -216 -64h-74v-232h-189v740h242zM256 398h84h9.5t9.5 1q24 3 39 10q45 20 45 78q0 56 -47 76q-15 7 -41 10q-5 1 -10 1h-10h-79v-176z" />
    <glyph glyph-name="Q" unicode="Q" horiz-adv-x="866" 
d="M855 -13q-14 -1 -25.5 -1.5t-21.5 -0.5q-67 0 -118 21q-10 4 -18.5 9t-16.5 10q-12 9 -21 18q-29 -17 -58 -29.5t-60 -19.5l-24 -4t-25 -3q-10 -1 -20 -1.5t-21 -0.5q-172 0 -285 120q-106 112 -106 261q0 155 105 267q112 121 284 121t287 -118q108 -111 108 -260
q0 -79 -23 -142l-10 -22l-10 -22q-2 -4 -5 -7.5t-5 -8.5l-4 -6l-4 -6q26 -25 97 -25v-150zM424 588q-66 0 -115 -37q-50 -37 -73 -106l-5 -15l-3 -15l9 3l10 3q7 2 13.5 3.5t11.5 3.5q35 8 65 8q84 0 157 -50q59 -41 116 -104q20 38 20 94q0 95 -61 155q-58 57 -144 57h-1z
M425 151q50 0 75 15q-28 38 -63 66q-53 44 -119 44q-39 0 -69 -11q23 -55 77 -86q46 -28 98 -28h1z" />
    <glyph glyph-name="R" unicode="R" horiz-adv-x="653" 
d="M67 740h242q161 0 229 -53q90 -70 90 -202q0 -76 -37 -134q-33 -52 -96 -79l153 -272h-195l-193 357h31q82 0 114 20q42 27 42 91q0 57 -44 86q-32 20 -77 20h-70v-574h-189v740z" />
    <glyph glyph-name="S" unicode="S" horiz-adv-x="573" 
d="M213 245q0 -56 30 -83q5 -5 11.5 -8.5t13.5 -5.5q9 -4 22 -4q32 0 53 23q19 20 19 48q0 27 -30 46q-10 7 -38.5 20t-76.5 33l-11 4l-12 5q-7 4 -13.5 7t-13.5 6q-36 19 -60 40q-71 60 -71 150q0 105 83 170q74 58 176 58q95 0 162 -48q86 -62 87 -182h-187l-2 10l-2 12
q-5 16 -10 23q-16 27 -54 27q-26 0 -45 -16q-20 -17 -20 -42t27 -42q11 -7 42 -22.5t84 -38.5q96 -43 138 -97q35 -47 35 -115q0 -102 -55 -163q-68 -74 -203 -74q-139 0 -208 75q-64 68 -59 184h188z" />
    <glyph glyph-name="T" unicode="T" horiz-adv-x="499" 
d="M156 574h-146v166h480v-166h-145v-574h-189v574z" />
    <glyph glyph-name="U" unicode="U" horiz-adv-x="698" 
d="M254 740v-467q1 -6 1 -12t1 -11q3 -24 11 -46q22 -52 83 -52q63 0 82 48q8 22 11 46l1 24v470h189v-447q0 -150 -74 -227q-78 -80 -207 -80q-23 0 -47 3q-30 4 -57 12q-68 20 -109 64q-45 50 -60 98q-14 48 -14 130v447h189z" />
    <glyph glyph-name="V" unicode="V" horiz-adv-x="722" 
d="M16 740h194l150 -519l151 519h195l-248 -740h-195z" />
    <glyph glyph-name="W" unicode="W" horiz-adv-x="981" 
d="M16 740h192l101 -481l109 481h145l109 -483l101 483h191l-196 -740h-166l-113 479l-111 -479h-171z" />
    <glyph glyph-name="X" unicode="X" horiz-adv-x="759" 
d="M270 394l-229 346h214l127 -211l123 211h213l-226 -350l256 -390h-214l-160 262l-152 -262h-211z" />
    <glyph glyph-name="Y" unicode="Y" horiz-adv-x="647" 
d="M230 269l-221 471h205l110 -297l111 297h203l-219 -471v-269h-189v269z" />
    <glyph glyph-name="Z" unicode="Z" horiz-adv-x="499" 
d="M247 166h236v-166h-467v124l255 450h-255v166h467v-153z" />
    <glyph glyph-name="bracketleft" unicode="[" horiz-adv-x="473" 
d="M401 -113h-306v954h306v-134h-146v-686h146v-134z" />
    <glyph glyph-name="backslash" unicode="\" horiz-adv-x="593" 
d="M72 740h184l265 -840h-185z" />
    <glyph glyph-name="bracketright" unicode="]" horiz-adv-x="473" 
d="M72 23h146v686h-146v134h306v-954h-306v134z" />
    <glyph glyph-name="asciicircum" unicode="^" horiz-adv-x="600" 
d="M217 740h166l174 -365h-180l-78 223l-77 -223h-179z" />
    <glyph glyph-name="underscore" unicode="_" horiz-adv-x="587" 
d="M521 157v-128h-463v128h463z" />
    <glyph glyph-name="grave" unicode="`" 
d="M404 711l-46 -97l-198 85l51 117z" />
    <glyph glyph-name="a" unicode="a" horiz-adv-x="704" 
d="M643 0h-166v60q-21 -39 -69 -60q-42 -19 -95 -19q-127 0 -205 89q-74 85 -74 208q0 132 84 216q80 80 195 80q61 0 108 -26q37 -22 56 -52v59h166v-555zM200 275q0 -48 32 -89q39 -50 106 -50q78 0 116 62q20 33 23 71q3 36 -14 73q-17 34 -43 53q-34 24 -83 24
q-66 0 -104 -48q-33 -40 -33 -95v-1z" />
    <glyph glyph-name="b" unicode="b" horiz-adv-x="693" 
d="M60 740h166v-229q37 39 94 55q10 2 19.5 4t20.5 3q4 1 8 1h8h11q103 0 180 -68q93 -81 93 -225q0 -142 -87 -225q-79 -75 -193 -75q-54 0 -101 24q-40 23 -60 54v-59h-159v740zM494 279q0 57 -37 97q-40 43 -99 43q-63 0 -102 -44q-36 -40 -36 -96q0 -59 36 -100
q39 -43 99 -43t101 44q38 41 38 98v1z" />
    <glyph glyph-name="c" unicode="c" horiz-adv-x="652" 
d="M621 211q-22 -96 -100 -162q-82 -67 -191 -67q-125 0 -211 87q-86 86 -86 210t84 209q86 86 209 86q109 0 192 -65q81 -64 102 -168h-168q-16 34 -41 53q-31 25 -79 25q-57 3 -96 -39q-36 -40 -36 -102q0 -60 36 -101q37 -40 96 -40q48 0 79 24q24 18 41 50h169z" />
    <glyph glyph-name="d" unicode="d" horiz-adv-x="698" 
d="M638 0h-158v60l-3 -5l-4 -5q-2 -3 -5 -6t-5 -6q-13 -15 -31 -26q-48 -30 -120 -30q-124 0 -202 86q-76 83 -76 211q0 136 85 218q79 77 190 77q62 0 112 -26q8 -5 16 -10.5t16 -11.5l5 -5t6 -5l4 -4l4 -4v232h166v-740zM200 279q0 -63 40 -103q41 -39 99 -39q61 0 103 42
t39 103q0 59 -41 98q-39 39 -99 39q-67 0 -106 -45q-35 -41 -35 -94v-1z" />
    <glyph glyph-name="e" unicode="e" horiz-adv-x="646" 
d="M196 220q5 -44 42 -71q36 -27 86 -27q65 0 101 52h170q-42 -94 -113 -142q-71 -50 -158 -50q-121 0 -207 85q-87 86 -87 209q0 119 82 207q85 91 209 91q128 0 210 -88q98 -105 78 -266h-413zM446 346q-2 12 -9 25q-8 15 -22 29q-35 34 -93 34t-93 -34q-14 -14 -22 -29
q-7 -13 -9 -25h248z" />
    <glyph glyph-name="f" unicode="f" horiz-adv-x="314" 
d="M66 429h-62v126h62v24q0 107 74 148q51 27 162 27v-125h-12l-12 -1q-14 -2 -23 -6q-23 -11 -23 -46v-21h70v-126h-70v-429h-166v429z" />
    <glyph glyph-name="g" unicode="g" horiz-adv-x="693" 
d="M635 67q0 -126 -33 -183q-35 -56 -105 -92q-78 -39 -176 -39q-130 0 -207 68q-59 52 -70 127h192q15 -34 53 -48q14 -5 28 -6q3 -1 10 -1h6q53 0 91 32q44 36 44 103v33q-18 -31 -51 -51q-44 -28 -103 -28q-118 0 -197 79q-83 83 -83 213q0 135 86 221q80 78 194 78
q109 0 155 -70v52h166v-488zM200 279q0 -63 41 -104q38 -38 92 -38q59 0 97 38q36 38 39 96q0 63 -35 104q-34 43 -100 43q-55 0 -94 -39q-40 -40 -40 -99v-1z" />
    <glyph glyph-name="h" unicode="h" horiz-adv-x="632" 
d="M60 740h166v-236q42 70 145 70q117 0 165 -79q38 -62 38 -185v-310h-166v302q0 53 -17 81q-23 35 -72 35q-60 0 -81 -45q-4 -8 -6.5 -17t-3.5 -19q-1 -4 -1 -8t-1 -8v-321h-166v740z" />
    <glyph glyph-name="i" unicode="i" horiz-adv-x="286" 
d="M60 740h166v-126h-166v126zM60 555h166v-555h-166v555z" />
    <glyph glyph-name="j" unicode="j" horiz-adv-x="321" 
d="M87 740h166v-126h-166v126zM253 12q0 -110 -35 -156q-45 -60 -171 -60h-41v126h22q39 0 51 27q2 5 4 12t3 15q1 5 1 12.5v17.5v549h166v-543z" />
    <glyph glyph-name="k" unicode="k" horiz-adv-x="591" 
d="M66 740h166v-386l156 201h197l-209 -244l203 -311h-188l-159 267v-267h-166v740z" />
    <glyph glyph-name="l" unicode="l" horiz-adv-x="286" 
d="M60 740h166v-740h-166v740z" />
    <glyph glyph-name="m" unicode="m" horiz-adv-x="969" 
d="M60 555h155v-59q11 20 34 39q47 39 121 39q35 0 62 -10q19 -7 35 -18t30 -25q20 -20 33 -46q20 31 40 48q56 51 136 51q40 0 71 -10q44 -13 75 -46q38 -41 50 -82q10 -37 10 -133v-303h-166v313l-1 20q-3 25 -10 40q-16 45 -74 45q-61 0 -80 -46q-4 -8 -6.5 -17.5
t-3.5 -20.5q-1 -4 -1 -8t-1 -9v-317h-166v316v9t-1 8q-1 21 -9 38q-20 47 -73 47q-60 0 -82 -49q-4 -9 -6.5 -19.5t-3.5 -21.5q-1 -4 -1 -8.5t-1 -9.5v-310h-166v555z" />
    <glyph glyph-name="n" unicode="n" horiz-adv-x="632" 
d="M60 555h155v-59l4 5l4 6q2 4 5 7t5 6q14 15 29 25q43 29 106 29q122 0 173 -85q20 -31 27 -75q6 -31 6 -67v-347h-166v303q0 115 -87 115q-56 0 -78 -37q-17 -28 -17 -79v-302h-166v555z" />
    <glyph glyph-name="o" unicode="o" horiz-adv-x="666" 
d="M34 279q0 112 74 198q84 96 225 96t225 -96q74 -86 74 -199t-74 -198q-84 -97 -225 -97t-225 97q-74 85 -74 198v1zM200 277q0 -59 40 -99q37 -40 93 -40q55 0 94 40q39 41 39 100q0 60 -39 100t-94 40q-56 0 -93 -40q-40 -40 -40 -100v-1z" />
    <glyph glyph-name="p" unicode="p" horiz-adv-x="697" 
d="M60 555h156v-61q69 80 176 80q136 0 209 -103q62 -85 62 -199q0 -123 -76 -205q-77 -86 -194 -86q-65 0 -113 27q-18 9 -34 22l-11 11l-5 5l-4 4v-235h-166v740zM497 278q0 54 -35 95q-40 46 -104 46q-59 0 -100 -42q-39 -40 -39 -101q0 -59 40 -99q41 -41 99 -41
q61 0 102 44q37 40 37 97v1z" />
    <glyph glyph-name="q" unicode="q" horiz-adv-x="698" 
d="M638 -185h-166v242q-6 -8 -9 -11l-12 -12q-13 -13 -32 -24q-47 -28 -117 -28q-116 0 -193 83q-75 81 -75 202q0 140 83 226q78 81 196 81q69 0 118 -32q8 -6 16 -12.5t15 -14.5q2 -3 5 -6t5 -6l4 -5l3 -4v61h159v-740zM200 273q0 -49 34 -89q41 -47 106 -47q57 0 98 41
q40 40 40 98q3 59 -39 101t-101 42q-63 0 -102 -45q-36 -40 -36 -100v-1z" />
    <glyph glyph-name="r" unicode="r" horiz-adv-x="363" 
d="M59 555h156v-62l3.5 7t3.5 5l8 13q10 16 26 27q38 29 100 29v-167h-6q-125 0 -125 -109v-298h-166v555z" />
    <glyph glyph-name="s" unicode="s" horiz-adv-x="499" 
d="M296 399l-1 5l-1 7q-2 8 -6 14q-12 16 -44 16q-24 0 -37 -13q-10 -10 -10 -24q0 -30 85 -55l35 -10q10 -3 18.5 -6t16.5 -5q19 -7 34.5 -15t27.5 -16q62 -42 62 -122q0 -89 -67 -143q-63 -51 -159 -51q-81 0 -139 37q-76 50 -87 147h165q5 -32 32 -45q4 -2 9 -3l10 -2
q3 -1 8 -1h4q23 0 40 11q18 14 18 32q0 25 -34 41q-13 6 -45 18l-15 5l-16 6q-10 4 -19.5 7t-17.5 7q-132 42 -132 145q0 85 64 137q62 51 151 51q34 0 62 -7q36 -7 67 -26q75 -45 84 -142h-163z" />
    <glyph glyph-name="t" unicode="t" horiz-adv-x="351" 
d="M93 429h-82v126h82v185h166v-185h80v-126h-80v-429h-166v429z" />
    <glyph glyph-name="u" unicode="u" horiz-adv-x="634" 
d="M574 0h-155v59l-4 -5l-4 -6q-2 -4 -5 -7t-5 -6q-14 -15 -29 -25q-43 -29 -107 -29q-123 0 -174 85q-19 32 -27 75q-6 32 -6 67v347h166v-303q0 -115 88 -115q57 0 79 37q17 28 17 79v302h166v-555z" />
    <glyph glyph-name="v" unicode="v" horiz-adv-x="592" 
d="M375 0h-159l-199 555h172l107 -346l107 346h172z" />
    <glyph glyph-name="w" unicode="w" horiz-adv-x="850" 
d="M7 555h172l85 -345l91 345h140l94 -345l83 345h171l-170 -555h-154l-95 359l-93 -359h-154z" />
    <glyph glyph-name="x" unicode="x" horiz-adv-x="630" 
d="M212 297l-187 258h199l90 -146l89 146h197l-187 -258l215 -297h-203l-111 172l-113 -172h-200z" />
    <glyph glyph-name="y" unicode="y" horiz-adv-x="574" 
d="M207 28l-206 527h177l113 -322l106 322h176l-278 -740h-176z" />
    <glyph glyph-name="z" unicode="z" horiz-adv-x="444" 
d="M15 114l234 315h-234v126h413v-126l-217 -303h217v-126h-413v114z" />
    <glyph glyph-name="braceleft" unicode="{" horiz-adv-x="554" 
d="M483 739h-55q-36 0 -49 -22q-5 -11 -8 -21q-1 -5 -1 -10v-12v-209q0 -32 -17 -57q-7 -10 -16.5 -17.5t-20.5 -14.5q-10 -6 -20 -10q-9 -4 -17 -5l-7 -2l-5 -2l-5 -1l16 -2t16 -3q10 -2 18.5 -5.5t16.5 -8.5q39 -25 41 -73v-212v-12t1 -10q3 -10 8 -21q13 -22 49 -22h55
v-126h-128q-64 0 -106 33q-47 38 -47 105v212q0 36 -39 51q-17 7 -33 8q-4 1 -7 1t-7 1h-11v172h11q4 1 7 1t7 1q18 3 33 9q39 17 39 56v216q0 67 47 105q42 33 106 33h128v-126z" />
    <glyph glyph-name="bar" unicode="|" 
d="M369 750v-1000h-183v1000h183z" />
    <glyph glyph-name="braceright" unicode="}" horiz-adv-x="554" 
d="M71 867h128q64 0 106 -33q47 -38 47 -105v-216q0 -40 40 -56q13 -6 32 -9q4 -1 7 -1t7 -1h11v-172h-11q-4 -1 -7 -1t-7 -1q-17 -1 -32 -8q-40 -15 -40 -51v-212q0 -67 -47 -105q-42 -33 -106 -33h-128v126h55q36 0 49 22q6 11 8 21q1 5 1 10v12v212q0 24 17 46
q7 8 16.5 15t20.5 14q5 2 10 4.5t10 4.5q4 2 8 3t9 3l7 3l5 1l5 2l-7 1h-8q-5 1 -8.5 1.5t-7.5 1.5q-20 4 -36 14q-39 25 -41 87v209v12t-1 10q-2 10 -8 21q-13 22 -49 22h-55v126z" />
    <glyph glyph-name="asciitilde" unicode="~" horiz-adv-x="600" 
d="M533 219l-12 -16l-13 -16q-7 -8 -13.5 -15.5t-13.5 -12.5q-34 -28 -75 -28q-40 0 -102 33q-62 35 -115 35q-31 0 -53 -22q-16 -15 -33 -47l-36 156q23 41 47 61q34 28 80 28q38 0 111 -32l28 -12q17 -7 27 -12q30 -12 47 -12q26 0 51 22q10 10 20 23l19 25z" />
    <glyph glyph-name="uni00A0" unicode="&#xa0;" horiz-adv-x="309" 
 />
    <glyph glyph-name="exclamdown" unicode="&#xa1;" horiz-adv-x="333" 
d="M81 555h171v-170h-171v170zM81 311h171v-496h-171v496z" />
    <glyph glyph-name="cent" unicode="&#xa2;" horiz-adv-x="618" 
d="M241 31v105q-96 33 -143 111q-34 57 -36 126q0 74 41 138q47 75 138 104v105h131v-101q83 -22 135 -87q45 -57 49 -112h-172q-22 40 -71 40q-34 0 -60 -24q-26 -26 -26 -61t25 -59q25 -25 61 -25q25 0 44 12q8 5 13 11q2 2 5 4.5t5 6.5h176q-12 -64 -54 -113
q-50 -59 -124 -76v-105h-137z" />
    <glyph glyph-name="sterling" unicode="&#xa3;" horiz-adv-x="618" 
d="M413 284h-77q33 -39 33 -69q0 -21 -12 -39q-2 -4 -5.5 -7.5l-7.5 -7.5l-14 -13h41q7 0 13 0.5t11 1.5q15 1 27 8q31 18 31 58q0 15 -7 36h161l4 -12l3 -14q4 -15 4 -38q0 -28 -10 -55q-11 -33 -36 -62q-60 -71 -173 -71h-355v148h49q91 0 91 54q0 23 -16 48
q-3 5 -6.5 9.5t-7.5 9.5l-7 8l-5 7h-128v133h48q-28 41 -28 94q0 94 70 165q76 79 196 79q109 0 182 -66q75 -67 80 -181h-174q-1 7 -2 13t-3 11q-5 17 -13 27q-22 30 -67 30q-35 0 -59 -27q-21 -24 -21 -56t12 -56q2 -5 4.5 -9.5t6.5 -9.5l6 -7l5 -7h156v-133z" />
    <glyph glyph-name="currency" unicode="&#xa4;" horiz-adv-x="618" 
d="M455 121q-67 -44 -146 -44q-77 0 -145 44l-83 -82l-81 80l85 85q-39 62 -39 136q0 79 42 143l-88 86l82 82l88 -88q62 40 139 40q76 0 137 -39l88 86l80 -81l-85 -85q43 -67 43 -144q0 -74 -38 -136l84 -84l-81 -82zM201 340q0 -45 32 -77t76 -32t76 32t32 78t-31 78
q-32 32 -77 32t-77 -33q-31 -31 -31 -77v-1z" />
    <glyph glyph-name="yen" unicode="&#xa5;" horiz-adv-x="618" 
d="M598 385h-170l-26 -49v-30h196v-139h-197v-167h-186v167h-196v139h196v27l-26 52h-168v138h99l-119 217h200l109 -237l111 237h197l-117 -217h97v-138z" />
    <glyph glyph-name="brokenbar" unicode="&#xa6;" 
d="M369 675v-350h-183v350h183zM369 175v-350h-183v350h183z" />
    <glyph glyph-name="section" unicode="&#xa7;" horiz-adv-x="670" 
d="M421 548q-9 34 -38 48q-13 7 -26 8q-5 1 -10.5 1.5t-12.5 0.5q-5 0 -10.5 -0.5t-10.5 -1.5q-12 -1 -23 -7q-26 -14 -26 -44q0 -20 20 -37q4 -4 9 -7l10 -6q7 -4 20 -9l182 -82q5 -2 10 -4.5l9 -4.5q6 -3 11 -6t10 -5q12 -8 22.5 -15.5t18.5 -15.5q44 -46 44 -115
q0 -53 -28 -94q-5 -8 -12 -17t-15 -17l-16 -15l-15 -15l8 -11l9 -13q9 -13 16 -30q18 -41 18 -87q0 -88 -61 -149q-69 -69 -189 -69q-17 0 -34 2t-36 6q-48 10 -89 33q-110 61 -121 195h164q9 -55 52 -74q15 -7 35 -10q10 0 15 -1h11q45 0 71 23q19 18 19 42q0 27 -28 48
q-12 8 -29 17l-15 8l-16 7l-171 79l-10 5l-10 4q-6 3 -11.5 6t-10.5 6q-24 14 -43 33q-48 48 -48 126v10q1 4 1 13q3 18 11 38q23 56 83 100q-31 49 -31 111q0 98 77 152q65 46 162 46q109 0 176 -64q62 -59 65 -142h-163zM483 219q0 35 -68 65l-185 83q-25 -12 -34 -32
q-2 -6 -4 -14l-1 -5v-4q0 -27 19 -43l8 -6t9 -6l9 -4l8 -4l202 -93q37 24 37 62v1z" />
    <glyph glyph-name="dieresis" unicode="&#xa8;" 
d="M240 644h-159v151h159v-151zM473 644h-159v151h159v-151z" />
    <glyph glyph-name="copyright" unicode="&#xa9;" horiz-adv-x="800" 
d="M404 754q157 0 269 -114q110 -113 110 -270q0 -159 -112 -271q-113 -113 -270 -113q-158 0 -271 113q-112 112 -112 271q0 157 110 270q113 114 275 114h1zM401 677q-126 0 -214 -91q-86 -91 -86 -216q0 -127 89 -218q87 -89 211 -89t211 89q88 89 88 218q0 125 -86 216
q-87 91 -212 91h-1zM490 436q-10 40 -37 57q-20 11 -47 11q-56 0 -85 -45q-22 -34 -22 -87q0 -57 25 -91q29 -39 82 -39h6q7 0 10 1q16 4 25 10q36 22 46 76h106q-8 -83 -60 -131t-137 -48q-96 0 -154 64q-56 62 -56 159q0 92 54 155q60 68 159 68q84 0 138 -51
q48 -46 52 -109h-105z" />
    <glyph glyph-name="ordfeminine" unicode="&#xaa;" horiz-adv-x="385" 
d="M341 458h-99v29q-11 -21 -35 -32q-15 -7 -40 -7q-59 0 -100 44q-40 43 -40 109q0 69 44 113q40 40 98 40q51 0 73 -39v29h99v-286zM126 600q0 -21 13 -37q17 -21 45 -21q37 0 53 33q6 14 6 26q0 15 -5 28q-12 31 -54 31q-27 0 -44 -20q-14 -17 -14 -39v-1z" />
    <glyph glyph-name="guillemotleft" unicode="&#xab;" horiz-adv-x="422" 
d="M122 466h116l-98 -182l98 -182h-116l-98 182zM304 466h116l-98 -182l98 -182h-116l-98 182z" />
    <glyph glyph-name="logicalnot" unicode="&#xac;" horiz-adv-x="600" 
d="M554 445v-337h-160v177h-348v160h508z" />
    <glyph glyph-name="uni00AD" unicode="&#xad;" horiz-adv-x="281" 
d="M281 370v-163h-281v163h281z" />
    <glyph glyph-name="registered" unicode="&#xae;" horiz-adv-x="800" 
d="M404 754q157 0 269 -114q110 -115 110 -270q0 -159 -112 -271q-113 -113 -270 -113q-158 0 -271 113q-112 112 -112 271q0 156 110 269q112 115 275 115h1zM401 677q-126 0 -213 -90t-87 -217q0 -126 89 -217q89 -90 211 -90q124 0 211 89q88 89 88 218q0 124 -86 215
q-87 92 -212 92h-1zM417 587q68 0 109 -28q47 -32 47 -92q0 -32 -13 -55q-16 -30 -56 -48q57 -24 61 -99q6 -86 13 -104h-103q-4 9 -9 51l-2 17l-1 14q-1 8 -1 13t-1 7l-1 10l-3 10q-3 13 -10 20q-18 22 -62 22h-42v-164h-106v426h180zM343 514v-120h60l12 1q7 1 13 3t11 4
q28 15 28 57q0 35 -25 48q-9 5 -22 6l-11 1h-66z" />
    <glyph glyph-name="macron" unicode="&#xaf;" 
d="M457 658h-359v126h359v-126z" />
    <glyph glyph-name="degree" unicode="&#xb0;" horiz-adv-x="400" 
d="M343 568q0 -58 -41 -101q-43 -41 -102 -41q-60 0 -101 42q-42 41 -42 101t42 102q41 41 101 41q59 0 102 -41q41 -43 41 -102v-1zM141 568q0 -24 18 -42q17 -18 41 -18t42 18q17 19 17 43q0 23 -17 43q-18 18 -42 18t-41 -18q-18 -19 -18 -43v-1z" />
    <glyph glyph-name="plusminus" unicode="&#xb1;" horiz-adv-x="600" 
d="M220 556h160v-136h172v-160h-172v-130h-160v130h-172v160h172v136zM48 78h504v-160h-504v160z" />
    <glyph glyph-name="uni00B2" unicode="&#xb2;" horiz-adv-x="407" 
d="M376 296h-341v97l135 111q65 53 65 96q0 42 -38 42q-25 0 -36 -24q-5 -11 -6 -22q-1 -5 -1.5 -11t-0.5 -11h-123v13.5t1 10.5q1 7 2 13.5t2 12.5q7 30 24 56q29 41 70 57q32 12 75 12q170 0 170 -134q0 -80 -64 -135l-90 -78h156v-106z" />
    <glyph glyph-name="uni00B3" unicode="&#xb3;" horiz-adv-x="407" 
d="M151 433l2 -6l2 -6q3 -8 8 -13q12 -13 38 -13q48 0 48 43q0 14 -11 25q-13 13 -38 13h-55v90h31l9 1q5 1 10 1.5t10 2.5q24 11 24 37q0 14 -7 22q-8 11 -25 11q-23 0 -30 -13q-4 -5 -5 -11l-1 -6v-5h-126q2 80 64 117q24 14 54 21q27 5 48 5q68 0 112 -38q40 -34 40 -85
v-8q-1 -3 -1 -9q-2 -11 -8 -24q-13 -31 -48 -51q38 -13 61 -42q22 -28 22 -64q0 -58 -53 -100q-53 -41 -126 -41q-105 0 -150 62q-14 18 -22 46q-1 5 -2 10.5t-2 10.5l-1 9l-1 8h129z" />
    <glyph glyph-name="acute" unicode="&#xb4;" 
d="M344 829l53 -118l-199 -90l-47 98z" />
    <glyph glyph-name="mu" unicode="&#xb5;" horiz-adv-x="634" 
d="M52 555h166v-274q0 -61 20 -99q26 -45 78 -45q53 0 78 45q21 38 21 99v274h166v-555h-158v69q-2 -5 -5 -10l-6 -12q-12 -17 -21 -26q-31 -31 -73 -31q-36 0 -65 18q-21 13 -35 36v-234h-166v745z" />
    <glyph glyph-name="paragraph" unicode="&#xb6;" horiz-adv-x="701" 
d="M205 355q-94 0 -152 47q-60 50 -60 142q0 123 100 169q36 17 84 23q9 1 18.5 1.5t19.5 1.5q7 1 15 1h17h360v-118h-49v-725h-128v725h-97v-725h-128v458z" />
    <glyph glyph-name="periodcentered" unicode="&#xb7;" horiz-adv-x="314" 
d="M244 168h-173v170h173v-170z" />
    <glyph glyph-name="cedilla" unicode="&#xb8;" 
d="M282 -53q9 3 21 3q33 0 57 -21q28 -25 28 -70q0 -41 -27 -71q-31 -33 -85 -33h-9q-4 1 -7 1t-7 1q-18 4 -33 12q-45 23 -53 80h76l4 -10l6 -9q8 -9 23 -9q36 0 36 38q0 34 -34 34q-16 0 -27 -15l-65 35l42 87h83z" />
    <glyph glyph-name="uni00B9" unicode="&#xb9;" horiz-adv-x="407" 
d="M270 296h-123v338h-78v106h201v-444z" />
    <glyph glyph-name="ordmasculine" unicode="&#xba;" horiz-adv-x="385" 
d="M37 602q0 58 38 102q44 50 117 50t117 -50q38 -44 38 -103t-38 -103q-44 -50 -117 -50t-117 50q-38 44 -38 103v1zM136 600q0 -24 17 -41t39 -17t39 17t17 42t-17 42t-39 17t-39 -17t-17 -42v-1z" />
    <glyph glyph-name="guillemotright" unicode="&#xbb;" horiz-adv-x="422" 
d="M398 284l-98 -182h-116l98 182l-98 182h116zM216 284l-98 -182h-116l98 182l-98 182h116z" />
    <glyph glyph-name="onequarter" unicode="&#xbc;" horiz-adv-x="900" 
d="M324 0h-136l310 740h137zM799 171h52v-94h-52v-77h-123v77h-209v86l214 281h118v-273zM249 296h-123v338h-78v106h201v-444zM599 171h79v117z" />
    <glyph glyph-name="onehalf" unicode="&#xbd;" horiz-adv-x="920" 
d="M249 296h-123v338h-78v106h201v-444zM324 0h-136l310 740h137zM872 0h-341v97l135 111q65 53 65 96q0 42 -38 42q-25 0 -36 -24q-5 -11 -6 -22q-1 -5 -1.5 -11t-0.5 -11h-123v13.5t1 10.5q1 7 2 13.5t2 12.5q7 30 24 56q29 41 70 57q32 12 75 12q170 0 170 -134
q0 -80 -64 -135l-90 -78h156v-106z" />
    <glyph glyph-name="threequarters" unicode="&#xbe;" horiz-adv-x="1000" 
d="M702 171h84v121zM437 0h-136l310 740h137zM907 171h52v-94h-52v-77h-123v77h-209v86l214 281h118v-273zM170 433l2 -6l2 -6q3 -8 8 -13q12 -13 38 -13q48 0 48 43q0 14 -11 25q-13 13 -38 13h-55v90h31l9 1q5 1 10 1.5t10 2.5q24 11 24 37q0 14 -7 22q-8 11 -25 11
q-23 0 -30 -13q-4 -5 -5 -11l-1 -6v-5h-126q2 80 64 117q24 14 54 21q27 5 48 5q68 0 112 -38q40 -34 40 -85v-8q-1 -3 -1 -9q-2 -11 -8 -24q-13 -31 -48 -51q38 -13 61 -42q22 -28 22 -64q0 -58 -53 -100q-53 -41 -126 -41q-105 0 -150 62q-14 18 -22 46q-1 5 -2 10.5
t-2 10.5l-1 9l-1 8h129z" />
    <glyph glyph-name="questiondown" unicode="&#xbf;" horiz-adv-x="592" 
d="M231 555h174v-170h-174v170zM405 319q-2 -50 -28 -91q-20 -32 -76 -85q-68 -68 -68 -110q0 -62 58 -62q38 0 54 24q13 19 14 51q1 5 1 21h183q1 -5 1 -9v-9q0 -107 -74 -178t-189 -71q-110 0 -178 69q-62 62 -62 143q0 62 36 114q15 21 37 43l20 20l20 19q72 66 77 111
h174z" />
    <glyph glyph-name="Agrave" unicode="&#xc0;" horiz-adv-x="758" 
d="M214 0h-205l293 740h163l284 -740h-207l-35 107h-259zM375 515l-80 -258h163zM460 906l-46 -97l-198 85l51 117z" />
    <glyph glyph-name="Aacute" unicode="&#xc1;" horiz-adv-x="758" 
d="M214 0h-205l293 740h163l284 -740h-207l-35 107h-259zM375 515l-80 -258h163zM490 1024l53 -118l-199 -90l-47 98z" />
    <glyph glyph-name="Acircumflex" unicode="&#xc2;" horiz-adv-x="758" 
d="M214 0h-205l293 740h163l284 -740h-207l-35 107h-259zM375 515l-80 -258h163zM558 800h-132l-46 47l-46 -47h-134l137 137h89z" />
    <glyph glyph-name="Atilde" unicode="&#xc3;" horiz-adv-x="758" 
d="M214 0h-205l293 740h163l284 -740h-207l-35 107h-259zM375 515l-80 -258h163zM343 839q-22 14 -33 3q-9 -7 -9 -27h-108q0 92 63 126q57 30 114 -2l46 -28q22 -13 33 -2q9 8 9 26h108q0 -92 -63 -125q-57 -30 -114 2z" />
    <glyph glyph-name="Adieresis" unicode="&#xc4;" horiz-adv-x="758" 
d="M214 0h-205l293 740h163l284 -740h-207l-35 107h-259zM375 515l-80 -258h163zM342 789h-159v151h159v-151zM575 789h-159v151h159v-151z" />
    <glyph glyph-name="Aring" unicode="&#xc5;" horiz-adv-x="758" 
d="M214 0h-205l293 740h163l284 -740h-207l-35 107h-259zM375 515l-80 -258h163zM380 1017q52 0 88 -37q37 -37 37 -89t-37 -89t-89 -37t-89 37t-37 89t37 89t89 37h1zM378 936q-18 0 -31 -13q-12 -13 -12 -32q0 -18 13 -30q13 -13 31 -13t31 13q13 12 13 31q0 18 -13 31
q-12 13 -31 13h-1z" />
    <glyph glyph-name="AE" unicode="&#xc6;" horiz-adv-x="975" 
d="M504 740h421v-166h-228v-115h221v-166h-221v-127h228v-166h-411v124h-215l-80 -124h-229zM514 270v201l-138 -201h138z" />
    <glyph glyph-name="Ccedilla" unicode="&#xc7;" horiz-adv-x="832" 
d="M422 -53q9 3 21 3q30 0 55 -21q30 -26 30 -70q0 -41 -27 -71q-31 -33 -85 -33h-9q-4 1 -7 1t-7 1q-18 4 -33 12q-45 23 -53 80h76l4 -10l6 -9q8 -9 23 -9q36 0 36 38q0 34 -34 34q-16 0 -27 -15l-65 35l38 78q-146 21 -237 133q-90 107 -90 247q0 152 103 262
q112 121 285 121q158 0 268 -104q90 -85 108 -191h-198q-20 52 -59 85q-52 44 -120 44q-90 0 -147 -69q-51 -61 -51 -147q0 -87 53 -152q57 -68 146 -68q76 0 129 53q18 18 33 42q2 4 5 8t5 9l3 7l3 6h198q-32 -127 -130 -206q-98 -80 -227 -84z" />
    <glyph glyph-name="Egrave" unicode="&#xc8;" horiz-adv-x="528" 
d="M67 740h419v-166h-230v-115h223v-166h-223v-127h230v-166h-419v740zM358 906l-46 -97l-198 85l51 117z" />
    <glyph glyph-name="Eacute" unicode="&#xc9;" horiz-adv-x="528" 
d="M67 740h419v-166h-230v-115h223v-166h-223v-127h230v-166h-419v740zM388 1024l53 -118l-199 -90l-47 98z" />
    <glyph glyph-name="Ecircumflex" unicode="&#xca;" horiz-adv-x="528" 
d="M67 740h419v-166h-230v-115h223v-166h-223v-127h230v-166h-419v740zM455 800h-132l-46 47l-46 -47h-134l137 137h89z" />
    <glyph glyph-name="Edieresis" unicode="&#xcb;" horiz-adv-x="528" 
d="M67 740h419v-166h-230v-115h223v-166h-223v-127h230v-166h-419v740zM227 809h-159v151h159v-151zM460 809h-159v151h159v-151z" />
    <glyph glyph-name="Igrave" unicode="&#xcc;" horiz-adv-x="323" 
d="M67 740h189v-740h-189v740zM243 906l-46 -97l-198 85l51 117z" />
    <glyph glyph-name="Iacute" unicode="&#xcd;" horiz-adv-x="323" 
d="M67 740h189v-740h-189v740zM273 1024l53 -118l-199 -90l-47 98z" />
    <glyph glyph-name="Icircumflex" unicode="&#xce;" horiz-adv-x="323" 
d="M67 740h189v-740h-189v740zM340 800h-132l-46 47l-46 -47h-134l137 137h89z" />
    <glyph glyph-name="Idieresis" unicode="&#xcf;" horiz-adv-x="323" 
d="M67 740h189v-740h-189v740zM124 809h-159v151h159v-151zM357 809h-159v151h159v-151z" />
    <glyph glyph-name="Eth" unicode="&#xd0;" horiz-adv-x="742" 
d="M67 740h283q10 -1 19.5 -1t18.5 -1q45 -4 84 -15q103 -32 167 -121q68 -94 68 -230q0 -161 -89 -262q-98 -110 -272 -110h-279v296h-67v166h67v278zM256 462h108v-166h-108v-130h81q181 0 181 203q0 82 -36 137q-18 28 -49 46q-37 22 -95 22h-82v-112z" />
    <glyph glyph-name="Ntilde" unicode="&#xd1;" horiz-adv-x="759" 
d="M514 289l-4 451h181v-740h-164l-283 446l4 -446h-181v740h163zM343 839q-22 14 -33 3q-9 -7 -9 -27h-108q0 92 63 126q57 30 114 -2l46 -28q22 -13 33 -2q9 8 9 26h108q0 -92 -63 -125q-57 -30 -114 2z" />
    <glyph glyph-name="Ograve" unicode="&#xd2;" horiz-adv-x="851" 
d="M35 362q0 174 119 287q111 105 271 105q169 0 281 -115q110 -112 110 -269t-110 -269q-112 -115 -282 -115q-169 0 -282 116q-107 110 -107 259v1zM224 371q0 -89 54 -152q58 -67 150 -67q93 0 150 73q49 62 49 144t-49 146q-58 73 -152 73q-93 0 -150 -69
q-52 -61 -52 -147v-1zM507 906l-46 -97l-198 85l51 117z" />
    <glyph glyph-name="Oacute" unicode="&#xd3;" horiz-adv-x="851" 
d="M35 362q0 174 119 287q111 105 271 105q169 0 281 -115q110 -112 110 -269t-110 -269q-112 -115 -282 -115q-169 0 -282 116q-107 110 -107 259v1zM224 371q0 -89 54 -152q58 -67 150 -67q93 0 150 73q49 62 49 144t-49 146q-58 73 -152 73q-93 0 -150 -69
q-52 -61 -52 -147v-1zM537 1024l53 -118l-199 -90l-47 98z" />
    <glyph glyph-name="Ocircumflex" unicode="&#xd4;" horiz-adv-x="851" 
d="M35 362q0 174 119 287q111 105 271 105q169 0 281 -115q110 -112 110 -269t-110 -269q-112 -115 -282 -115q-169 0 -282 116q-107 110 -107 259v1zM224 371q0 -89 54 -152q58 -67 150 -67q93 0 150 73q49 62 49 144t-49 146q-58 73 -152 73q-93 0 -150 -69
q-52 -61 -52 -147v-1zM604 800h-132l-46 47l-46 -47h-134l137 137h89z" />
    <glyph glyph-name="Otilde" unicode="&#xd5;" horiz-adv-x="851" 
d="M35 362q0 174 119 287q111 105 271 105q169 0 281 -115q110 -112 110 -269t-110 -269q-112 -115 -282 -115q-169 0 -282 116q-107 110 -107 259v1zM224 371q0 -89 54 -152q58 -67 150 -67q93 0 150 73q49 62 49 144t-49 146q-58 73 -152 73q-93 0 -150 -69
q-52 -61 -52 -147v-1zM389 839q-22 14 -33 3q-9 -7 -9 -27h-108q0 92 63 126q57 30 114 -2l46 -28q22 -13 33 -2q9 8 9 26h108q0 -92 -63 -125q-57 -30 -114 2z" />
    <glyph glyph-name="Odieresis" unicode="&#xd6;" horiz-adv-x="851" 
d="M35 362q0 174 119 287q111 105 271 105q169 0 281 -115q110 -112 110 -269t-110 -269q-112 -115 -282 -115q-169 0 -282 116q-107 110 -107 259v1zM224 371q0 -89 54 -152q58 -67 150 -67q93 0 150 73q49 62 49 144t-49 146q-58 73 -152 73q-93 0 -150 -69
q-52 -61 -52 -147v-1zM388 809h-159v151h159v-151zM621 809h-159v151h159v-151z" />
    <glyph glyph-name="multiply" unicode="&#xd7;" horiz-adv-x="600" 
d="M56 113l130 130l-130 130l113 113l130 -130l131 131l114 -114l-131 -130l129 -130l-113 -113l-129 129l-131 -129z" />
    <glyph glyph-name="Oslash" unicode="&#xd8;" horiz-adv-x="851" 
d="M623 760h182l-94 -126q4 -4 7.5 -8t6.5 -8q5 -5 9 -10.5t8 -10.5q10 -14 18.5 -28t15.5 -28q40 -79 40 -171q0 -156 -110 -269q-112 -115 -282 -115q-58 0 -106 13q-9 2 -18 5t-17 6l-14 6l-6 3l-6 2l-32 -41h-182l95 127q-18 20 -33 39q-19 27 -33 57q-37 75 -37 167
q0 162 112 273q113 111 279 111q91 0 167 -35zM488 578l-9 3q-4 1 -7 2t-7 2q-18 3 -39 3q-95 0 -152 -71q-50 -62 -50 -144q0 -65 27 -115zM361 163q2 -1 5 -1.5t5 -1.5q4 -1 7 -2t7 -2q17 -4 42 -4q95 0 152 74q48 63 48 143q0 60 -29 115z" />
    <glyph glyph-name="Ugrave" unicode="&#xd9;" horiz-adv-x="698" 
d="M254 740v-467q1 -6 1 -12t1 -11q3 -24 11 -46q22 -52 83 -52q63 0 82 48q8 22 11 46l1 24v470h189v-447q0 -150 -74 -227q-78 -80 -207 -80q-23 0 -47 3q-30 4 -57 12q-68 20 -109 64q-45 50 -60 98q-14 48 -14 130v447h189zM430 906l-46 -97l-198 85l51 117z" />
    <glyph glyph-name="Uacute" unicode="&#xda;" horiz-adv-x="698" 
d="M254 740v-467q1 -6 1 -12t1 -11q3 -24 11 -46q22 -52 83 -52q63 0 82 48q8 22 11 46l1 24v470h189v-447q0 -150 -74 -227q-78 -80 -207 -80q-23 0 -47 3q-30 4 -57 12q-68 20 -109 64q-45 50 -60 98q-14 48 -14 130v447h189zM460 1024l53 -118l-199 -90l-47 98z" />
    <glyph glyph-name="Ucircumflex" unicode="&#xdb;" horiz-adv-x="698" 
d="M254 740v-467q1 -6 1 -12t1 -11q3 -24 11 -46q22 -52 83 -52q63 0 82 48q8 22 11 46l1 24v470h189v-447q0 -150 -74 -227q-78 -80 -207 -80q-23 0 -47 3q-30 4 -57 12q-68 20 -109 64q-45 50 -60 98q-14 48 -14 130v447h189zM528 800h-132l-46 47l-46 -47h-134l137 137
h89z" />
    <glyph glyph-name="Udieresis" unicode="&#xdc;" horiz-adv-x="698" 
d="M254 740v-467q1 -6 1 -12t1 -11q3 -24 11 -46q22 -52 83 -52q63 0 82 48q8 22 11 46l1 24v470h189v-447q0 -150 -74 -227q-78 -80 -207 -80q-23 0 -47 3q-30 4 -57 12q-68 20 -109 64q-45 50 -60 98q-14 48 -14 130v447h189zM312 809h-159v151h159v-151zM545 809h-159
v151h159v-151z" />
    <glyph glyph-name="Yacute" unicode="&#xdd;" horiz-adv-x="647" 
d="M230 269l-221 471h205l110 -297l111 297h203l-219 -471v-269h-189v269zM435 1024l53 -118l-199 -90l-47 98z" />
    <glyph glyph-name="Thorn" unicode="&#xde;" horiz-adv-x="636" 
d="M67 740h189v-97l53 1q164 0 228 -54q87 -72 87 -196q0 -57 -21 -110q-22 -54 -57 -84q-76 -64 -216 -64h-74v-136h-189v740zM256 302h84h9.5t9.5 1q24 3 39 10q45 20 45 78q0 56 -47 76q-15 7 -41 10q-5 1 -10 1h-10h-79v-176z" />
    <glyph glyph-name="germandbls" unicode="&#xdf;" horiz-adv-x="694" 
d="M58 427q0 92 12 140q7 26 20 49.5t32 45.5q87 97 219 97q103 0 170 -64q65 -62 65 -145q0 -53 -28 -90q-5 -7 -10.5 -13t-12.5 -11q-3 -3 -11 -9l-5 -3l-4 -3q65 -17 108 -67q47 -56 47 -126q0 -97 -70 -168q-75 -78 -188 -78q-65 0 -114 28q-18 11 -36 27l-15 14l-13 13
v-64h-166v427zM224 209h93l3 -10l4 -12q6 -13 14 -23q23 -27 65 -27q41 0 67 29q24 26 24 61q0 17 -3 30q-4 16 -17 30q-31 33 -117 33h-65v125h34q39 0 62 22q22 19 22 54q0 38 -24 60q-26 23 -64 23q-62 0 -86 -56q-4 -10 -6.5 -20.5t-3.5 -22.5q-1 -5 -1 -9t-1 -9v-278z
" />
    <glyph glyph-name="agrave" unicode="&#xe0;" horiz-adv-x="704" 
d="M643 0h-166v60q-21 -39 -69 -60q-42 -19 -95 -19q-127 0 -205 89q-74 85 -74 208q0 132 84 216q80 80 195 80q61 0 108 -26q37 -22 56 -52v59h166v-555zM200 275q0 -48 32 -89q39 -50 106 -50q78 0 116 62q20 33 23 71q3 36 -14 73q-17 34 -43 53q-34 24 -83 24
q-66 0 -104 -48q-33 -40 -33 -95v-1zM487 711l-46 -97l-198 85l51 117z" />
    <glyph glyph-name="aacute" unicode="&#xe1;" horiz-adv-x="704" 
d="M643 0h-166v60q-21 -39 -69 -60q-42 -19 -95 -19q-127 0 -205 89q-74 85 -74 208q0 132 84 216q80 80 195 80q61 0 108 -26q37 -22 56 -52v59h166v-555zM200 275q0 -48 32 -89q39 -50 106 -50q78 0 116 62q20 33 23 71q3 36 -14 73q-17 34 -43 53q-34 24 -83 24
q-66 0 -104 -48q-33 -40 -33 -95v-1zM487 829l53 -118l-199 -90l-47 98z" />
    <glyph glyph-name="acircumflex" unicode="&#xe2;" horiz-adv-x="704" 
d="M643 0h-166v60q-21 -39 -69 -60q-42 -19 -95 -19q-127 0 -205 89q-74 85 -74 208q0 132 84 216q80 80 195 80q61 0 108 -26q37 -22 56 -52v59h166v-555zM200 275q0 -48 32 -89q39 -50 106 -50q78 0 116 62q20 33 23 71q3 36 -14 73q-17 34 -43 53q-34 24 -83 24
q-66 0 -104 -48q-33 -40 -33 -95v-1zM556 605h-132l-46 47l-46 -47h-134l137 137h89z" />
    <glyph glyph-name="atilde" unicode="&#xe3;" horiz-adv-x="704" 
d="M643 0h-166v60q-21 -39 -69 -60q-42 -19 -95 -19q-127 0 -205 89q-74 85 -74 208q0 132 84 216q80 80 195 80q61 0 108 -26q37 -22 56 -52v59h166v-555zM200 275q0 -48 32 -89q39 -50 106 -50q78 0 116 62q20 33 23 71q3 36 -14 73q-17 34 -43 53q-34 24 -83 24
q-66 0 -104 -48q-33 -40 -33 -95v-1zM348 644q-22 14 -33 3q-9 -7 -9 -27h-108q0 92 63 126q57 30 114 -2l46 -28q22 -13 33 -2q9 8 9 26h108q0 -92 -63 -125q-57 -30 -114 2z" />
    <glyph glyph-name="adieresis" unicode="&#xe4;" horiz-adv-x="704" 
d="M643 0h-166v60q-21 -39 -69 -60q-42 -19 -95 -19q-127 0 -205 89q-74 85 -74 208q0 132 84 216q80 80 195 80q61 0 108 -26q37 -22 56 -52v59h166v-555zM200 275q0 -48 32 -89q39 -50 106 -50q78 0 116 62q20 33 23 71q3 36 -14 73q-17 34 -43 53q-34 24 -83 24
q-66 0 -104 -48q-33 -40 -33 -95v-1zM300 644h-159v151h159v-151zM533 644h-159v151h159v-151z" />
    <glyph glyph-name="aring" unicode="&#xe5;" horiz-adv-x="704" 
d="M643 0h-166v60q-21 -39 -69 -60q-42 -19 -95 -19q-127 0 -205 89q-74 85 -74 208q0 132 84 216q80 80 195 80q61 0 108 -26q37 -22 56 -52v59h166v-555zM200 275q0 -48 32 -89q39 -50 106 -50q78 0 116 62q20 33 23 71q3 36 -14 73q-17 34 -43 53q-34 24 -83 24
q-66 0 -104 -48q-33 -40 -33 -95v-1zM333 852q52 0 88 -37q37 -37 37 -89t-37 -89t-89 -37t-89 37t-37 89t37 89t89 37h1zM331 771q-18 0 -31 -13q-12 -13 -12 -32q0 -18 13 -30q13 -13 31 -13t31 13q13 12 13 31q0 18 -13 31q-12 13 -31 13h-1z" />
    <glyph glyph-name="ae" unicode="&#xe6;" horiz-adv-x="1091" 
d="M638 226q7 -55 51 -82q32 -22 76 -22q40 0 68 18l12 8t11 9l9 9l8 9h167q-37 -87 -96 -135q-68 -58 -167 -58t-150 73v-55h-151v55q-49 -73 -160 -73q-129 0 -210 100q-72 87 -72 195q0 125 80 211q81 86 206 86q47 0 93 -20q46 -21 63 -53v54h151v-53q54 72 154 72
q110 0 190 -80q103 -102 84 -268h-417zM200 280q0 -63 41 -104q41 -39 100 -39q57 0 96 41t39 98q0 62 -37 102q-39 41 -104 41q-67 0 -105 -53q-16 -21 -23 -45q-7 -21 -7 -40v-1zM895 336q-27 97 -124 97q-57 0 -95 -35q-28 -28 -34 -62h253z" />
    <glyph glyph-name="ccedilla" unicode="&#xe7;" horiz-adv-x="652" 
d="M329 -53q9 3 21 3q30 0 55 -21q30 -26 30 -70q0 -41 -27 -71q-31 -33 -85 -33h-9q-4 1 -7 1t-7 1q-18 4 -33 12q-45 23 -53 80h76l4 -10l6 -9q8 -9 23 -9q36 0 36 38q0 34 -34 34q-16 0 -27 -15l-65 35l36 75q-103 21 -169 102q-67 82 -67 189q0 124 84 209q86 86 209 86
q109 0 192 -65q81 -64 102 -168h-168q-17 32 -41 50q-31 24 -79 24q-57 3 -96 -38q-36 -39 -36 -99t36 -101q37 -40 96 -40q48 0 79 24q24 18 41 50h169q-23 -95 -94 -156q-77 -67 -178 -71z" />
    <glyph glyph-name="egrave" unicode="&#xe8;" horiz-adv-x="646" 
d="M196 220q5 -44 42 -71q36 -27 86 -27q65 0 101 52h170q-42 -94 -113 -142q-71 -50 -158 -50q-121 0 -207 85q-87 86 -87 209q0 119 82 207q85 91 209 91q128 0 210 -88q98 -105 78 -266h-413zM446 346q-2 12 -9 25q-8 15 -22 29q-35 34 -93 34t-93 -34q-14 -14 -22 -29
q-7 -13 -9 -25h248zM403 711l-46 -97l-198 85l51 117z" />
    <glyph glyph-name="eacute" unicode="&#xe9;" horiz-adv-x="646" 
d="M196 220q5 -44 42 -71q36 -27 86 -27q65 0 101 52h170q-42 -94 -113 -142q-71 -50 -158 -50q-121 0 -207 85q-87 86 -87 209q0 119 82 207q85 91 209 91q128 0 210 -88q98 -105 78 -266h-413zM446 346q-2 12 -9 25q-8 15 -22 29q-35 34 -93 34t-93 -34q-14 -14 -22 -29
q-7 -13 -9 -25h248zM432 829l53 -118l-199 -90l-47 98z" />
    <glyph glyph-name="ecircumflex" unicode="&#xea;" horiz-adv-x="646" 
d="M196 220q5 -44 42 -71q36 -27 86 -27q65 0 101 52h170q-42 -94 -113 -142q-71 -50 -158 -50q-121 0 -207 85q-87 86 -87 209q0 119 82 207q85 91 209 91q128 0 210 -88q98 -105 78 -266h-413zM446 346q-2 12 -9 25q-8 15 -22 29q-35 34 -93 34t-93 -34q-14 -14 -22 -29
q-7 -13 -9 -25h248zM500 605h-132l-46 47l-46 -47h-134l137 137h89z" />
    <glyph glyph-name="edieresis" unicode="&#xeb;" horiz-adv-x="646" 
d="M196 220q5 -44 42 -71q36 -27 86 -27q65 0 101 52h170q-42 -94 -113 -142q-71 -50 -158 -50q-121 0 -207 85q-87 86 -87 209q0 119 82 207q85 91 209 91q128 0 210 -88q98 -105 78 -266h-413zM446 346q-2 12 -9 25q-8 15 -22 29q-35 34 -93 34t-93 -34q-14 -14 -22 -29
q-7 -13 -9 -25h248zM286 644h-159v151h159v-151zM519 644h-159v151h159v-151z" />
    <glyph glyph-name="igrave" unicode="&#xec;" horiz-adv-x="286" 
d="M60 555h166v-555h-166v555zM224 711l-46 -97l-198 85l51 117z" />
    <glyph glyph-name="iacute" unicode="&#xed;" horiz-adv-x="286" 
d="M60 555h166v-555h-166v555zM254 829l53 -118l-199 -90l-47 98z" />
    <glyph glyph-name="icircumflex" unicode="&#xee;" horiz-adv-x="286" 
d="M60 555h166v-555h-166v555zM322 605h-132l-46 47l-46 -47h-134l137 137h89z" />
    <glyph glyph-name="idieresis" unicode="&#xef;" horiz-adv-x="286" 
d="M60 555h166v-555h-166v555zM106 644h-159v151h159v-151zM339 644h-159v151h159v-151z" />
    <glyph glyph-name="eth" unicode="&#xf0;" horiz-adv-x="666" 
d="M100 550v105l117 20q-15 10 -45 19l-24 8l-23 8l170 46q20 -7 43.5 -18t51.5 -26l210 44v-105l-100 -16l16 -16q5 -6 10.5 -12t10.5 -13q27 -33 47 -71q48 -91 48 -208q0 -145 -81 -237q-83 -95 -218 -95q-126 0 -212 81q-87 83 -87 212q0 134 81 215q74 74 175 74
q67 0 117 -44q-7 17 -19 32q-13 15 -26 27t-27 20zM200 278q0 -56 33 -95q38 -45 102 -45q65 0 101 49q30 41 30 92q0 54 -31 94q-36 47 -97 47q-69 0 -106 -46q-32 -40 -32 -95v-1z" />
    <glyph glyph-name="ntilde" unicode="&#xf1;" horiz-adv-x="632" 
d="M60 555h155v-59l4 5l4 6q2 4 5 7t5 6q14 15 29 25q43 29 106 29q122 0 173 -85q20 -31 27 -75q6 -31 6 -67v-347h-166v303q0 115 -87 115q-56 0 -78 -37q-17 -28 -17 -79v-302h-166v555zM281 644q-22 14 -33 3q-9 -7 -9 -27h-108q0 92 63 126q57 30 114 -2l46 -28
q22 -13 33 -2q9 8 9 26h108q0 -92 -63 -125q-57 -30 -114 2z" />
    <glyph glyph-name="ograve" unicode="&#xf2;" horiz-adv-x="666" 
d="M34 279q0 112 74 198q84 96 225 96t225 -96q74 -86 74 -199t-74 -198q-84 -97 -225 -97t-225 97q-74 85 -74 198v1zM200 277q0 -59 40 -99q37 -40 93 -40q55 0 94 40q39 41 39 100q0 60 -39 100t-94 40q-56 0 -93 -40q-40 -40 -40 -100v-1zM414 711l-46 -97l-198 85
l51 117z" />
    <glyph glyph-name="oacute" unicode="&#xf3;" horiz-adv-x="666" 
d="M34 279q0 112 74 198q84 96 225 96t225 -96q74 -86 74 -199t-74 -198q-84 -97 -225 -97t-225 97q-74 85 -74 198v1zM200 277q0 -59 40 -99q37 -40 93 -40q55 0 94 40q39 41 39 100q0 60 -39 100t-94 40q-56 0 -93 -40q-40 -40 -40 -100v-1zM444 829l53 -118l-199 -90
l-47 98z" />
    <glyph glyph-name="ocircumflex" unicode="&#xf4;" horiz-adv-x="666" 
d="M34 279q0 112 74 198q84 96 225 96t225 -96q74 -86 74 -199t-74 -198q-84 -97 -225 -97t-225 97q-74 85 -74 198v1zM200 277q0 -59 40 -99q37 -40 93 -40q55 0 94 40q39 41 39 100q0 60 -39 100t-94 40q-56 0 -93 -40q-40 -40 -40 -100v-1zM512 605h-132l-46 47l-46 -47
h-134l137 137h89z" />
    <glyph glyph-name="otilde" unicode="&#xf5;" horiz-adv-x="666" 
d="M34 279q0 112 74 198q84 96 225 96t225 -96q74 -86 74 -199t-74 -198q-84 -97 -225 -97t-225 97q-74 85 -74 198v1zM200 277q0 -59 40 -99q37 -40 93 -40q55 0 94 40q39 41 39 100q0 60 -39 100t-94 40q-56 0 -93 -40q-40 -40 -40 -100v-1zM297 644q-22 14 -33 3
q-9 -7 -9 -27h-108q0 92 63 126q57 30 114 -2l46 -28q22 -13 33 -2q9 8 9 26h108q0 -92 -63 -125q-57 -30 -114 2z" />
    <glyph glyph-name="odieresis" unicode="&#xf6;" horiz-adv-x="666" 
d="M34 279q0 112 74 198q84 96 225 96t225 -96q74 -86 74 -199t-74 -198q-84 -97 -225 -97t-225 97q-74 85 -74 198v1zM200 277q0 -59 40 -99q37 -40 93 -40q55 0 94 40q39 41 39 100q0 60 -39 100t-94 40q-56 0 -93 -40q-40 -40 -40 -100v-1zM296 644h-159v151h159v-151z
M529 644h-159v151h159v-151z" />
    <glyph glyph-name="divide" unicode="&#xf7;" horiz-adv-x="600" 
d="M378 403h-157v160h157v-160zM48 333h504v-160h-504v160zM378 -57h-157v160h157v-160z" />
    <glyph glyph-name="oslash" unicode="&#xf8;" horiz-adv-x="666" 
d="M646 588l-85 -115q71 -86 71 -195q0 -116 -75 -200q-84 -96 -223 -96q-41 0 -77 9q-15 3 -26 7q-5 2 -9 3.5t-9 3.5l-29 -38h-164l84 112q-70 79 -70 197q0 115 74 201q84 96 226 96q42 0 79 -9q7 -2 13.5 -4t12.5 -4l9 -3q3 -1 7 -3l27 38h164zM361 415l-5 1l-6 1
q-4 1 -8 1h-8q-56 0 -95 -40t-39 -100q0 -18 5 -38q2 -8 4 -14q1 -2 2 -5t2 -5zM308 140l5 -1l5 -1q5 -1 15 -1q60 0 98 44q35 41 35 97q0 21 -4 37l-2 6l-2 6l-2 5l-2 4z" />
    <glyph glyph-name="ugrave" unicode="&#xf9;" horiz-adv-x="634" 
d="M574 0h-155v59l-4 -5l-4 -6q-2 -4 -5 -7t-5 -6q-14 -15 -29 -25q-43 -29 -107 -29q-123 0 -174 85q-19 32 -27 75q-6 32 -6 67v347h166v-303q0 -115 88 -115q57 0 79 37q17 28 17 79v302h166v-555zM397 711l-46 -97l-198 85l51 117z" />
    <glyph glyph-name="uacute" unicode="&#xfa;" horiz-adv-x="634" 
d="M574 0h-155v59l-4 -5l-4 -6q-2 -4 -5 -7t-5 -6q-14 -15 -29 -25q-43 -29 -107 -29q-123 0 -174 85q-19 32 -27 75q-6 32 -6 67v347h166v-303q0 -115 88 -115q57 0 79 37q17 28 17 79v302h166v-555zM427 829l53 -118l-199 -90l-47 98z" />
    <glyph glyph-name="ucircumflex" unicode="&#xfb;" horiz-adv-x="634" 
d="M574 0h-155v59l-4 -5l-4 -6q-2 -4 -5 -7t-5 -6q-14 -15 -29 -25q-43 -29 -107 -29q-123 0 -174 85q-19 32 -27 75q-6 32 -6 67v347h166v-303q0 -115 88 -115q57 0 79 37q17 28 17 79v302h166v-555zM495 605h-132l-46 47l-46 -47h-134l137 137h89z" />
    <glyph glyph-name="udieresis" unicode="&#xfc;" horiz-adv-x="634" 
d="M574 0h-155v59l-4 -5l-4 -6q-2 -4 -5 -7t-5 -6q-14 -15 -29 -25q-43 -29 -107 -29q-123 0 -174 85q-19 32 -27 75q-6 32 -6 67v347h166v-303q0 -115 88 -115q57 0 79 37q17 28 17 79v302h166v-555zM280 644h-159v151h159v-151zM513 644h-159v151h159v-151z" />
    <glyph glyph-name="yacute" unicode="&#xfd;" horiz-adv-x="574" 
d="M207 28l-206 527h177l113 -322l106 322h176l-278 -740h-176zM398 829l53 -118l-199 -90l-47 98z" />
    <glyph glyph-name="thorn" unicode="&#xfe;" horiz-adv-x="695" 
d="M59 740h166v-234l11 10l13 11q15 12 33 22q47 24 108 24q136 0 211 -102q62 -86 62 -199q0 -123 -76 -205q-78 -86 -195 -86q-65 0 -115 27q-8 5 -16 10.5t-16 12.5q-3 2 -6 5t-6 5l-4 5l-4 4v-235h-166v925zM497 278q0 53 -35 94q-40 46 -105 46t-104 -46
q-36 -40 -36 -95q0 -56 37 -97q41 -44 103 -44t103 44q37 40 37 97v1z" />
    <glyph glyph-name="ydieresis" unicode="&#xff;" horiz-adv-x="574" 
d="M207 28l-206 527h177l113 -322l106 322h176l-278 -740h-176zM250 644h-159v151h159v-151zM483 644h-159v151h159v-151z" />
    <glyph glyph-name="Abreve" unicode="&#x102;" horiz-adv-x="758" 
d="M214 0h-205l293 740h163l284 -740h-207l-35 107h-259zM375 515l-80 -258h163zM554 956q0 -57 -49 -103q-46 -43 -126 -43t-126 43q-49 46 -49 103h115q0 -42 60 -42t60 42h115z" />
    <glyph glyph-name="abreve" unicode="&#x103;" horiz-adv-x="704" 
d="M643 0h-166v60q-21 -39 -69 -60q-42 -19 -95 -19q-127 0 -205 89q-74 85 -74 208q0 132 84 216q80 80 195 80q61 0 108 -26q37 -22 56 -52v59h166v-555zM200 275q0 -48 32 -89q39 -50 106 -50q78 0 116 62q20 33 23 71q3 36 -14 73q-17 34 -43 53q-34 24 -83 24
q-66 0 -104 -48q-33 -40 -33 -95v-1zM547 761q0 -57 -49 -103q-46 -43 -126 -43t-126 43q-49 46 -49 103h115q0 -42 60 -42t60 42h115z" />
    <glyph glyph-name="Dcroat" unicode="&#x110;" horiz-adv-x="742" 
d="M67 740h283q10 -1 19.5 -1t18.5 -1q45 -4 84 -15q103 -32 167 -121q68 -94 68 -230q0 -161 -89 -262q-98 -110 -272 -110h-279v296h-67v166h67v278zM256 462h108v-166h-108v-130h81q181 0 181 203q0 82 -36 137q-18 28 -49 46q-37 22 -95 22h-82v-112z" />
    <glyph glyph-name="dcroat" unicode="&#x111;" horiz-adv-x="698" 
d="M200 279q0 -63 40 -103q41 -39 99 -39q61 0 103 42t39 103q0 59 -41 98q-39 39 -99 39q-67 0 -106 -45q-35 -41 -35 -94v-1zM638 603v-603h-158v60l-3 -5l-4 -5q-2 -3 -5 -6t-5 -6q-13 -15 -31 -26q-48 -30 -120 -30q-124 0 -202 86q-76 83 -76 211q0 136 85 218
q79 77 190 77q62 0 112 -26q8 -5 16 -10.5t16 -11.5l5 -5t6 -5l4 -4l4 -4v95h-166v74h166v63h166v-63h66v-74h-66z" />
    <glyph glyph-name="Itilde" unicode="&#x128;" horiz-adv-x="323" 
d="M67 740h189v-740h-189v740zM125 839q-22 14 -33 3q-9 -7 -9 -27h-108q0 92 63 126q57 30 114 -2l46 -28q22 -13 33 -2q9 8 9 26h108q0 -92 -63 -125q-57 -30 -114 2z" />
    <glyph glyph-name="itilde" unicode="&#x129;" horiz-adv-x="286" 
d="M60 555h166v-555h-166v555zM107 644q-22 14 -33 3q-9 -7 -9 -27h-108q0 92 63 126q57 30 114 -2l46 -28q22 -13 33 -2q9 8 9 26h108q0 -92 -63 -125q-57 -30 -114 2z" />
    <glyph glyph-name="dotlessi" unicode="&#x131;" horiz-adv-x="286" 
d="M60 555h166v-555h-166v555z" />
    <glyph glyph-name="Lslash" unicode="&#x141;" horiz-adv-x="487" 
d="M7 346l65 47v347h189v-211l109 78v-188l-109 -78v-175h219v-166h-408v205l-65 -47v188z" />
    <glyph glyph-name="lslash" unicode="&#x142;" horiz-adv-x="342" 
d="M25 187v172l61 39v342h166v-235l65 42v-172l-65 -42v-333h-166v226z" />
    <glyph glyph-name="OE" unicode="&#x152;" horiz-adv-x="1085" 
d="M805 459h222v-166h-222v-127h230v-166h-412v49q-50 -37 -109 -52q-46 -11 -95 -11q-162 0 -275 114q-109 112 -109 268q0 154 103 266q111 120 286 120q72 0 130 -23q20 -8 40 -20q9 -5 16 -11l7 -5l6 -4v49h412v-166h-230v-115zM224 367q0 -78 46 -139q55 -76 152 -76
q93 0 150 70q50 62 50 151q0 91 -54 152q-55 63 -145 63q-94 0 -150 -71q-49 -61 -49 -149v-1z" />
    <glyph glyph-name="oe" unicode="&#x153;" horiz-adv-x="1076" 
d="M624 226q4 -44 37 -74q35 -30 87 -30q39 0 67 16q10 5 20 14t21 21h170q-12 -29 -32 -58q-24 -36 -54 -63q-80 -71 -188 -71q-82 0 -144 39q-21 13 -40 33q-4 4 -7 7.5t-7 7.5q-2 3 -5 6t-5 7l-5 -6l-5 -7q-4 -4 -7 -7.5t-7 -7.5q-10 -10 -20 -18t-21 -15
q-61 -39 -151 -39q-122 0 -207 85q-87 86 -87 210q0 121 80 207q85 91 222 91q64 0 124 -29q56 -25 84 -66q29 41 84 66q60 29 124 29q122 0 207 -87q50 -51 72 -121q23 -71 9 -140h-416zM200 276q0 -57 39 -98q41 -42 96 -42q61 0 99 47q33 42 33 95q0 57 -37 97
q-39 44 -96 44q-52 0 -91 -36q-43 -40 -43 -106v-1zM879 337q-11 46 -45 71t-80 25q-47 0 -81 -25q-36 -27 -44 -71h250z" />
    <glyph glyph-name="Scaron" unicode="&#x160;" horiz-adv-x="573" 
d="M213 245q0 -56 30 -83q5 -5 11.5 -8.5t13.5 -5.5q9 -4 22 -4q32 0 53 23q19 20 19 48q0 27 -30 46q-10 7 -38.5 20t-76.5 33l-11 4l-12 5q-7 4 -13.5 7t-13.5 6q-36 19 -60 40q-71 60 -71 150q0 105 83 170q74 58 176 58q95 0 162 -48q86 -62 87 -182h-187l-2 10l-2 12
q-5 16 -10 23q-16 27 -54 27q-26 0 -45 -16q-20 -17 -20 -42t27 -42q11 -7 42 -22.5t84 -38.5q96 -43 138 -97q35 -47 35 -115q0 -102 -55 -163q-68 -74 -203 -74q-139 0 -208 75q-64 68 -59 184h188zM230 964l56 -57l56 57h161l-165 -166h-108l-161 166h161z" />
    <glyph glyph-name="scaron" unicode="&#x161;" horiz-adv-x="499" 
d="M296 399l-1 5l-1 7q-2 8 -6 14q-12 16 -44 16q-24 0 -37 -13q-10 -10 -10 -24q0 -30 85 -55l35 -10q10 -3 18.5 -6t16.5 -5q19 -7 34.5 -15t27.5 -16q62 -42 62 -122q0 -89 -67 -143q-63 -51 -159 -51q-81 0 -139 37q-76 50 -87 147h165q5 -32 32 -45q4 -2 9 -3l10 -2
q3 -1 8 -1h4q23 0 40 11q18 14 18 32q0 25 -34 41q-13 6 -45 18l-15 5l-16 6q-10 4 -19.5 7t-17.5 7q-132 42 -132 145q0 85 64 137q62 51 151 51q34 0 62 -7q36 -7 67 -26q75 -45 84 -142h-163zM193 799l56 -57l56 57h161l-165 -166h-108l-161 166h161z" />
    <glyph glyph-name="Utilde" unicode="&#x168;" horiz-adv-x="698" 
d="M254 740v-467q1 -6 1 -12t1 -11q3 -24 11 -46q22 -52 83 -52q63 0 82 48q8 22 11 46l1 24v470h189v-447q0 -150 -74 -227q-78 -80 -207 -80q-23 0 -47 3q-30 4 -57 12q-68 20 -109 64q-45 50 -60 98q-14 48 -14 130v447h189zM313 839q-22 14 -33 3q-9 -7 -9 -27h-108
q0 92 63 126q57 30 114 -2l46 -28q22 -13 33 -2q9 8 9 26h108q0 -92 -63 -125q-57 -30 -114 2z" />
    <glyph glyph-name="utilde" unicode="&#x169;" horiz-adv-x="634" 
d="M574 0h-155v59l-4 -5l-4 -6q-2 -4 -5 -7t-5 -6q-14 -15 -29 -25q-43 -29 -107 -29q-123 0 -174 85q-19 32 -27 75q-6 32 -6 67v347h166v-303q0 -115 88 -115q57 0 79 37q17 28 17 79v302h166v-555zM280 644q-22 14 -33 3q-9 -7 -9 -27h-108q0 92 63 126q57 30 114 -2
l46 -28q22 -13 33 -2q9 8 9 26h108q0 -92 -63 -125q-57 -30 -114 2z" />
    <glyph glyph-name="Ydieresis" unicode="&#x178;" horiz-adv-x="647" 
d="M230 269l-221 471h205l110 -297l111 297h203l-219 -471v-269h-189v269zM286 809h-159v151h159v-151zM519 809h-159v151h159v-151z" />
    <glyph glyph-name="Zcaron" unicode="&#x17d;" horiz-adv-x="499" 
d="M247 166h236v-166h-467v124l255 450h-255v166h467v-153zM198 954l56 -57l56 57h161l-165 -166h-108l-161 166h161z" />
    <glyph glyph-name="zcaron" unicode="&#x17e;" horiz-adv-x="444" 
d="M15 114l234 315h-234v126h413v-126l-217 -303h217v-126h-413v114zM185 794l56 -57l56 57h161l-165 -166h-108l-161 166h161z" />
    <glyph glyph-name="florin" unicode="&#x192;" horiz-adv-x="618" 
d="M497 527v-125h-95l-54 -314q-25 -142 -71 -200q-74 -92 -205 -92h-9q-9 0 -14 1q-10 1 -18 2t-13 3l26 148q8 -1 12.5 -1.5t5.5 -0.5q59 0 84 33q18 23 29 85l57 336h-72v125h94q14 100 74 163q61 64 167 64h19q15 -2 23 -3l-22 -133q-16 0 -28 -3q-30 -8 -46 -32
q-10 -16 -17 -56h73z" />
    <glyph glyph-name="Ohorn" unicode="&#x1a0;" horiz-adv-x="851" 
d="M224 371q0 -89 54 -152q58 -67 150 -67q93 0 150 73q49 62 49 144t-49 146q-58 73 -152 73q-93 0 -150 -69q-52 -61 -52 -147v-1zM664 676q11 -8 21.5 -17.5t20.5 -19.5q110 -112 110 -269t-110 -269q-112 -115 -282 -115q-169 0 -282 116q-107 110 -107 259v1
q0 174 119 287q111 105 271 105q58 0 107 -13q42 0 52 24l4 10t3 12q1 5 1.5 10.5t0.5 11.5h123q-1 -8 -1 -14t-1 -11q-1 -7 -1.5 -13.5t-2.5 -12.5q-6 -28 -23 -55q-5 -8 -10.5 -14.5t-12.5 -12.5z" />
    <glyph glyph-name="ohorn" unicode="&#x1a1;" horiz-adv-x="666" 
d="M200 277q0 -59 40 -99q37 -40 93 -40q55 0 94 40q39 41 39 100q0 60 -39 100t-94 40q-56 0 -93 -40q-40 -40 -40 -100v-1zM560 475q72 -84 72 -197t-74 -198q-84 -97 -225 -97t-225 97q-74 85 -74 198v1q0 112 74 198q84 96 225 96q64 0 114 -19q38 1 49 24l4 10t3 12
q1 5 1.5 10.5t0.5 11.5h123q-1 -8 -1 -14t-1 -11q-1 -7 -1.5 -13.5t-2.5 -12.5q-6 -28 -23 -55q-15 -24 -39 -41z" />
    <glyph glyph-name="Uhorn" unicode="&#x1af;" horiz-adv-x="698" 
d="M633 638v-345q0 -150 -74 -227q-78 -80 -207 -80q-23 0 -47 3q-30 4 -57 12q-68 20 -109 64q-45 50 -60 98q-14 48 -14 130v447h189v-467q1 -6 1 -12t1 -11q3 -24 11 -46q22 -52 83 -52q63 0 82 48q8 22 11 46l1 24v470h135v1q44 0 54 24l4 10t3 12q1 5 1.5 10.5
t0.5 11.5h123q-1 -8 -1 -14t-1 -11q-1 -7 -1.5 -13.5t-2.5 -12.5q-6 -28 -23 -55q-29 -41 -70 -57q-7 -2 -15 -4t-18 -4z" />
    <glyph glyph-name="uhorn" unicode="&#x1b0;" horiz-adv-x="634" 
d="M574 450v-450h-155v59l-4 -5l-4 -6q-2 -4 -5 -7t-5 -6q-14 -15 -29 -25q-43 -29 -107 -29q-123 0 -174 85q-19 32 -27 75q-6 32 -6 67v347h166v-303q0 -115 88 -115q57 0 79 37q17 28 17 79v302h137q30 5 38 23l4 10t3 12q1 5 1.5 10.5t0.5 11.5h123q-1 -8 -1 -14t-1 -11
q-1 -7 -1.5 -13.5t-2.5 -12.5q-6 -28 -23 -55q-29 -41 -70 -57q-16 -6 -42 -9z" />
    <glyph glyph-name="circumflex" unicode="&#x2c6;" 
d="M457 605h-132l-46 47l-46 -47h-134l137 137h89z" />
    <glyph glyph-name="caron" unicode="&#x2c7;" 
d="M221 799l56 -57l56 57h161l-165 -166h-108l-161 166h161z" />
    <glyph glyph-name="uni02C9" unicode="&#x2c9;" 
d="M457 658h-359v126h359v-126z" />
    <glyph glyph-name="breve" unicode="&#x2d8;" 
d="M451 761q0 -57 -49 -103q-46 -43 -126 -43t-126 43q-49 46 -49 103h115q0 -42 60 -42t60 42h115z" />
    <glyph glyph-name="dotaccent" unicode="&#x2d9;" 
d="M357 644h-159v151h159v-151z" />
    <glyph glyph-name="ring" unicode="&#x2da;" 
d="M278 852q52 0 88 -37q37 -37 37 -89t-37 -89t-89 -37t-89 37t-37 89t37 89t89 37h1zM276 771q-18 0 -31 -13q-12 -13 -12 -32q0 -18 13 -30q13 -13 31 -13t31 13q13 12 13 31q0 18 -13 31q-12 13 -31 13h-1z" />
    <glyph glyph-name="ogonek" unicode="&#x2db;" 
d="M342 0l-3 -2l-4 -2l-9 -5q-10 -8 -18 -15q-23 -21 -23 -44q0 -19 14 -33q15 -15 34 -15q17 0 47 12v-86q-48 -16 -86 -16q-57 0 -89 29q-30 27 -30 68q0 52 83 109h84z" />
    <glyph glyph-name="tilde" unicode="&#x2dc;" 
d="M233 644q-22 14 -33 3q-9 -7 -9 -27h-108q0 92 63 126q57 30 114 -2l46 -28q22 -13 33 -2q9 8 9 26h108q0 -92 -63 -125q-57 -30 -114 2z" />
    <glyph glyph-name="hungarumlaut" unicode="&#x2dd;" 
d="M223 850l95 -95l-158 -136l-81 81zM463 850l95 -95l-158 -136l-81 81z" />
    <glyph glyph-name="gravecomb" unicode="&#x300;" horiz-adv-x="0" 
d="M-98 711l-46 -97l-198 85l51 117z" />
    <glyph glyph-name="acutecomb" unicode="&#x301;" horiz-adv-x="0" 
d="M-134 829l53 -118l-199 -90l-47 98z" />
    <glyph glyph-name="tildecomb" unicode="&#x303;" horiz-adv-x="0" 
d="M-221 644q-23 14 -33 3q-9 -7 -9 -27h-108q0 92 63 126q57 30 114 -2l46 -28q22 -13 33 -2q9 8 9 26h108q0 -92 -63 -125q-57 -30 -114 2z" />
    <glyph glyph-name="hookabovecomb" unicode="&#x309;" horiz-adv-x="592" 
d="M155 613q5 50 32 80q29 29 29 45q0 20 -19 20q-12 0 -17 -8q-5 -7 -5 -19q-1 -2 -1 -17h-98q-1 6 -1 10v6q0 53 36 87q35 34 91 34q53 0 86 -33q30 -31 30 -71q0 -30 -17 -56q-7 -10 -18 -21l-9 -9l-9 -8q-13 -14 -16 -40h-94z" />
    <glyph glyph-name="uni031B" unicode="&#x31b;" horiz-adv-x="407" 
d="M18 681q45 0 55 24q5 11 6 22q1 5 1.5 11t0.5 11h123v-13.5t-1 -10.5q-1 -7 -2 -13.5t-2 -12.5q-7 -30 -24 -56q-29 -41 -70 -57q-31 -12 -94 -12z" />
    <glyph glyph-name="dotbelowcomb" unicode="&#x323;" horiz-adv-x="0" 
d="M-270 -89h166v-126h-166v126z" />
    <glyph glyph-name="uni03A9" unicode="&#x3a9;" horiz-adv-x="777" 
d="M177 138q-55 49 -86 112q-41 79 -41 167q0 136 92 234q98 101 248 101q156 0 250 -108q84 -96 84 -220q0 -172 -130 -286v-3h145v-135h-308v100q120 75 120 288q0 98 -41 160q-44 65 -120 65q-75 0 -121 -64t-46 -168q0 -105 36 -182q32 -70 84 -99v-100h-308v135h142v3z
" />
    <glyph glyph-name="uni03BC" unicode="&#x3bc;" horiz-adv-x="634" 
d="M52 555h166v-274q0 -61 20 -99q26 -45 78 -45q53 0 78 45q21 38 21 99v274h166v-555h-158v69q-2 -5 -5 -10l-6 -12q-12 -17 -21 -26q-31 -31 -73 -31q-36 0 -65 18q-21 13 -35 36v-234h-166v745z" />
    <glyph glyph-name="pi" unicode="&#x3c0;" horiz-adv-x="678" 
d="M583 418v-256q0 -106 13 -162h-165q-19 34 -19 155v263h-125q-2 -47 -7 -98.5t-13 -108.5q-10 -68 -20.5 -120.5t-23.5 -90.5h-166q62 231 62 418q-62 0 -100 -9l-18 110q46 40 192 40h474l-13 -141h-71z" />
    <glyph glyph-name="uni1EA0" unicode="&#x1ea0;" horiz-adv-x="758" 
d="M214 0h-205l293 740h163l284 -740h-207l-35 107h-259zM375 515l-80 -258h163zM296 -89h166v-126h-166v126z" />
    <glyph glyph-name="uni1EA1" unicode="&#x1ea1;" horiz-adv-x="704" 
d="M643 0h-166v60q-21 -39 -69 -60q-42 -19 -95 -19q-127 0 -205 89q-74 85 -74 208q0 132 84 216q80 80 195 80q61 0 108 -26q37 -22 56 -52v59h166v-555zM200 275q0 -48 32 -89q39 -50 106 -50q78 0 116 62q20 33 23 71q3 36 -14 73q-17 34 -43 53q-34 24 -83 24
q-66 0 -104 -48q-33 -40 -33 -95v-1zM256 -89h166v-126h-166v126z" />
    <glyph glyph-name="uni1EA2" unicode="&#x1ea2;" horiz-adv-x="758" 
d="M214 0h-205l293 740h163l284 -740h-207l-35 107h-259zM375 515l-80 -258h163zM337 808q5 50 32 80q29 29 29 45q0 20 -19 20q-12 0 -17 -8q-5 -7 -5 -19q-1 -2 -1 -17h-98q-1 6 -1 10v6q0 53 36 87q35 34 91 34q53 0 86 -33q30 -31 30 -71q0 -30 -17 -56q-7 -10 -18 -21
l-9 -9l-9 -8q-13 -14 -16 -40h-94z" />
    <glyph glyph-name="uni1EA3" unicode="&#x1ea3;" horiz-adv-x="704" 
d="M643 0h-166v60q-21 -39 -69 -60q-42 -19 -95 -19q-127 0 -205 89q-74 85 -74 208q0 132 84 216q80 80 195 80q61 0 108 -26q37 -22 56 -52v59h166v-555zM200 275q0 -48 32 -89q39 -50 106 -50q78 0 116 62q20 33 23 71q3 36 -14 73q-17 34 -43 53q-34 24 -83 24
q-66 0 -104 -48q-33 -40 -33 -95v-1zM328 613q5 50 32 80q29 29 29 45q0 20 -19 20q-12 0 -17 -8q-5 -7 -5 -19q-1 -2 -1 -17h-98q-1 6 -1 10v6q0 53 36 87q35 34 91 34q53 0 86 -33q30 -31 30 -71q0 -30 -17 -56q-7 -10 -18 -21l-9 -9l-9 -8q-13 -14 -16 -40h-94z" />
    <glyph glyph-name="uni1EA4" unicode="&#x1ea4;" horiz-adv-x="758" 
d="M214 0h-205l293 740h163l284 -740h-207l-35 107h-259zM375 515l-80 -258h163zM558 801h-132l-46 47l-46 -47h-134l137 137h89zM709 1092l53 -118l-199 -90l-47 98z" />
    <glyph glyph-name="uni1EA5" unicode="&#x1ea5;" horiz-adv-x="704" 
d="M643 0h-166v60q-21 -39 -69 -60q-42 -19 -95 -19q-127 0 -205 89q-74 85 -74 208q0 132 84 216q80 80 195 80q61 0 108 -26q37 -22 56 -52v59h166v-555zM200 275q0 -48 32 -89q39 -50 106 -50q78 0 116 62q20 33 23 71q3 36 -14 73q-17 34 -43 53q-34 24 -83 24
q-66 0 -104 -48q-33 -40 -33 -95v-1zM556 605h-132l-46 47l-46 -47h-134l137 137h89zM701 889l53 -118l-199 -90l-47 98z" />
    <glyph glyph-name="uni1EA6" unicode="&#x1ea6;" horiz-adv-x="758" 
d="M214 0h-205l293 740h163l284 -740h-207l-35 107h-259zM375 515l-80 -258h163zM558 799h-132l-46 47l-46 -47h-134l137 137h89zM582 1042l-46 -97l-198 85l51 117z" />
    <glyph glyph-name="uni1EA7" unicode="&#x1ea7;" horiz-adv-x="704" 
d="M643 0h-166v60q-21 -39 -69 -60q-42 -19 -95 -19q-127 0 -205 89q-74 85 -74 208q0 132 84 216q80 80 195 80q61 0 108 -26q37 -22 56 -52v59h166v-555zM200 275q0 -48 32 -89q39 -50 106 -50q78 0 116 62q20 33 23 71q3 36 -14 73q-17 34 -43 53q-34 24 -83 24
q-66 0 -104 -48q-33 -40 -33 -95v-1zM556 605h-132l-46 47l-46 -47h-134l137 137h89zM588 846l-46 -97l-198 85l51 117z" />
    <glyph glyph-name="uni1EA8" unicode="&#x1ea8;" horiz-adv-x="758" 
d="M214 0h-205l293 740h163l284 -740h-207l-35 107h-259zM375 515l-80 -258h163zM570 800h-132l-46 47l-46 -47h-134l137 137h89zM532 907q5 50 32 80q29 29 29 45q0 20 -19 20q-12 0 -17 -8q-5 -7 -5 -19q-1 -2 -1 -17h-98q-1 6 -1 10v6q0 53 36 87q35 34 91 34
q53 0 86 -33q30 -31 30 -71q0 -30 -17 -56q-7 -10 -18 -21l-9 -9l-9 -8q-13 -14 -16 -40h-94z" />
    <glyph glyph-name="uni1EA9" unicode="&#x1ea9;" horiz-adv-x="704" 
d="M643 0h-166v60q-21 -39 -69 -60q-42 -19 -95 -19q-127 0 -205 89q-74 85 -74 208q0 132 84 216q80 80 195 80q61 0 108 -26q37 -22 56 -52v59h166v-555zM200 275q0 -48 32 -89q39 -50 106 -50q78 0 116 62q20 33 23 71q3 36 -14 73q-17 34 -43 53q-34 24 -83 24
q-66 0 -104 -48q-33 -40 -33 -95v-1zM556 605h-132l-46 47l-46 -47h-134l137 137h89zM535 709q5 50 32 80q29 29 29 45q0 20 -19 20q-12 0 -17 -8q-5 -7 -5 -19q-1 -2 -1 -17h-98q-1 6 -1 10v6q0 53 36 87q35 34 91 34q53 0 86 -33q30 -31 30 -71q0 -30 -17 -56
q-7 -10 -18 -21l-9 -9l-9 -8q-13 -14 -16 -40h-94z" />
    <glyph glyph-name="uni1EAA" unicode="&#x1eaa;" horiz-adv-x="758" 
d="M214 0h-205l293 740h163l284 -740h-207l-35 107h-259zM375 515l-80 -258h163zM566 800h-132l-46 47l-46 -47h-134l137 137h89zM401 999q-22 14 -33 3q-9 -7 -9 -27h-108q0 92 63 126q57 30 114 -2l46 -28q22 -13 33 -2q9 8 9 26h108q0 -92 -63 -125q-57 -30 -114 2z" />
    <glyph glyph-name="uni1EAB" unicode="&#x1eab;" horiz-adv-x="704" 
d="M643 0h-166v60q-21 -39 -69 -60q-42 -19 -95 -19q-127 0 -205 89q-74 85 -74 208q0 132 84 216q80 80 195 80q61 0 108 -26q37 -22 56 -52v59h166v-555zM200 275q0 -48 32 -89q39 -50 106 -50q78 0 116 62q20 33 23 71q3 36 -14 73q-17 34 -43 53q-34 24 -83 24
q-66 0 -104 -48q-33 -40 -33 -95v-1zM555 605h-132l-46 47l-46 -47h-134l137 137h89zM379 825q-22 14 -33 3q-9 -7 -9 -27h-108q0 92 63 126q57 30 114 -2l46 -28q22 -13 33 -2q9 8 9 26h108q0 -92 -63 -125q-57 -30 -114 2z" />
    <glyph glyph-name="uni1EAC" unicode="&#x1eac;" horiz-adv-x="758" 
d="M214 0h-205l293 740h163l284 -740h-207l-35 107h-259zM375 515l-80 -258h163zM558 800h-132l-46 47l-46 -47h-134l137 137h89zM296 -89h166v-126h-166v126z" />
    <glyph glyph-name="uni1EAD" unicode="&#x1ead;" horiz-adv-x="704" 
d="M643 0h-166v60q-21 -39 -69 -60q-42 -19 -95 -19q-127 0 -205 89q-74 85 -74 208q0 132 84 216q80 80 195 80q61 0 108 -26q37 -22 56 -52v59h166v-555zM200 275q0 -48 32 -89q39 -50 106 -50q78 0 116 62q20 33 23 71q3 36 -14 73q-17 34 -43 53q-34 24 -83 24
q-66 0 -104 -48q-33 -40 -33 -95v-1zM555 605h-132l-46 47l-46 -47h-134l137 137h89zM256 -89h166v-126h-166v126z" />
    <glyph glyph-name="uni1EAE" unicode="&#x1eae;" horiz-adv-x="758" 
d="M214 0h-205l293 740h163l284 -740h-207l-35 107h-259zM375 515l-80 -258h163zM554 945q0 -57 -49 -103q-46 -43 -126 -43t-126 43q-49 46 -49 103h115q0 -42 60 -42t60 42h115zM524 1173l53 -118l-199 -90l-47 98z" />
    <glyph glyph-name="uni1EAF" unicode="&#x1eaf;" horiz-adv-x="704" 
d="M643 0h-166v60q-21 -39 -69 -60q-42 -19 -95 -19q-127 0 -205 89q-74 85 -74 208q0 132 84 216q80 80 195 80q61 0 108 -26q37 -22 56 -52v59h166v-555zM200 275q0 -48 32 -89q39 -50 106 -50q78 0 116 62q20 33 23 71q3 36 -14 73q-17 34 -43 53q-34 24 -83 24
q-66 0 -104 -48q-33 -40 -33 -95v-1zM548 761q0 -57 -49 -103q-46 -43 -126 -43t-126 43q-49 46 -49 103h115q0 -42 60 -42t60 42h115zM508 1008l53 -118l-199 -90l-47 98z" />
    <glyph glyph-name="uni1EB0" unicode="&#x1eb0;" horiz-adv-x="758" 
d="M214 0h-205l293 740h163l284 -740h-207l-35 107h-259zM375 515l-80 -258h163zM554 946q0 -57 -49 -103q-46 -43 -126 -43t-126 43q-49 46 -49 103h115q0 -42 60 -42t60 42h115zM439 1065l-46 -97l-198 85l51 117z" />
    <glyph glyph-name="uni1EB1" unicode="&#x1eb1;" horiz-adv-x="704" 
d="M643 0h-166v60q-21 -39 -69 -60q-42 -19 -95 -19q-127 0 -205 89q-74 85 -74 208q0 132 84 216q80 80 195 80q61 0 108 -26q37 -22 56 -52v59h166v-555zM200 275q0 -48 32 -89q39 -50 106 -50q78 0 116 62q20 33 23 71q3 36 -14 73q-17 34 -43 53q-34 24 -83 24
q-66 0 -104 -48q-33 -40 -33 -95v-1zM547 761q0 -57 -49 -103q-46 -43 -126 -43t-126 43q-49 46 -49 103h115q0 -42 60 -42t60 42h115zM442 897l-46 -97l-198 85l51 117z" />
    <glyph glyph-name="uni1EB2" unicode="&#x1eb2;" horiz-adv-x="758" 
d="M214 0h-205l293 740h163l284 -740h-207l-35 107h-259zM375 515l-80 -258h163zM567 947q0 -57 -49 -103q-46 -43 -126 -43t-126 43q-49 46 -49 103h115q0 -42 60 -42t60 42h115zM344 982q5 37 32 60q29 21 29 34q0 15 -19 15q-12 0 -17 -6q-5 -5 -5 -15q-1 -1 -1 -12h-98
q-1 5 -1 7.5v4.5q0 40 36 65q35 25 91 25q53 0 86 -24q30 -24 30 -54q0 -22 -17 -42q-7 -7 -18 -15l-9 -7l-9 -6q-13 -10 -16 -30h-94z" />
    <glyph glyph-name="uni1EB3" unicode="&#x1eb3;" horiz-adv-x="704" 
d="M643 0h-166v60q-21 -39 -69 -60q-42 -19 -95 -19q-127 0 -205 89q-74 85 -74 208q0 132 84 216q80 80 195 80q61 0 108 -26q37 -22 56 -52v59h166v-555zM200 275q0 -48 32 -89q39 -50 106 -50q78 0 116 62q20 33 23 71q3 36 -14 73q-17 34 -43 53q-34 24 -83 24
q-66 0 -104 -48q-33 -40 -33 -95v-1zM548 761q0 -57 -49 -103q-46 -43 -126 -43t-126 43q-49 46 -49 103h115q0 -42 60 -42t60 42h115zM321 800q5 50 32 80q29 29 29 45q0 20 -19 20q-12 0 -17 -8q-5 -7 -5 -19q-1 -2 -1 -17h-98q-1 6 -1 10v6q0 53 36 87q35 34 91 34
q53 0 86 -33q30 -31 30 -71q0 -30 -17 -56q-7 -10 -18 -21l-9 -9l-9 -8q-13 -14 -16 -40h-94z" />
    <glyph glyph-name="uni1EB4" unicode="&#x1eb4;" horiz-adv-x="758" 
d="M214 0h-205l293 740h163l284 -740h-207l-35 107h-259zM375 515l-80 -258h163zM561 947q0 -57 -49 -103q-46 -43 -126 -43t-126 43q-49 46 -49 103h115q0 -42 60 -42t60 42h115zM360 1016q-22 14 -33 3q-9 -7 -9 -27h-108q0 92 63 126q57 30 114 -2l46 -28q22 -13 33 -2
q9 8 9 26h108q0 -92 -63 -125q-57 -30 -114 2z" />
    <glyph glyph-name="uni1EB5" unicode="&#x1eb5;" horiz-adv-x="704" 
d="M643 0h-166v60q-21 -39 -69 -60q-42 -19 -95 -19q-127 0 -205 89q-74 85 -74 208q0 132 84 216q80 80 195 80q61 0 108 -26q37 -22 56 -52v59h166v-555zM200 275q0 -48 32 -89q39 -50 106 -50q78 0 116 62q20 33 23 71q3 36 -14 73q-17 34 -43 53q-34 24 -83 24
q-66 0 -104 -48q-33 -40 -33 -95v-1zM547 761q0 -57 -49 -103q-46 -43 -126 -43t-126 43q-49 46 -49 103h115q0 -42 60 -42t60 42h115zM348 843q-22 14 -33 3q-9 -7 -9 -27h-108q0 92 63 126q57 30 114 -2l46 -28q22 -13 33 -2q9 8 9 26h108q0 -92 -63 -125q-57 -30 -114 2z
" />
    <glyph glyph-name="uni1EB6" unicode="&#x1eb6;" horiz-adv-x="758" 
d="M214 0h-205l293 740h163l284 -740h-207l-35 107h-259zM375 515l-80 -258h163zM554 956q0 -57 -49 -103q-46 -43 -126 -43t-126 43q-49 46 -49 103h115q0 -42 60 -42t60 42h115zM296 -89h166v-126h-166v126z" />
    <glyph glyph-name="uni1EB7" unicode="&#x1eb7;" horiz-adv-x="704" 
d="M643 0h-166v60q-21 -39 -69 -60q-42 -19 -95 -19q-127 0 -205 89q-74 85 -74 208q0 132 84 216q80 80 195 80q61 0 108 -26q37 -22 56 -52v59h166v-555zM200 275q0 -48 32 -89q39 -50 106 -50q78 0 116 62q20 33 23 71q3 36 -14 73q-17 34 -43 53q-34 24 -83 24
q-66 0 -104 -48q-33 -40 -33 -95v-1zM547 761q0 -57 -49 -103q-46 -43 -126 -43t-126 43q-49 46 -49 103h115q0 -42 60 -42t60 42h115zM288 -89h166v-126h-166v126z" />
    <glyph glyph-name="uni1EB8" unicode="&#x1eb8;" horiz-adv-x="528" 
d="M67 740h419v-166h-230v-115h223v-166h-223v-127h230v-166h-419v740zM194 -89h166v-126h-166v126z" />
    <glyph glyph-name="uni1EB9" unicode="&#x1eb9;" horiz-adv-x="646" 
d="M196 220q5 -44 42 -71q36 -27 86 -27q65 0 101 52h170q-42 -94 -113 -142q-71 -50 -158 -50q-121 0 -207 85q-87 86 -87 209q0 119 82 207q85 91 209 91q128 0 210 -88q98 -105 78 -266h-413zM446 346q-2 12 -9 25q-8 15 -22 29q-35 34 -93 34t-93 -34q-14 -14 -22 -29
q-7 -13 -9 -25h248zM238 -89h166v-126h-166v126z" />
    <glyph glyph-name="uni1EBA" unicode="&#x1eba;" horiz-adv-x="528" 
d="M67 740h419v-166h-230v-115h223v-166h-223v-127h230v-166h-419v740zM235 808q5 50 32 80q29 29 29 45q0 20 -19 20q-12 0 -17 -8q-5 -7 -5 -19q-1 -2 -1 -17h-98q-1 6 -1 10v6q0 53 36 87q35 34 91 34q53 0 86 -33q30 -31 30 -71q0 -30 -17 -56q-7 -10 -18 -21l-9 -9
l-9 -8q-13 -14 -16 -40h-94z" />
    <glyph glyph-name="uni1EBB" unicode="&#x1ebb;" horiz-adv-x="646" 
d="M196 220q5 -44 42 -71q36 -27 86 -27q65 0 101 52h170q-42 -94 -113 -142q-71 -50 -158 -50q-121 0 -207 85q-87 86 -87 209q0 119 82 207q85 91 209 91q128 0 210 -88q98 -105 78 -266h-413zM446 346q-2 12 -9 25q-8 15 -22 29q-35 34 -93 34t-93 -34q-14 -14 -22 -29
q-7 -13 -9 -25h248zM280 613q5 50 32 80q29 29 29 45q0 20 -19 20q-12 0 -17 -8q-5 -7 -5 -19q-1 -2 -1 -17h-98q-1 6 -1 10v6q0 53 36 87q35 34 91 34q53 0 86 -33q30 -31 30 -71q0 -30 -17 -56q-7 -10 -18 -21l-9 -9l-9 -8q-13 -14 -16 -40h-94z" />
    <glyph glyph-name="uni1EBC" unicode="&#x1ebc;" horiz-adv-x="528" 
d="M67 740h419v-166h-230v-115h223v-166h-223v-127h230v-166h-419v740zM240 839q-22 14 -33 3q-9 -7 -9 -27h-108q0 92 63 126q57 30 114 -2l46 -28q22 -13 33 -2q9 8 9 26h108q0 -92 -63 -125q-57 -30 -114 2z" />
    <glyph glyph-name="uni1EBD" unicode="&#x1ebd;" horiz-adv-x="646" 
d="M196 220q5 -44 42 -71q36 -27 86 -27q65 0 101 52h170q-42 -94 -113 -142q-71 -50 -158 -50q-121 0 -207 85q-87 86 -87 209q0 119 82 207q85 91 209 91q128 0 210 -88q98 -105 78 -266h-413zM446 346q-2 12 -9 25q-8 15 -22 29q-35 34 -93 34t-93 -34q-14 -14 -22 -29
q-7 -13 -9 -25h248zM285 644q-22 14 -33 3q-9 -7 -9 -27h-108q0 92 63 126q57 30 114 -2l46 -28q22 -13 33 -2q9 8 9 26h108q0 -92 -63 -125q-57 -30 -114 2z" />
    <glyph glyph-name="uni1EBE" unicode="&#x1ebe;" horiz-adv-x="528" 
d="M67 740h419v-166h-230v-115h223v-166h-223v-127h230v-166h-419v740zM455 801h-132l-46 47l-46 -47h-134l137 137h89zM606 1092l53 -118l-199 -90l-47 98z" />
    <glyph glyph-name="uni1EBF" unicode="&#x1ebf;" horiz-adv-x="646" 
d="M196 220q5 -44 42 -71q36 -27 86 -27q65 0 101 52h170q-42 -94 -113 -142q-71 -50 -158 -50q-121 0 -207 85q-87 86 -87 209q0 119 82 207q85 91 209 91q128 0 210 -88q98 -105 78 -266h-413zM446 346q-2 12 -9 25q-8 15 -22 29q-35 34 -93 34t-93 -34q-14 -14 -22 -29
q-7 -13 -9 -25h248zM500 605h-132l-46 47l-46 -47h-134l137 137h89zM660 882l53 -118l-199 -90l-47 98z" />
    <glyph glyph-name="uni1EC0" unicode="&#x1ec0;" horiz-adv-x="528" 
d="M67 740h419v-166h-230v-115h223v-166h-223v-127h230v-166h-419v740zM455 799h-132l-46 47l-46 -47h-134l137 137h89zM479 1042l-46 -97l-198 85l51 117z" />
    <glyph glyph-name="uni1EC1" unicode="&#x1ec1;" horiz-adv-x="646" 
d="M196 220q5 -44 42 -71q36 -27 86 -27q65 0 101 52h170q-42 -94 -113 -142q-71 -50 -158 -50q-121 0 -207 85q-87 86 -87 209q0 119 82 207q85 91 209 91q128 0 210 -88q98 -105 78 -266h-413zM446 346q-2 12 -9 25q-8 15 -22 29q-35 34 -93 34t-93 -34q-14 -14 -22 -29
q-7 -13 -9 -25h248zM500 605h-132l-46 47l-46 -47h-134l137 137h89zM516 847l-46 -97l-198 85l51 117z" />
    <glyph glyph-name="uni1EC2" unicode="&#x1ec2;" horiz-adv-x="528" 
d="M67 740h419v-166h-230v-115h223v-166h-223v-127h230v-166h-419v740zM467 800h-132l-46 47l-46 -47h-134l137 137h89zM429 907q5 50 32 80q29 29 29 45q0 20 -19 20q-12 0 -17 -8q-5 -7 -5 -19q-1 -2 -1 -17h-98q-1 6 -1 10v6q0 53 36 87q35 34 91 34q53 0 86 -33
q30 -31 30 -71q0 -30 -17 -56q-7 -10 -18 -21l-9 -9l-9 -8q-13 -14 -16 -40h-94z" />
    <glyph glyph-name="uni1EC3" unicode="&#x1ec3;" horiz-adv-x="646" 
d="M196 220q5 -44 42 -71q36 -27 86 -27q65 0 101 52h170q-42 -94 -113 -142q-71 -50 -158 -50q-121 0 -207 85q-87 86 -87 209q0 119 82 207q85 91 209 91q128 0 210 -88q98 -105 78 -266h-413zM446 346q-2 12 -9 25q-8 15 -22 29q-35 34 -93 34t-93 -34q-14 -14 -22 -29
q-7 -13 -9 -25h248zM500 605h-132l-46 47l-46 -47h-134l137 137h89zM460 674q5 50 32 80q29 29 29 45q0 20 -19 20q-12 0 -17 -8q-5 -7 -5 -19q-1 -2 -1 -17h-98q-1 6 -1 10v6q0 53 36 87q35 34 91 34q53 0 86 -33q30 -31 30 -71q0 -30 -17 -56q-7 -10 -18 -21l-9 -9l-9 -8
q-13 -14 -16 -40h-94z" />
    <glyph glyph-name="uni1EC4" unicode="&#x1ec4;" horiz-adv-x="528" 
d="M67 740h419v-166h-230v-115h223v-166h-223v-127h230v-166h-419v740zM463 800h-132l-46 47l-46 -47h-134l137 137h89zM298 999q-22 14 -33 3q-9 -7 -9 -27h-108q0 92 63 126q57 30 114 -2l46 -28q22 -13 33 -2q9 8 9 26h108q0 -92 -63 -125q-57 -30 -114 2z" />
    <glyph glyph-name="uni1EC5" unicode="&#x1ec5;" horiz-adv-x="646" 
d="M196 220q5 -44 42 -71q36 -27 86 -27q65 0 101 52h170q-42 -94 -113 -142q-71 -50 -158 -50q-121 0 -207 85q-87 86 -87 209q0 119 82 207q85 91 209 91q128 0 210 -88q98 -105 78 -266h-413zM446 346q-2 12 -9 25q-8 15 -22 29q-35 34 -93 34t-93 -34q-14 -14 -22 -29
q-7 -13 -9 -25h248zM500 605h-132l-46 47l-46 -47h-134l137 137h89zM285 826q-22 14 -33 3q-9 -7 -9 -27h-108q0 92 63 126q57 30 114 -2l46 -28q22 -13 33 -2q9 8 9 26h108q0 -92 -63 -125q-57 -30 -114 2z" />
    <glyph glyph-name="uni1EC6" unicode="&#x1ec6;" horiz-adv-x="528" 
d="M67 740h419v-166h-230v-115h223v-166h-223v-127h230v-166h-419v740zM455 800h-132l-46 47l-46 -47h-134l137 137h89zM194 -89h166v-126h-166v126z" />
    <glyph glyph-name="uni1EC7" unicode="&#x1ec7;" horiz-adv-x="646" 
d="M196 220q5 -44 42 -71q36 -27 86 -27q65 0 101 52h170q-42 -94 -113 -142q-71 -50 -158 -50q-121 0 -207 85q-87 86 -87 209q0 119 82 207q85 91 209 91q128 0 210 -88q98 -105 78 -266h-413zM446 346q-2 12 -9 25q-8 15 -22 29q-35 34 -93 34t-93 -34q-14 -14 -22 -29
q-7 -13 -9 -25h248zM500 605h-132l-46 47l-46 -47h-134l137 137h89zM238 -89h166v-126h-166v126z" />
    <glyph glyph-name="uni1EC8" unicode="&#x1ec8;" horiz-adv-x="323" 
d="M67 740h189v-740h-189v740zM120 808q5 50 32 80q29 29 29 45q0 20 -19 20q-12 0 -17 -8q-5 -7 -5 -19q-1 -2 -1 -17h-98q-1 6 -1 10v6q0 53 36 87q35 34 91 34q53 0 86 -33q30 -31 30 -71q0 -30 -17 -56q-7 -10 -18 -21l-9 -9l-9 -8q-13 -14 -16 -40h-94z" />
    <glyph glyph-name="uni1EC9" unicode="&#x1ec9;" horiz-adv-x="286" 
d="M60 555h166v-555h-166v555zM101 613q5 50 32 80q29 29 29 45q0 20 -19 20q-12 0 -17 -8q-5 -7 -5 -19q-1 -2 -1 -17h-98q-1 6 -1 10v6q0 53 36 87q35 34 91 34q53 0 86 -33q30 -31 30 -71q0 -30 -17 -56q-7 -10 -18 -21l-9 -9l-9 -8q-13 -14 -16 -40h-94z" />
    <glyph glyph-name="uni1ECA" unicode="&#x1eca;" horiz-adv-x="323" 
d="M67 740h189v-740h-189v740zM79 -89h166v-126h-166v126z" />
    <glyph glyph-name="uni1ECB" unicode="&#x1ecb;" horiz-adv-x="286" 
d="M60 740h166v-126h-166v126zM60 555h166v-555h-166v555zM60 -89h166v-126h-166v126z" />
    <glyph glyph-name="uni1ECC" unicode="&#x1ecc;" horiz-adv-x="851" 
d="M35 362q0 174 119 287q111 105 271 105q169 0 281 -115q110 -112 110 -269t-110 -269q-112 -115 -282 -115q-169 0 -282 116q-107 110 -107 259v1zM224 371q0 -89 54 -152q58 -67 150 -67q93 0 150 73q49 62 49 144t-49 146q-58 73 -152 73q-93 0 -150 -69
q-52 -61 -52 -147v-1zM343 -89h166v-126h-166v126z" />
    <glyph glyph-name="uni1ECD" unicode="&#x1ecd;" horiz-adv-x="666" 
d="M34 279q0 112 74 198q84 96 225 96t225 -96q74 -86 74 -199t-74 -198q-84 -97 -225 -97t-225 97q-74 85 -74 198v1zM200 277q0 -59 40 -99q37 -40 93 -40q55 0 94 40q39 41 39 100q0 60 -39 100t-94 40q-56 0 -93 -40q-40 -40 -40 -100v-1zM250 -89h166v-126h-166v126z
" />
    <glyph glyph-name="uni1ECE" unicode="&#x1ece;" horiz-adv-x="851" 
d="M35 362q0 174 119 287q111 105 271 105q169 0 281 -115q110 -112 110 -269t-110 -269q-112 -115 -282 -115q-169 0 -282 116q-107 110 -107 259v1zM224 371q0 -89 54 -152q58 -67 150 -67q93 0 150 73q49 62 49 144t-49 146q-58 73 -152 73q-93 0 -150 -69
q-52 -61 -52 -147v-1zM384 808q5 50 32 80q29 29 29 45q0 20 -19 20q-12 0 -17 -8q-5 -7 -5 -19q-1 -2 -1 -17h-98q-1 6 -1 10v6q0 53 36 87q35 34 91 34q53 0 86 -33q30 -31 30 -71q0 -30 -17 -56q-7 -10 -18 -21l-9 -9l-9 -8q-13 -14 -16 -40h-94z" />
    <glyph glyph-name="uni1ECF" unicode="&#x1ecf;" horiz-adv-x="666" 
d="M34 279q0 112 74 198q84 96 225 96t225 -96q74 -86 74 -199t-74 -198q-84 -97 -225 -97t-225 97q-74 85 -74 198v1zM200 277q0 -59 40 -99q37 -40 93 -40q55 0 94 40q39 41 39 100q0 60 -39 100t-94 40q-56 0 -93 -40q-40 -40 -40 -100v-1zM291 613q5 50 32 80
q29 29 29 45q0 20 -19 20q-12 0 -17 -8q-5 -7 -5 -19q-1 -2 -1 -17h-98q-1 6 -1 10v6q0 53 36 87q35 34 91 34q53 0 86 -33q30 -31 30 -71q0 -30 -17 -56q-7 -10 -18 -21l-9 -9l-9 -8q-13 -14 -16 -40h-94z" />
    <glyph glyph-name="uni1ED0" unicode="&#x1ed0;" horiz-adv-x="851" 
d="M35 362q0 174 119 287q111 105 271 105q169 0 281 -115q110 -112 110 -269t-110 -269q-112 -115 -282 -115q-169 0 -282 116q-107 110 -107 259v1zM224 371q0 -89 54 -152q58 -67 150 -67q93 0 150 73q49 62 49 144t-49 146q-58 73 -152 73q-93 0 -150 -69
q-52 -61 -52 -147v-1zM604 801h-132l-46 47l-46 -47h-134l137 137h89zM755 1092l53 -118l-199 -90l-47 98z" />
    <glyph glyph-name="uni1ED1" unicode="&#x1ed1;" horiz-adv-x="666" 
d="M34 279q0 112 74 198q84 96 225 96t225 -96q74 -86 74 -199t-74 -198q-84 -97 -225 -97t-225 97q-74 85 -74 198v1zM200 277q0 -59 40 -99q37 -40 93 -40q55 0 94 40q39 41 39 100q0 60 -39 100t-94 40q-56 0 -93 -40q-40 -40 -40 -100v-1zM512 605h-132l-46 47l-46 -47
h-134l137 137h89zM640 876l53 -118l-199 -90l-47 98z" />
    <glyph glyph-name="uni1ED2" unicode="&#x1ed2;" horiz-adv-x="851" 
d="M35 362q0 174 119 287q111 105 271 105q169 0 281 -115q110 -112 110 -269t-110 -269q-112 -115 -282 -115q-169 0 -282 116q-107 110 -107 259v1zM224 371q0 -89 54 -152q58 -67 150 -67q93 0 150 73q49 62 49 144t-49 146q-58 73 -152 73q-93 0 -150 -69
q-52 -61 -52 -147v-1zM604 799h-132l-46 47l-46 -47h-134l137 137h89zM628 1042l-46 -97l-198 85l51 117z" />
    <glyph glyph-name="uni1ED3" unicode="&#x1ed3;" horiz-adv-x="666" 
d="M34 279q0 112 74 198q84 96 225 96t225 -96q74 -86 74 -199t-74 -198q-84 -97 -225 -97t-225 97q-74 85 -74 198v1zM200 277q0 -59 40 -99q37 -40 93 -40q55 0 94 40q39 41 39 100q0 60 -39 100t-94 40q-56 0 -93 -40q-40 -40 -40 -100v-1zM512 605h-132l-46 47l-46 -47
h-134l137 137h89zM536 846l-46 -97l-198 85l51 117z" />
    <glyph glyph-name="uni1ED4" unicode="&#x1ed4;" horiz-adv-x="851" 
d="M35 362q0 174 119 287q111 105 271 105q169 0 281 -115q110 -112 110 -269t-110 -269q-112 -115 -282 -115q-169 0 -282 116q-107 110 -107 259v1zM224 371q0 -89 54 -152q58 -67 150 -67q93 0 150 73q49 62 49 144t-49 146q-58 73 -152 73q-93 0 -150 -69
q-52 -61 -52 -147v-1zM616 800h-132l-46 47l-46 -47h-134l137 137h89zM578 907q5 50 32 80q29 29 29 45q0 20 -19 20q-12 0 -17 -8q-5 -7 -5 -19q-1 -2 -1 -17h-98q-1 6 -1 10v6q0 53 36 87q35 34 91 34q53 0 86 -33q30 -31 30 -71q0 -30 -17 -56q-7 -10 -18 -21l-9 -9
l-9 -8q-13 -14 -16 -40h-94z" />
    <glyph glyph-name="uni1ED5" unicode="&#x1ed5;" horiz-adv-x="666" 
d="M34 279q0 112 74 198q84 96 225 96t225 -96q74 -86 74 -199t-74 -198q-84 -97 -225 -97t-225 97q-74 85 -74 198v1zM200 277q0 -59 40 -99q37 -40 93 -40q55 0 94 40q39 41 39 100q0 60 -39 100t-94 40q-56 0 -93 -40q-40 -40 -40 -100v-1zM512 605h-132l-46 47l-46 -47
h-134l137 137h89zM473 674q5 50 32 80q29 29 29 45q0 20 -19 20q-12 0 -17 -8q-5 -7 -5 -19q-1 -2 -1 -17h-98q-1 6 -1 10v6q0 53 36 87q35 34 91 34q53 0 86 -33q30 -31 30 -71q0 -30 -17 -56q-7 -10 -18 -21l-9 -9l-9 -8q-13 -14 -16 -40h-94z" />
    <glyph glyph-name="uni1ED6" unicode="&#x1ed6;" horiz-adv-x="851" 
d="M35 362q0 174 119 287q111 105 271 105q169 0 281 -115q110 -112 110 -269t-110 -269q-112 -115 -282 -115q-169 0 -282 116q-107 110 -107 259v1zM224 371q0 -89 54 -152q58 -67 150 -67q93 0 150 73q49 62 49 144t-49 146q-58 73 -152 73q-93 0 -150 -69
q-52 -61 -52 -147v-1zM612 800h-132l-46 47l-46 -47h-134l137 137h89zM447 999q-22 14 -33 3q-9 -7 -9 -27h-108q0 92 63 126q57 30 114 -2l46 -28q22 -13 33 -2q9 8 9 26h108q0 -92 -63 -125q-57 -30 -114 2z" />
    <glyph glyph-name="uni1ED7" unicode="&#x1ed7;" horiz-adv-x="666" 
d="M34 279q0 112 74 198q84 96 225 96t225 -96q74 -86 74 -199t-74 -198q-84 -97 -225 -97t-225 97q-74 85 -74 198v1zM200 277q0 -59 40 -99q37 -40 93 -40q55 0 94 40q39 41 39 100q0 60 -39 100t-94 40q-56 0 -93 -40q-40 -40 -40 -100v-1zM512 605h-132l-46 47l-46 -47
h-134l137 137h89zM325 803q-22 14 -33 3q-9 -7 -9 -27h-108q0 92 63 126q57 30 114 -2l46 -28q22 -13 33 -2q9 8 9 26h108q0 -92 -63 -125q-57 -30 -114 2z" />
    <glyph glyph-name="uni1ED8" unicode="&#x1ed8;" horiz-adv-x="851" 
d="M35 362q0 174 119 287q111 105 271 105q169 0 281 -115q110 -112 110 -269t-110 -269q-112 -115 -282 -115q-169 0 -282 116q-107 110 -107 259v1zM224 371q0 -89 54 -152q58 -67 150 -67q93 0 150 73q49 62 49 144t-49 146q-58 73 -152 73q-93 0 -150 -69
q-52 -61 -52 -147v-1zM604 800h-132l-46 47l-46 -47h-134l137 137h89zM343 -89h166v-126h-166v126z" />
    <glyph glyph-name="uni1ED9" unicode="&#x1ed9;" horiz-adv-x="666" 
d="M34 279q0 112 74 198q84 96 225 96t225 -96q74 -86 74 -199t-74 -198q-84 -97 -225 -97t-225 97q-74 85 -74 198v1zM200 277q0 -59 40 -99q37 -40 93 -40q55 0 94 40q39 41 39 100q0 60 -39 100t-94 40q-56 0 -93 -40q-40 -40 -40 -100v-1zM512 605h-132l-46 47l-46 -47
h-134l137 137h89zM250 -89h166v-126h-166v126z" />
    <glyph glyph-name="uni1EDA" unicode="&#x1eda;" horiz-adv-x="851" 
d="M224 371q0 -89 54 -152q58 -67 150 -67q93 0 150 73q49 62 49 144t-49 146q-58 73 -152 73q-93 0 -150 -69q-52 -61 -52 -147v-1zM664 676q11 -8 21.5 -17.5t20.5 -19.5q110 -112 110 -269t-110 -269q-112 -115 -282 -115q-169 0 -282 116q-107 110 -107 259v1
q0 174 119 287q111 105 271 105q58 0 107 -13q42 0 52 24l4 10t3 12q1 5 1.5 10.5t0.5 11.5h123q-1 -8 -1 -14t-1 -11q-1 -7 -1.5 -13.5t-2.5 -12.5q-6 -28 -23 -55q-5 -8 -10.5 -14.5t-12.5 -12.5zM537 1024l53 -118l-199 -90l-47 98z" />
    <glyph glyph-name="uni1EDB" unicode="&#x1edb;" horiz-adv-x="666" 
d="M200 277q0 -59 40 -99q37 -40 93 -40q55 0 94 40q39 41 39 100q0 60 -39 100t-94 40q-56 0 -93 -40q-40 -40 -40 -100v-1zM560 475q72 -84 72 -197t-74 -198q-84 -97 -225 -97t-225 97q-74 85 -74 198v1q0 112 74 198q84 96 225 96q64 0 114 -19q38 1 49 24l4 10t3 12
q1 5 1.5 10.5t0.5 11.5h123q-1 -8 -1 -14t-1 -11q-1 -7 -1.5 -13.5t-2.5 -12.5q-6 -28 -23 -55q-15 -24 -39 -41zM404 829l53 -118l-199 -90l-47 98z" />
    <glyph glyph-name="uni1EDC" unicode="&#x1edc;" horiz-adv-x="851" 
d="M224 371q0 -89 54 -152q58 -67 150 -67q93 0 150 73q49 62 49 144t-49 146q-58 73 -152 73q-93 0 -150 -69q-52 -61 -52 -147v-1zM664 676q11 -8 21.5 -17.5t20.5 -19.5q110 -112 110 -269t-110 -269q-112 -115 -282 -115q-169 0 -282 116q-107 110 -107 259v1
q0 174 119 287q111 105 271 105q58 0 107 -13q42 0 52 24l4 10t3 12q1 5 1.5 10.5t0.5 11.5h123q-1 -8 -1 -14t-1 -11q-1 -7 -1.5 -13.5t-2.5 -12.5q-6 -28 -23 -55q-5 -8 -10.5 -14.5t-12.5 -12.5zM507 906l-46 -97l-198 85l51 117z" />
    <glyph glyph-name="uni1EDD" unicode="&#x1edd;" horiz-adv-x="666" 
d="M200 277q0 -59 40 -99q37 -40 93 -40q55 0 94 40q39 41 39 100q0 60 -39 100t-94 40q-56 0 -93 -40q-40 -40 -40 -100v-1zM560 475q72 -84 72 -197t-74 -198q-84 -97 -225 -97t-225 97q-74 85 -74 198v1q0 112 74 198q84 96 225 96q64 0 114 -19q38 1 49 24l4 10t3 12
q1 5 1.5 10.5t0.5 11.5h123q-1 -8 -1 -14t-1 -11q-1 -7 -1.5 -13.5t-2.5 -12.5q-6 -28 -23 -55q-15 -24 -39 -41zM382 711l-46 -97l-198 85l51 117z" />
    <glyph glyph-name="uni1EDE" unicode="&#x1ede;" horiz-adv-x="851" 
d="M224 371q0 -89 54 -152q58 -67 150 -67q93 0 150 73q49 62 49 144t-49 146q-58 73 -152 73q-93 0 -150 -69q-52 -61 -52 -147v-1zM664 676q11 -8 21.5 -17.5t20.5 -19.5q110 -112 110 -269t-110 -269q-112 -115 -282 -115q-169 0 -282 116q-107 110 -107 259v1
q0 174 119 287q111 105 271 105q58 0 107 -13q42 0 52 24l4 10t3 12q1 5 1.5 10.5t0.5 11.5h123q-1 -8 -1 -14t-1 -11q-1 -7 -1.5 -13.5t-2.5 -12.5q-6 -28 -23 -55q-5 -8 -10.5 -14.5t-12.5 -12.5zM384 808q5 50 32 80q29 29 29 45q0 20 -19 20q-12 0 -17 -8q-5 -7 -5 -19
q-1 -2 -1 -17h-98q-1 6 -1 10v6q0 53 36 87q35 34 91 34q53 0 86 -33q30 -31 30 -71q0 -30 -17 -56q-7 -10 -18 -21l-9 -9l-9 -8q-13 -14 -16 -40h-94z" />
    <glyph glyph-name="uni1EDF" unicode="&#x1edf;" horiz-adv-x="666" 
d="M200 277q0 -59 40 -99q37 -40 93 -40q55 0 94 40q39 41 39 100q0 60 -39 100t-94 40q-56 0 -93 -40q-40 -40 -40 -100v-1zM560 475q72 -84 72 -197t-74 -198q-84 -97 -225 -97t-225 97q-74 85 -74 198v1q0 112 74 198q84 96 225 96q64 0 114 -19q38 1 49 24l4 10t3 12
q1 5 1.5 10.5t0.5 11.5h123q-1 -8 -1 -14t-1 -11q-1 -7 -1.5 -13.5t-2.5 -12.5q-6 -28 -23 -55q-15 -24 -39 -41zM274 613q5 50 32 80q29 29 29 45q0 20 -19 20q-12 0 -17 -8q-5 -7 -5 -19q-1 -2 -1 -17h-98q-1 6 -1 10v6q0 53 36 87q35 34 91 34q53 0 86 -33q30 -31 30 -71
q0 -30 -17 -56q-7 -10 -18 -21l-9 -9l-9 -8q-13 -14 -16 -40h-94z" />
    <glyph glyph-name="uni1EE0" unicode="&#x1ee0;" horiz-adv-x="851" 
d="M224 371q0 -89 54 -152q58 -67 150 -67q93 0 150 73q49 62 49 144t-49 146q-58 73 -152 73q-93 0 -150 -69q-52 -61 -52 -147v-1zM664 676q11 -8 21.5 -17.5t20.5 -19.5q110 -112 110 -269t-110 -269q-112 -115 -282 -115q-169 0 -282 116q-107 110 -107 259v1
q0 174 119 287q111 105 271 105q58 0 107 -13q42 0 52 24l4 10t3 12q1 5 1.5 10.5t0.5 11.5h123q-1 -8 -1 -14t-1 -11q-1 -7 -1.5 -13.5t-2.5 -12.5q-6 -28 -23 -55q-5 -8 -10.5 -14.5t-12.5 -12.5zM382 869q-22 14 -33 3q-9 -7 -9 -27h-108q0 92 63 126q57 30 114 -2
l46 -28q22 -13 33 -2q9 8 9 26h108q0 -92 -63 -125q-57 -30 -114 2z" />
    <glyph glyph-name="uni1EE1" unicode="&#x1ee1;" horiz-adv-x="666" 
d="M200 277q0 -59 40 -99q37 -40 93 -40q55 0 94 40q39 41 39 100q0 60 -39 100t-94 40q-56 0 -93 -40q-40 -40 -40 -100v-1zM560 475q72 -84 72 -197t-74 -198q-84 -97 -225 -97t-225 97q-74 85 -74 198v1q0 112 74 198q84 96 225 96q64 0 114 -19q38 1 49 24l4 10t3 12
q1 5 1.5 10.5t0.5 11.5h123q-1 -8 -1 -14t-1 -11q-1 -7 -1.5 -13.5t-2.5 -12.5q-6 -28 -23 -55q-15 -24 -39 -41zM300 684q-22 14 -33 3q-9 -7 -9 -27h-108q0 92 63 126q57 30 114 -2l46 -28q22 -13 33 -2q9 8 9 26h108q0 -92 -63 -125q-57 -30 -114 2z" />
    <glyph glyph-name="uni1EE2" unicode="&#x1ee2;" horiz-adv-x="851" 
d="M224 371q0 -89 54 -152q58 -67 150 -67q93 0 150 73q49 62 49 144t-49 146q-58 73 -152 73q-93 0 -150 -69q-52 -61 -52 -147v-1zM664 676q11 -8 21.5 -17.5t20.5 -19.5q110 -112 110 -269t-110 -269q-112 -115 -282 -115q-169 0 -282 116q-107 110 -107 259v1
q0 174 119 287q111 105 271 105q58 0 107 -13q42 0 52 24l4 10t3 12q1 5 1.5 10.5t0.5 11.5h123q-1 -8 -1 -14t-1 -11q-1 -7 -1.5 -13.5t-2.5 -12.5q-6 -28 -23 -55q-5 -8 -10.5 -14.5t-12.5 -12.5zM343 -89h166v-126h-166v126z" />
    <glyph glyph-name="uni1EE3" unicode="&#x1ee3;" horiz-adv-x="666" 
d="M200 277q0 -59 40 -99q37 -40 93 -40q55 0 94 40q39 41 39 100q0 60 -39 100t-94 40q-56 0 -93 -40q-40 -40 -40 -100v-1zM560 475q72 -84 72 -197t-74 -198q-84 -97 -225 -97t-225 97q-74 85 -74 198v1q0 112 74 198q84 96 225 96q64 0 114 -19q38 1 49 24l4 10t3 12
q1 5 1.5 10.5t0.5 11.5h123q-1 -8 -1 -14t-1 -11q-1 -7 -1.5 -13.5t-2.5 -12.5q-6 -28 -23 -55q-15 -24 -39 -41zM251 -89h166v-126h-166v126z" />
    <glyph glyph-name="uni1EE4" unicode="&#x1ee4;" horiz-adv-x="698" 
d="M254 740v-467q1 -6 1 -12t1 -11q3 -24 11 -46q22 -52 83 -52q63 0 82 48q8 22 11 46l1 24v470h189v-447q0 -150 -74 -227q-78 -80 -207 -80q-23 0 -47 3q-30 4 -57 12q-68 20 -109 64q-45 50 -60 98q-14 48 -14 130v447h189zM266 -89h166v-126h-166v126z" />
    <glyph glyph-name="uni1EE5" unicode="&#x1ee5;" horiz-adv-x="634" 
d="M574 0h-155v59l-4 -5l-4 -6q-2 -4 -5 -7t-5 -6q-14 -15 -29 -25q-43 -29 -107 -29q-123 0 -174 85q-19 32 -27 75q-6 32 -6 67v347h166v-303q0 -115 88 -115q57 0 79 37q17 28 17 79v302h166v-555zM233 -89h166v-126h-166v126z" />
    <glyph glyph-name="uni1EE6" unicode="&#x1ee6;" horiz-adv-x="698" 
d="M254 740v-467q1 -6 1 -12t1 -11q3 -24 11 -46q22 -52 83 -52q63 0 82 48q8 22 11 46l1 24v470h189v-447q0 -150 -74 -227q-78 -80 -207 -80q-23 0 -47 3q-30 4 -57 12q-68 20 -109 64q-45 50 -60 98q-14 48 -14 130v447h189zM307 808q5 50 32 80q29 29 29 45q0 20 -19 20
q-12 0 -17 -8q-5 -7 -5 -19q-1 -2 -1 -17h-98q-1 6 -1 10v6q0 53 36 87q35 34 91 34q53 0 86 -33q30 -31 30 -71q0 -30 -17 -56q-7 -10 -18 -21l-9 -9l-9 -8q-13 -14 -16 -40h-94z" />
    <glyph glyph-name="uni1EE7" unicode="&#x1ee7;" horiz-adv-x="634" 
d="M574 0h-155v59l-4 -5l-4 -6q-2 -4 -5 -7t-5 -6q-14 -15 -29 -25q-43 -29 -107 -29q-123 0 -174 85q-19 32 -27 75q-6 32 -6 67v347h166v-303q0 -115 88 -115q57 0 79 37q17 28 17 79v302h166v-555zM272 613q5 50 32 80q29 29 29 45q0 20 -19 20q-12 0 -17 -8
q-5 -7 -5 -19q-1 -2 -1 -17h-98q-1 6 -1 10v6q0 53 36 87q35 34 91 34q53 0 86 -33q30 -31 30 -71q0 -30 -17 -56q-7 -10 -18 -21l-9 -9l-9 -8q-13 -14 -16 -40h-94z" />
    <glyph glyph-name="uni1EE8" unicode="&#x1ee8;" horiz-adv-x="698" 
d="M633 638v-345q0 -150 -74 -227q-78 -80 -207 -80q-23 0 -47 3q-30 4 -57 12q-68 20 -109 64q-45 50 -60 98q-14 48 -14 130v447h189v-467q1 -6 1 -12t1 -11q3 -24 11 -46q22 -52 83 -52q63 0 82 48q8 22 11 46l1 24v470h135v1q44 0 54 24l4 10t3 12q1 5 1.5 10.5
t0.5 11.5h123q-1 -8 -1 -14t-1 -11q-1 -7 -1.5 -13.5t-2.5 -12.5q-6 -28 -23 -55q-29 -41 -70 -57q-7 -2 -15 -4t-18 -4zM430 1008l53 -118l-199 -90l-47 98z" />
    <glyph glyph-name="uni1EE9" unicode="&#x1ee9;" horiz-adv-x="634" 
d="M574 450v-450h-155v59l-4 -5l-4 -6q-2 -4 -5 -7t-5 -6q-14 -15 -29 -25q-43 -29 -107 -29q-123 0 -174 85q-19 32 -27 75q-6 32 -6 67v347h166v-303q0 -115 88 -115q57 0 79 37q17 28 17 79v302h137q30 5 38 23l4 10t3 12q1 5 1.5 10.5t0.5 11.5h123q-1 -8 -1 -14t-1 -11
q-1 -7 -1.5 -13.5t-2.5 -12.5q-6 -28 -23 -55q-29 -41 -70 -57q-16 -6 -42 -9zM477 829l53 -118l-199 -90l-47 98z" />
    <glyph glyph-name="uni1EEA" unicode="&#x1eea;" horiz-adv-x="698" 
d="M633 638v-345q0 -150 -74 -227q-78 -80 -207 -80q-23 0 -47 3q-30 4 -57 12q-68 20 -109 64q-45 50 -60 98q-14 48 -14 130v447h189v-467q1 -6 1 -12t1 -11q3 -24 11 -46q22 -52 83 -52q63 0 82 48q8 22 11 46l1 24v470h135v1q44 0 54 24l4 10t3 12q1 5 1.5 10.5
t0.5 11.5h123q-1 -8 -1 -14t-1 -11q-1 -7 -1.5 -13.5t-2.5 -12.5q-6 -28 -23 -55q-29 -41 -70 -57q-7 -2 -15 -4t-18 -4zM442 897l-46 -97l-198 85l51 117z" />
    <glyph glyph-name="uni1EEB" unicode="&#x1eeb;" horiz-adv-x="634" 
d="M574 450v-450h-155v59l-4 -5l-4 -6q-2 -4 -5 -7t-5 -6q-14 -15 -29 -25q-43 -29 -107 -29q-123 0 -174 85q-19 32 -27 75q-6 32 -6 67v347h166v-303q0 -115 88 -115q57 0 79 37q17 28 17 79v302h137q30 5 38 23l4 10t3 12q1 5 1.5 10.5t0.5 11.5h123q-1 -8 -1 -14t-1 -11
q-1 -7 -1.5 -13.5t-2.5 -12.5q-6 -28 -23 -55q-29 -41 -70 -57q-16 -6 -42 -9zM453 711l-46 -97l-198 85l51 117z" />
    <glyph glyph-name="uni1EEC" unicode="&#x1eec;" horiz-adv-x="698" 
d="M633 638v-345q0 -150 -74 -227q-78 -80 -207 -80q-23 0 -47 3q-30 4 -57 12q-68 20 -109 64q-45 50 -60 98q-14 48 -14 130v447h189v-467q1 -6 1 -12t1 -11q3 -24 11 -46q22 -52 83 -52q63 0 82 48q8 22 11 46l1 24v470h135v1q44 0 54 24l4 10t3 12q1 5 1.5 10.5
t0.5 11.5h123q-1 -8 -1 -14t-1 -11q-1 -7 -1.5 -13.5t-2.5 -12.5q-6 -28 -23 -55q-29 -41 -70 -57q-7 -2 -15 -4t-18 -4zM299 800q5 50 32 80q29 29 29 45q0 20 -19 20q-12 0 -17 -8q-5 -7 -5 -19q-1 -2 -1 -17h-98q-1 6 -1 10v6q0 53 36 87q35 34 91 34q53 0 86 -33
q30 -31 30 -71q0 -30 -17 -56q-7 -10 -18 -21l-9 -9l-9 -8q-13 -14 -16 -40h-94z" />
    <glyph glyph-name="uni1EED" unicode="&#x1eed;" horiz-adv-x="634" 
d="M574 450v-450h-155v59l-4 -5l-4 -6q-2 -4 -5 -7t-5 -6q-14 -15 -29 -25q-43 -29 -107 -29q-123 0 -174 85q-19 32 -27 75q-6 32 -6 67v347h166v-303q0 -115 88 -115q57 0 79 37q17 28 17 79v302h137q30 5 38 23l4 10t3 12q1 5 1.5 10.5t0.5 11.5h123q-1 -8 -1 -14t-1 -11
q-1 -7 -1.5 -13.5t-2.5 -12.5q-6 -28 -23 -55q-29 -41 -70 -57q-16 -6 -42 -9zM279 613q5 50 32 80q29 29 29 45q0 20 -19 20q-12 0 -17 -8q-5 -7 -5 -19q-1 -2 -1 -17h-98q-1 6 -1 10v6q0 53 36 87q35 34 91 34q53 0 86 -33q30 -31 30 -71q0 -30 -17 -56q-7 -10 -18 -21
l-9 -9l-9 -8q-13 -14 -16 -40h-94z" />
    <glyph glyph-name="uni1EEE" unicode="&#x1eee;" horiz-adv-x="698" 
d="M633 638v-345q0 -150 -74 -227q-78 -80 -207 -80q-23 0 -47 3q-30 4 -57 12q-68 20 -109 64q-45 50 -60 98q-14 48 -14 130v447h189v-467q1 -6 1 -12t1 -11q3 -24 11 -46q22 -52 83 -52q63 0 82 48q8 22 11 46l1 24v470h135v1q44 0 54 24l4 10t3 12q1 5 1.5 10.5
t0.5 11.5h123q-1 -8 -1 -14t-1 -11q-1 -7 -1.5 -13.5t-2.5 -12.5q-6 -28 -23 -55q-29 -41 -70 -57q-7 -2 -15 -4t-18 -4zM379 839q-22 14 -33 3q-9 -7 -9 -27h-108q0 92 63 126q57 30 114 -2l46 -28q22 -13 33 -2q9 8 9 26h108q0 -92 -63 -125q-57 -30 -114 2z" />
    <glyph glyph-name="uni1EEF" unicode="&#x1eef;" horiz-adv-x="634" 
d="M574 450v-450h-155v59l-4 -5l-4 -6q-2 -4 -5 -7t-5 -6q-14 -15 -29 -25q-43 -29 -107 -29q-123 0 -174 85q-19 32 -27 75q-6 32 -6 67v347h166v-303q0 -115 88 -115q57 0 79 37q17 28 17 79v302h137q30 5 38 23l4 10t3 12q1 5 1.5 10.5t0.5 11.5h123q-1 -8 -1 -14t-1 -11
q-1 -7 -1.5 -13.5t-2.5 -12.5q-6 -28 -23 -55q-29 -41 -70 -57q-16 -6 -42 -9zM285 644q-22 14 -33 3q-9 -7 -9 -27h-108q0 92 63 126q57 30 114 -2l46 -28q22 -13 33 -2q9 8 9 26h108q0 -92 -63 -125q-57 -30 -114 2z" />
    <glyph glyph-name="uni1EF0" unicode="&#x1ef0;" horiz-adv-x="698" 
d="M633 638v-345q0 -150 -74 -227q-78 -80 -207 -80q-23 0 -47 3q-30 4 -57 12q-68 20 -109 64q-45 50 -60 98q-14 48 -14 130v447h189v-467q1 -6 1 -12t1 -11q3 -24 11 -46q22 -52 83 -52q63 0 82 48q8 22 11 46l1 24v470h135v1q44 0 54 24l4 10t3 12q1 5 1.5 10.5
t0.5 11.5h123q-1 -8 -1 -14t-1 -11q-1 -7 -1.5 -13.5t-2.5 -12.5q-6 -28 -23 -55q-29 -41 -70 -57q-7 -2 -15 -4t-18 -4zM280 -89h166v-126h-166v126z" />
    <glyph glyph-name="uni1EF1" unicode="&#x1ef1;" horiz-adv-x="634" 
d="M574 450v-450h-155v59l-4 -5l-4 -6q-2 -4 -5 -7t-5 -6q-14 -15 -29 -25q-43 -29 -107 -29q-123 0 -174 85q-19 32 -27 75q-6 32 -6 67v347h166v-303q0 -115 88 -115q57 0 79 37q17 28 17 79v302h137q30 5 38 23l4 10t3 12q1 5 1.5 10.5t0.5 11.5h123q-1 -8 -1 -14t-1 -11
q-1 -7 -1.5 -13.5t-2.5 -12.5q-6 -28 -23 -55q-29 -41 -70 -57q-16 -6 -42 -9zM286 -89h166v-126h-166v126z" />
    <glyph glyph-name="Ygrave" unicode="&#x1ef2;" horiz-adv-x="647" 
d="M230 269l-221 471h205l110 -297l111 297h203l-219 -471v-269h-189v269zM405 906l-46 -97l-198 85l51 117z" />
    <glyph glyph-name="ygrave" unicode="&#x1ef3;" horiz-adv-x="574" 
d="M207 28l-206 527h177l113 -322l106 322h176l-278 -740h-176zM368 711l-46 -97l-198 85l51 117z" />
    <glyph glyph-name="uni1EF4" unicode="&#x1ef4;" horiz-adv-x="647" 
d="M230 269l-221 471h205l110 -297l111 297h203l-219 -471v-269h-189v269zM241 -89h166v-126h-166v126z" />
    <glyph glyph-name="uni1EF5" unicode="&#x1ef5;" horiz-adv-x="574" 
d="M207 28l-206 527h177l113 -322l106 322h176l-278 -740h-176zM393 -89h166v-126h-166v126z" />
    <glyph glyph-name="uni1EF6" unicode="&#x1ef6;" horiz-adv-x="647" 
d="M230 269l-221 471h205l110 -297l111 297h203l-219 -471v-269h-189v269zM282 808q5 50 32 80q29 29 29 45q0 20 -19 20q-12 0 -17 -8q-5 -7 -5 -19q-1 -2 -1 -17h-98q-1 6 -1 10v6q0 53 36 87q35 34 91 34q53 0 86 -33q30 -31 30 -71q0 -30 -17 -56q-7 -10 -18 -21l-9 -9
l-9 -8q-13 -14 -16 -40h-94z" />
    <glyph glyph-name="uni1EF7" unicode="&#x1ef7;" horiz-adv-x="574" 
d="M207 28l-206 527h177l113 -322l106 322h176l-278 -740h-176zM245 613q5 50 32 80q29 29 29 45q0 20 -19 20q-12 0 -17 -8q-5 -7 -5 -19q-1 -2 -1 -17h-98q-1 6 -1 10v6q0 53 36 87q35 34 91 34q53 0 86 -33q30 -31 30 -71q0 -30 -17 -56q-7 -10 -18 -21l-9 -9l-9 -8
q-13 -14 -16 -40h-94z" />
    <glyph glyph-name="uni1EF8" unicode="&#x1ef8;" horiz-adv-x="647" 
d="M230 269l-221 471h205l110 -297l111 297h203l-219 -471v-269h-189v269zM287 839q-22 14 -33 3q-9 -7 -9 -27h-108q0 92 63 126q57 30 114 -2l46 -28q22 -13 33 -2q9 8 9 26h108q0 -92 -63 -125q-57 -30 -114 2z" />
    <glyph glyph-name="uni1EF9" unicode="&#x1ef9;" horiz-adv-x="574" 
d="M207 28l-206 527h177l113 -322l106 322h176l-278 -740h-176zM251 644q-22 14 -33 3q-9 -7 -9 -27h-108q0 92 63 126q57 30 114 -2l46 -28q22 -13 33 -2q9 8 9 26h108q0 -92 -63 -125q-57 -30 -114 2z" />
    <glyph glyph-name="uni2010" unicode="&#x2010;" horiz-adv-x="281" 
d="M281 370v-163h-281v163h281z" />
    <glyph glyph-name="endash" unicode="&#x2013;" horiz-adv-x="500" 
d="M465 370v-163h-430v163h430z" />
    <glyph glyph-name="emdash" unicode="&#x2014;" horiz-adv-x="1000" 
d="M965 370v-163h-930v163h930z" />
    <glyph glyph-name="quoteleft" unicode="&#x2018;" horiz-adv-x="314" 
d="M312 490h-120l-106 250h142z" />
    <glyph glyph-name="quoteright" unicode="&#x2019;" horiz-adv-x="314" 
d="M86 740h142l-106 -250h-120z" />
    <glyph glyph-name="quotesinglbase" unicode="&#x201a;" horiz-adv-x="314" 
d="M86 148h142l-106 -250h-120z" />
    <glyph glyph-name="quotedblleft" unicode="&#x201c;" 
d="M349 490h-120l-106 250h142zM534 490h-120l-106 250h142z" />
    <glyph glyph-name="quotedblright" unicode="&#x201d;" 
d="M105 740h142l-106 -250h-120zM290 740h142l-106 -250h-120z" />
    <glyph glyph-name="quotedblbase" unicode="&#x201e;" 
d="M105 148h142l-106 -250h-120zM290 148h142l-106 -250h-120z" />
    <glyph glyph-name="dagger" unicode="&#x2020;" horiz-adv-x="670" 
d="M418 563h154v-140h-154v-667h-165v667h-155v140h155v177h165v-177z" />
    <glyph glyph-name="daggerdbl" unicode="&#x2021;" horiz-adv-x="670" 
d="M418 593h154v-140h-154v-326h154v-140h-154v-231h-165v231h-155v140h155v326h-155v140h155v147h165v-147z" />
    <glyph glyph-name="bullet" unicode="&#x2022;" horiz-adv-x="739" 
d="M372 532q63 0 106 -46q44 -46 44 -109t-45 -110q-45 -45 -107 -45q-63 0 -108 46q-45 47 -45 109t44 108q45 47 110 47h1z" />
    <glyph glyph-name="ellipsis" unicode="&#x2026;" horiz-adv-x="1000" 
d="M81 170h173v-170h-173v170zM414 170h173v-170h-173v170zM747 170h173v-170h-173v170z" />
    <glyph glyph-name="perthousand" unicode="&#x2030;" horiz-adv-x="1258" 
d="M36 575q0 74 53 127t127 53q75 0 128 -53q52 -52 52 -128q0 -74 -53 -127t-127 -53t-127 53t-53 127v1zM147 573q0 -27 20 -47q21 -21 49 -21t48 20q21 21 21 50t-20 49t-49 20t-49 -20t-20 -50v-1zM461 167q0 74 53 127t128 53q74 0 127 -53t53 -128t-54 -128
q-53 -53 -126 -53q-75 0 -127 52q-54 53 -54 129v1zM572 165q0 -28 20 -48q21 -21 50 -21q28 0 48 20q21 21 21 50q0 31 -21 50q-20 20 -48 20q-30 0 -50 -21q-20 -20 -20 -49v-1zM861 167q0 74 53 127t128 53q74 0 127 -53t53 -128t-54 -128q-53 -53 -126 -53
q-75 0 -127 52q-54 53 -54 129v1zM972 165q0 -28 20 -48q21 -21 50 -21q28 0 48 20q21 21 21 50q0 31 -21 50q-20 20 -48 20q-30 0 -50 -21q-20 -20 -20 -49v-1zM331 0h-115l306 740h116z" />
    <glyph glyph-name="guilsinglleft" unicode="&#x2039;" horiz-adv-x="222" 
d="M106 466h116l-98 -182l98 -182h-116l-98 182z" />
    <glyph glyph-name="guilsinglright" unicode="&#x203a;" horiz-adv-x="222" 
d="M214 284l-98 -182h-116l98 182l-98 182h116z" />
    <glyph glyph-name="fraction" unicode="&#x2044;" horiz-adv-x="211" 
d="M192 740h137l-311 -740h-136z" />
    <glyph glyph-name="Euro" unicode="&#x20ac;" horiz-adv-x="618" 
d="M443 253h-162q10 -56 36 -82q19 -19 48 -19q22 0 38 11q19 13 30 49h164q-17 -131 -98 -187q-30 -22 -72 -31q-16 -4 -32.5 -6t-35.5 -2q-218 0 -256 267h-93l18 96h67v44h-85l18 96h77q21 120 79 187q68 78 179 78q105 0 169 -72q52 -58 64 -150h-164q-18 56 -69 56
q-27 0 -46 -17q-26 -24 -36 -82h206l-18 -96h-197v-44h189z" />
    <glyph glyph-name="uni2113" unicode="&#x2113;" horiz-adv-x="585" 
d="M566 147q-83 -158 -243 -158q-176 0 -206 161v5l-1 5l-26 -19l-26 -19l-41 86l24 19l23 18q14 11 25 19.5t19 16.5v249q0 139 60 212q55 70 151 70q83 0 126 -58q39 -52 39 -139q0 -161 -212 -358l1 -45q2 -40 25 -64t60 -24q72 0 135 94zM278 406q106 121 106 215
q0 74 -49 74q-25 0 -39 -32q-18 -39 -18 -125v-132z" />
    <glyph glyph-name="trademark" unicode="&#x2122;" horiz-adv-x="990" 
d="M386 740h159l89 -277l86 277h159v-444h-117v301l-87 -301h-84l-88 299v-299h-117v444zM112 634h-91v106h307v-106h-90v-338h-126v338z" />
    <glyph glyph-name="Omega" unicode="&#x2126;" horiz-adv-x="777" 
d="M177 138q-55 49 -86 112q-41 79 -41 167q0 136 92 234q98 101 248 101q156 0 250 -108q84 -96 84 -220q0 -172 -130 -286v-3h145v-135h-308v100q120 75 120 288q0 98 -41 160q-44 65 -120 65q-75 0 -121 -64t-46 -168q0 -105 36 -182q32 -70 84 -99v-100h-308v135h142v3z
" />
    <glyph glyph-name="estimated" unicode="&#x212e;" horiz-adv-x="926" 
d="M198 359q-5 0 -5 -4v-209q0 -13 9 -24q111 -114 261 -114q164 0 275 127h61q-60 -69 -146 -107q-91 -41 -191 -41q-177 0 -301 112q-125 113 -125 271q0 159 125 272q124 112 301 112q178 0 302 -112q125 -113 125 -272v-11h-691zM732 597q0 15 -10 25q-110 109 -259 109
t-260 -113q-10 -10 -10 -26v-205q0 -3 1 -5q2 -2 4 -2h530q1 0 3 2q1 1 1 5v210z" />
    <glyph glyph-name="partialdiff" unicode="&#x2202;" horiz-adv-x="646" 
d="M67 774q8 5 15.5 10t15.5 10q11 5 22.5 10t22.5 10q64 23 136 23q136 0 223 -104q94 -112 94 -302q0 -202 -87 -321q-86 -119 -234 -119q-112 0 -180 86q-58 73 -58 169q0 125 68 204q68 77 171 77q56 0 102 -30q18 -11 32 -26q6 -6 10.5 -12t8.5 -11h1q1 3 1 15v14
q0 88 -45 152q-51 71 -130 71q-44 0 -87 -17q-28 -12 -57 -33zM293 129q48 0 84 64q31 55 38 124q-8 28 -32 49q-31 28 -71 28q-47 0 -79 -47q-29 -46 -29 -107q0 -47 25 -78q26 -33 63 -33h1z" />
    <glyph glyph-name="Delta" unicode="&#x2206;" horiz-adv-x="726" 
d="M25 92l240 662h204l230 -659v-95h-674v92zM515 134l-99 265q-2 10 -5.5 21t-7.5 25l-8 25l-8 25q-10 32 -16.5 54t-9.5 33h-3q-2 -8 -7.5 -27t-15.5 -48q-5 -16 -8.5 -27.5t-6.5 -19.5q-4 -14 -7.5 -25t-5.5 -21l-104 -280h312z" />
    <glyph glyph-name="product" unicode="&#x220f;" horiz-adv-x="801" 
d="M668 589v-691h-168v691h-200v-691h-168v691h-107v151h751v-151h-108z" />
    <glyph glyph-name="summation" unicode="&#x2211;" horiz-adv-x="616" 
d="M25 -102v103l248 318l-240 305v116h546v-142h-319v-3l203 -249l-228 -292v-3h363v-153h-573z" />
    <glyph glyph-name="minus" unicode="&#x2212;" horiz-adv-x="600" 
d="M48 333h504v-160h-504v160z" />
    <glyph glyph-name="uni2215" unicode="&#x2215;" horiz-adv-x="211" 
d="M192 740h137l-311 -740h-136z" />
    <glyph glyph-name="uni2219" unicode="&#x2219;" horiz-adv-x="314" 
d="M244 168h-173v170h173v-170z" />
    <glyph glyph-name="radical" unicode="&#x221a;" horiz-adv-x="661" 
d="M428 -145h-131l-158 450l-80 -33l-27 90l206 84l101 -310l7 -27l6 -26q4 -15 6.5 -26.5t4.5 -19.5l2 -1l2 10l1 12q2 8 3 14.5t2 12.5q2 17 5 31.5t5 28.5l178 746h116z" />
    <glyph glyph-name="infinity" unicode="&#x221e;" horiz-adv-x="838" 
d="M788 304q0 -88 -55 -143q-51 -51 -123 -51q-104 0 -190 119q-23 -29 -44.5 -50.5t-41.5 -35.5q-49 -33 -110 -33q-71 0 -122 51q-53 55 -53 137q0 84 53 139q53 53 132 53q105 0 190 -114l8 9l8 9l17 19q11 11 21 20t20 17q54 41 117 40q74 -1 122 -50q51 -52 51 -134v-2
zM236 198q58 0 136 96q-43 61 -61 78q-35 32 -79 32q-42 0 -68 -29q-24 -27 -26 -77q0 -42 28 -70q29 -30 68 -30h2zM606 404q-39 0 -80 -36l-15 -15t-16 -18l-14 -17l-13 -16q23 -31 42.5 -51t33.5 -31q29 -22 68 -22t64 34q22 29 22 66q0 45 -24 75q-25 31 -67 31h-1z" />
    <glyph glyph-name="integral" unicode="&#x222b;" horiz-adv-x="448" 
d="M408 797q-24 8 -39 8q-34 0 -54 -29q-25 -32 -25 -171q0 -43 2 -102t6 -137t6 -141.5t2 -114.5q0 -141 -36 -211q-44 -89 -156 -89q-55 0 -91 17l19 117l9 -3l11 -3q12 -4 26 -4q32 0 47 20q26 35 26 154q0 52 -2 117.5t-6 145.5l-4 59l-2 61q-3 68 -3 130q0 175 69 248
q48 52 140 52q45 0 70 -12z" />
    <glyph glyph-name="approxequal" unicode="&#x2248;" horiz-adv-x="593" 
d="M554 439q-63 -114 -152 -114q-52 0 -119 41q-55 36 -90 36q-31 0 -57 -24l-11 -11t-12 -14l-20 -27l-57 55q25 49 68 80q45 33 95 33q34 0 65 -12q5 -2 11.5 -5t13.5 -7l11 -7l10 -6q65 -39 91 -39q47 0 96 76zM554 229q-64 -114 -153 -114q-50 0 -118 42q-58 36 -90 36
q-31 0 -57 -24q-10 -9 -22 -25l-11 -13l-10 -15l-57 55q25 49 68 80q47 33 95 33q34 0 65 -12q10 -4 25 -12l11 -6l10 -6l12 -7l11 -7q7 -5 12.5 -8t9.5 -5q23 -13 45 -13q29 0 53 21q15 13 44 55z" />
    <glyph glyph-name="notequal" unicode="&#x2260;" horiz-adv-x="593" 
d="M405 463h137v-94h-172l-59 -138h231v-94h-267l-52 -120l-74 30l39 90h-138v94h174l59 138h-233v94h269l51 118l74 -30z" />
    <glyph glyph-name="lessequal" unicode="&#x2264;" horiz-adv-x="593" 
d="M55 347v102l484 236v-107l-391 -179v-2l392 -179v-108zM52 -23v96h492v-96h-492z" />
    <glyph glyph-name="greaterequal" unicode="&#x2265;" horiz-adv-x="593" 
d="M542 448v-101l-484 -237v108l391 179v3l-392 178v107zM53 -23v96h488v-96h-488z" />
    <glyph glyph-name="lozenge" unicode="&#x25ca;" horiz-adv-x="660" 
d="M393 -54h-133l-209 423l215 424h134l209 -424zM353 596q-7 17 -12 33q-3 10 -5 17.5t-3 14.5h-4q-8 -30 -21 -65l-110 -224l111 -235q14 -36 18 -61h5q2 8 4.5 16t4.5 16q6 20 9 27l112 230z" />
    <glyph glyph-name="cir.acute" unicode="&#xe00d;" horiz-adv-x="0" 
d="M457 801h-132l-46 47l-46 -47h-134l137 137h89zM608 1092l53 -118l-199 -90l-47 98z" />
    <glyph glyph-name="cir.grave" unicode="&#xe00e;" horiz-adv-x="0" 
d="M457 799h-132l-46 47l-46 -47h-134l137 137h89zM481 1042l-46 -97l-198 85l51 117z" />
    <glyph glyph-name="cir.tilde" unicode="&#xe00f;" horiz-adv-x="0" 
d="M457 800h-132l-46 47l-46 -47h-134l137 137h89zM292 999q-22 14 -33 3q-9 -7 -9 -27h-108q0 92 63 126q57 30 114 -2l46 -28q22 -13 33 -2q9 8 9 26h108q0 -92 -63 -125q-57 -30 -114 2z" />
    <glyph glyph-name="breve.tilde" unicode="&#xe010;" horiz-adv-x="0" 
d="M451 947q0 -57 -49 -103q-46 -43 -126 -43t-126 43q-49 46 -49 103h115q0 -42 60 -42t60 42h115zM250 1016q-22 14 -33 3q-9 -7 -9 -27h-108q0 92 63 126q57 30 114 -2l46 -28q22 -13 33 -2q9 8 9 26h108q0 -92 -63 -125q-57 -30 -114 2z" />
    <glyph glyph-name="breve.acute" unicode="&#xe011;" horiz-adv-x="0" 
d="M451 945q0 -57 -49 -103q-46 -43 -126 -43t-126 43q-49 46 -49 103h115q0 -42 60 -42t60 42h115zM421 1173l53 -118l-199 -90l-47 98z" />
    <glyph glyph-name="breve.grave" unicode="&#xe012;" horiz-adv-x="0" 
d="M451 946q0 -57 -49 -103q-46 -43 -126 -43t-126 43q-49 46 -49 103h115q0 -42 60 -42t60 42h115zM336 1065l-46 -97l-198 85l51 117z" />
    <glyph glyph-name="breve.hook" unicode="&#xe013;" horiz-adv-x="0" 
d="M451 947q0 -57 -49 -103q-46 -43 -126 -43t-126 43q-49 46 -49 103h115q0 -42 60 -42t60 42h115zM228 982q5 37 32 60q29 21 29 34q0 15 -19 15q-12 0 -17 -6q-5 -5 -5 -15q-1 -1 -1 -12h-98q-1 5 -1 7.5v4.5q0 40 36 65q35 25 91 25q53 0 86 -24q30 -24 30 -54
q0 -22 -17 -42q-7 -7 -18 -15l-9 -7l-9 -6q-13 -10 -16 -30h-94z" />
    <glyph glyph-name="cir.hook" unicode="&#xe014;" horiz-adv-x="0" 
d="M457 800h-132l-46 47l-46 -47h-134l137 137h89zM419 907q5 50 32 80q29 29 29 45q0 20 -19 20q-12 0 -17 -8q-5 -7 -5 -19q-1 -2 -1 -17h-98q-1 6 -1 10v6q0 53 36 87q35 34 91 34q53 0 86 -33q30 -31 30 -71q0 -30 -17 -56q-7 -10 -18 -21l-9 -9l-9 -8q-13 -14 -16 -40
h-94z" />
    <glyph glyph-name="uniE015" unicode="&#xe015;" 
d="M404 711l-46 -97l-198 85l51 117z" />
    <glyph glyph-name="uniE016" unicode="&#xe016;" 
d="M344 829l53 -118l-199 -90l-47 98z" />
    <glyph glyph-name="uniE017" unicode="&#xe017;" 
d="M457 605h-132l-46 47l-46 -47h-134l137 137h89z" />
    <glyph glyph-name="uniE018" unicode="&#xe018;" 
d="M221 799l56 -57l56 57h161l-165 -166h-108l-161 166h161z" />
    <glyph glyph-name="uniE019" unicode="&#xe019;" 
d="M233 644q-22 14 -33 3q-9 -7 -9 -27h-108q0 92 63 126q57 30 114 -2l46 -28q22 -13 33 -2q9 8 9 26h108q0 -92 -63 -125q-57 -30 -114 2z" />
    <glyph glyph-name="uniE01A" unicode="&#xe01a;" 
d="M404 711l-46 -97l-198 85l51 117z" />
    <glyph glyph-name="uniE01B" unicode="&#xe01b;" 
d="M223 850l95 -95l-158 -136l-81 81zM463 850l95 -95l-158 -136l-81 81z" />
    <glyph glyph-name="uniE01C" unicode="&#xe01c;" 
d="M451 761q0 -57 -49 -103q-46 -43 -126 -43t-126 43q-49 46 -49 103h115q0 -42 60 -42t60 42h115z" />
    <glyph glyph-name="uniE01D" unicode="&#xe01d;" 
d="M451 761q0 -57 -49 -103q-46 -43 -126 -43t-126 43q-49 46 -49 103h115q0 -42 60 -42t60 42h115z" />
    <glyph glyph-name="uniE01E" unicode="&#xe01e;" 
d="M278 852q52 0 88 -37q37 -37 37 -89t-37 -89t-89 -37t-89 37t-37 89t37 89t89 37h1zM276 771q-18 0 -31 -13q-12 -13 -12 -32q0 -18 13 -30q13 -13 31 -13t31 13q13 12 13 31q0 18 -13 31q-12 13 -31 13h-1z" />
    <glyph glyph-name="uniE01F" unicode="&#xe01f;" horiz-adv-x="592" 
d="M155 613q5 50 32 80q29 29 29 45q0 20 -19 20q-12 0 -17 -8q-5 -7 -5 -19q-1 -2 -1 -17h-98q-1 6 -1 10v6q0 53 36 87q35 34 91 34q53 0 86 -33q30 -31 30 -71q0 -30 -17 -56q-7 -10 -18 -21l-9 -9l-9 -8q-13 -14 -16 -40h-94z" />
    <glyph glyph-name="uniE020" unicode="&#xe020;" horiz-adv-x="640" 
d="M240 644h-159v151h159v-151zM558 644h-159v151h159v-151z" />
    <glyph glyph-name="uniFB01" unicode="&#xfb01;" horiz-adv-x="601" 
d="M232 429v-429h-166v429h-62v126h62v24q0 107 74 148q51 27 162 27v-125h-12l-12 -1q-14 -2 -23 -6q-23 -11 -23 -46v-21h309v-555h-166v429h-143zM375 614v126h166v-126h-166z" />
    <glyph glyph-name="uniFB02" unicode="&#xfb02;" horiz-adv-x="601" 
d="M232 429v-429h-166v429h-62v126h62v24q0 107 74 148q51 27 162 27v-125h-12l-12 -1q-14 -2 -23 -6q-23 -11 -23 -46v-21h143v184h166v-739h-166v429h-143z" />
    <glyph glyph-name="a.1" horiz-adv-x="385" 
d="M341 458h-99v29q-11 -21 -35 -32q-15 -7 -40 -7q-59 0 -100 44q-40 43 -40 109q0 69 44 113q40 40 98 40q51 0 73 -39v29h99v-286zM126 600q0 -21 13 -37q17 -21 45 -21q37 0 53 33q6 14 6 26q0 15 -5 28q-12 31 -54 31q-27 0 -44 -20q-14 -17 -14 -39v-1z" />
    <glyph glyph-name="o.1" horiz-adv-x="385" 
d="M37 602q0 58 38 102q44 50 117 50t117 -50q38 -44 38 -103t-38 -103q-44 -50 -117 -50t-117 50q-38 44 -38 103v1zM136 600q0 -24 17 -41t39 -17t39 17t17 42t-17 42t-39 17t-39 -17t-17 -42v-1z" />
    <glyph glyph-name="one.1" horiz-adv-x="407" 
d="M270 296h-123v338h-78v106h201v-444z" />
    <glyph glyph-name="three.1" horiz-adv-x="407" 
d="M151 433l2 -6l2 -6q3 -8 8 -13q12 -13 38 -13q48 0 48 43q0 14 -11 25q-13 13 -38 13h-55v90h31l9 1q5 1 10 1.5t10 2.5q24 11 24 37q0 14 -7 22q-8 11 -25 11q-23 0 -30 -13q-4 -5 -5 -11l-1 -6v-5h-126q2 80 64 117q24 14 54 21q27 5 48 5q68 0 112 -38q40 -34 40 -85
v-8q-1 -3 -1 -9q-2 -11 -8 -24q-13 -31 -48 -51q38 -13 61 -42q22 -28 22 -64q0 -58 -53 -100q-53 -41 -126 -41q-105 0 -150 62q-14 18 -22 46q-1 5 -2 10.5t-2 10.5l-1 9l-1 8h129z" />
    <glyph glyph-name="two.1" horiz-adv-x="407" 
d="M376 296h-341v97l135 111q65 53 65 96q0 42 -38 42q-25 0 -36 -24q-5 -11 -6 -22q-1 -5 -1.5 -11t-0.5 -11h-123v13.5t1 10.5q1 7 2 13.5t2 12.5q7 30 24 56q29 41 70 57q32 12 75 12q170 0 170 -134q0 -80 -64 -135l-90 -78h156v-106z" />
    <glyph glyph-name="_393" horiz-adv-x="442" 
d="M67 253q0 -62 46 -109q45 -47 107 -47t109 47q44 50 44 112q0 60 -44 112q-47 47 -109 47t-107 -47q-46 -50 -46 -112v-3z" />
    <glyph glyph-name="_394" horiz-adv-x="300" 
d="M82 266q0 29 22 52q20 21 49 21t50 -21q21 -24 21 -52q0 -29 -21 -51t-50 -22t-49 22q-22 21 -22 50v1z" />
    </font>
</defs>
</svg>
