<?xml version="1.0" standalone="no"?>
<!DOCTYPE svg PUBLIC "-//W3C//DTD SVG 1.1//EN" "http://www.w3.org/Graphics/SVG/1.1/DTD/svg11.dtd" >
<svg xmlns="http://www.w3.org/2000/svg" xmlns:xlink="http://www.w3.org/1999/xlink" version="1.1">
<metadata>
Created by FontForge 20160407 at Fri Sep 23 10:57:17 2016
 By Jimmy Warting
(c) 1993, 1994, 2001, 2002 Adobe Systems Incorporated. All rights reserved.
</metadata>
<defs>
<font id="CaliFont-ExtraLight" horiz-adv-x="555" >
  <font-face 
    font-family="Cali Font Extra Light"
    font-weight="200"
    font-stretch="normal"
    units-per-em="1000"
    panose-1="2 11 3 2 2 2 2 2 2 4"
    ascent="740"
    descent="-260"
    x-height="530"
    cap-height="740"
    bbox="-371 -250 1117 1057.95"
    underline-thickness="50"
    underline-position="-100"
    unicode-range="U+0020-FB02"
  />
<missing-glyph horiz-adv-x="500" 
d="M0 700h500v-700h-500v700zM420 650h-340l170 -255zM450 95v510l-170 -255zM420 50l-170 255l-170 -255h340zM50 95l170 255l-170 255v-510z" />
    <glyph glyph-name="f_i" unicode="fi" horiz-adv-x="393" 
d="M122 504v-504h-28v504h-87v26h87v53q0 108 73 148q12 7 25.5 12t29.5 7q5 1 11 1.5t12 0.5l9 1h6v-27l-8 -1h-9q-12 -1 -21 -3q-25 -4 -46 -17q-54 -34 -54 -130v-45h193v-530h-28v504h-165zM287 649v91h28v-91h-28z" />
    <glyph glyph-name="f_l" unicode="fl" horiz-adv-x="393" 
d="M122 504v-504h-28v504h-87v26h87v53q0 108 73 148q12 7 25.5 12t29.5 7q5 1 11 1.5t12 0.5l9 1h6v-27l-8 -1h-9q-12 -1 -21 -3q-25 -4 -46 -17q-54 -34 -54 -130v-45h165v210h28v-740h-28v504h-165z" />
    <glyph glyph-name=".notdef" horiz-adv-x="500" 
d="M0 700h500v-700h-500v700zM420 650h-340l170 -255zM450 95v510l-170 -255zM420 50l-170 255l-170 -255h340zM50 95l170 255l-170 255v-510z" />
    <glyph glyph-name=".null" horiz-adv-x="0" 
 />
    <glyph glyph-name=".null" horiz-adv-x="0" 
 />
    <glyph glyph-name="nonmarkingreturn" horiz-adv-x="250" 
 />
    <glyph glyph-name="space" unicode=" " horiz-adv-x="277" 
 />
    <glyph glyph-name="exclam" unicode="!" horiz-adv-x="259" 
d="M145 166h-30v574h30v-574zM145 0h-30v81h30v-81z" />
    <glyph glyph-name="quotedbl" unicode="&#x22;" horiz-adv-x="333" 
d="M94 444v296h30v-296h-30zM209 444v296h30v-296h-30z" />
    <glyph glyph-name="numbersign" unicode="#" 
d="M327 31h-24l33 240h-143l-33 -240h-25l34 240h-151v23h154l19 137h-151v23h155l31 221h24l-31 -221h143l31 221h24l-31 -221h151v-23h-155l-19 -137h152v-23h-154zM359 431h-143l-20 -137h143z" />
    <glyph glyph-name="dollar" unicode="$" 
d="M296 730q78 -10 121 -61q36 -43 40 -101h-30q-7 68 -59 106q-40 29 -85 29q-54 0 -96 -39q-45 -40 -45 -105q0 -68 49 -102q32 -22 114 -45l10 -3l12 -4q7 -2 13.5 -4.5t12.5 -4.5q16 -7 30 -14.5t26 -16.5q64 -49 64 -140q0 -72 -49 -125q-51 -57 -128 -62v-95h-30v95
q-77 8 -127 59q-51 51 -56 130h30q8 -80 61 -123q46 -37 109 -37q67 0 114 47q46 46 46 112q0 78 -57 118q-11 8 -26 15t-33 14q-7 2 -15 5t-18 6l-34 10q-14 4 -25.5 8t-22.5 9q-27 12 -48 29q-52 43 -52 119q0 69 43 115q43 47 111 56v80h30v-80z" />
    <glyph glyph-name="percent" unicode="%" horiz-adv-x="719" 
d="M22 591q0 70 46 116t117 46t117 -46t46 -117t-46 -117t-117 -46t-117 46t-46 117v1zM50 589q0 -60 38 -98q38 -39 97 -39q61 0 98 39q37 38 37 99t-37 99q-37 39 -98 39q-59 0 -97 -39q-38 -40 -38 -99v-1zM371 151q0 70 46 116t117 46t117 -46t46 -117t-46 -117
t-117 -46t-117 46t-46 117v1zM399 149q0 -60 38 -98q38 -39 97 -39q61 0 98 39q37 38 37 99t-37 99q-37 39 -98 39q-59 0 -97 -39q-38 -40 -38 -99v-1zM146 0h-32l457 740h32z" />
    <glyph glyph-name="ampersand" unicode="&#x26;" horiz-adv-x="721" 
d="M643 467l-136 -261l192 -197l-21 -20l-185 189q-53 -105 -98 -144q-55 -47 -138 -47q-88 0 -147 65q-55 61 -55 142q0 86 68 152q25 23 57 43t73 36l-18 20l-18 19q-11 11 -19 20.5t-13 17.5q-33 44 -35 94q0 63 44 110q47 47 112 47q68 0 117 -48q47 -49 47 -113
q0 -69 -52 -112q-29 -24 -117 -64l185 -189l126 240h31zM306 723q-56 0 -94 -41q-32 -37 -32 -82q0 -46 34 -90q11 -15 33 -37l17 -18l17 -17q46 20 76 36t44 29q39 35 39 90q0 53 -37 90q-39 40 -96 40h-1zM273 404q-187 -83 -188 -211q2 -70 48 -123q49 -55 127 -55
q74 0 124 47q41 41 87 137z" />
    <glyph glyph-name="quotesingle" unicode="'" horiz-adv-x="222" 
d="M96 444v296h30v-296h-30z" />
    <glyph glyph-name="parenleft" unicode="(" horiz-adv-x="425" 
d="M393 842q-111 -68 -182 -193q-76 -133 -76 -284t76 -284q71 -126 182 -194v-37q-136 88 -212 220q-78 135 -78 295q0 157 81 298q80 138 209 214v-35z" />
    <glyph glyph-name="parenright" unicode=")" horiz-adv-x="425" 
d="M32 -118q112 70 182 194q76 133 76 284t-76 284q-71 125 -182 194v37q138 -91 212 -220q78 -135 78 -295q0 -157 -81 -298q-80 -140 -209 -214v34z" />
    <glyph glyph-name="asterisk" unicode="*" horiz-adv-x="573" 
d="M301 617l106 62l14 -25l-105 -61l107 -63l-14 -24l-108 61v-123h-29v124l-106 -62l-15 25l107 62l-107 60l15 26l106 -62v123h29v-123z" />
    <glyph glyph-name="plus" unicode="+" horiz-adv-x="600" 
d="M314 264h236v-28h-236v-236h-28v236h-236v28h236v237h28v-237z" />
    <glyph glyph-name="comma" unicode="," horiz-adv-x="277" 
d="M93 -72h-32l63 154h32z" />
    <glyph glyph-name="hyphen" unicode="-" horiz-adv-x="473" 
d="M377 291v-29h-266v29h266z" />
    <glyph glyph-name="period" unicode="." horiz-adv-x="277" 
d="M154 0h-30v81h30v-81z" />
    <glyph glyph-name="slash" unicode="/" horiz-adv-x="518" 
d="M418 740h33l-351 -840h-33z" />
    <glyph glyph-name="zero" unicode="0" 
d="M39 509q0 138 97 202q36 24 79 34q17 5 33 6q7 1 13.5 1.5t12.5 0.5q102 0 170 -64q71 -68 71 -171v-296q0 -125 -94 -189q-34 -24 -78 -36q-33 -10 -64 -10q-84 0 -152 50q-88 64 -88 185v287zM69 222q0 -96 64 -154q59 -54 144 -54q72 0 131 44q77 57 77 164v296
q0 83 -51 141q-58 67 -160 67q-84 0 -143 -54q-62 -59 -62 -160v-290z" />
    <glyph glyph-name="one" unicode="1" 
d="M275 713h-164v27h194v-740h-30v713z" />
    <glyph glyph-name="two" unicode="2" 
d="M57 27l267 273l24 24l25 25q29 30 48 54q50 65 53 128q1 85 -53 141q-54 54 -135 54q-77 0 -128 -52q-58 -59 -59 -160h-30q3 118 74 183q61 56 147 56q93 0 154 -64q62 -65 60 -163q-4 -79 -109 -196l-149 -151l-149 -152h407v-27h-447v27z" />
    <glyph glyph-name="three" unicode="3" 
d="M96 585q5 80 60 126q48 42 114 42q70 0 120 -44q53 -48 53 -128q0 -103 -104 -157q83 -28 124 -99q16 -29 23 -58q6 -25 6 -50q0 -103 -64 -167q-63 -63 -164 -63q-108 0 -176 84q-49 59 -49 144h30q3 -97 68 -153q56 -48 130 -48q88 0 143 58q52 55 52 139q0 75 -49 131
q-59 68 -162 68h-40v27h39q96 0 138 61q14 23 21 49q1 5 1.5 10t1.5 10t1 15q0 64 -39 104q-40 40 -101 40q-64 0 -105 -42q-37 -39 -42 -99h-30z" />
    <glyph glyph-name="four" unicode="4" 
d="M391 144h-387v26l376 570h41v-569h75v-27h-75v-144h-30v144zM391 171v533l-352 -533h352z" />
    <glyph glyph-name="five" unicode="5" 
d="M473 740v-27h-308l-54 -279l5 4l7 5l13 9q8 5 17 10t17 9q47 21 100 21q106 0 176 -76q69 -73 69 -175q0 -107 -75 -181q-73 -73 -173 -73q-84 0 -152 55q-82 64 -94 175h30q10 -93 79 -151q61 -52 138 -52q88 0 152 66q65 67 65 158q0 95 -66 162q-65 65 -151 65h-13
q-5 -1 -9 -1t-8 -1q-21 -3 -42 -11q-55 -21 -97 -73l-26 7l68 354h332z" />
    <glyph glyph-name="six" unicode="6" 
d="M352 740l-155 -231q-13 -19 -22.5 -33.5t-16.5 -24.5q12 8 25 14.5t27 11.5q35 12 70 12q99 0 169 -69q72 -72 72 -180q0 -103 -69 -177q-70 -76 -175 -76q-116 0 -186 82q-58 70 -58 160q0 57 20 108q7 17 18 36t25 41l224 326h32zM63 230q0 -88 56 -150q60 -66 157 -66
q94 0 155 67q60 65 60 156q0 106 -69 170q-61 55 -141 55t-141 -52q-77 -65 -77 -179v-1z" />
    <glyph glyph-name="seven" unicode="7" 
d="M480 740v-27l-330 -713h-31l329 713h-361v27h393z" />
    <glyph glyph-name="eight" unicode="8" 
d="M99 580q0 70 52 121q52 52 126 52t126 -51q52 -49 52 -123q0 -51 -30 -96q-31 -45 -78 -64q68 -21 110 -78q44 -58 45 -132q-1 -91 -67 -157q-65 -65 -158 -65t-158 65q-66 66 -67 157q2 74 45 131q41 56 110 79q-47 19 -78 64q-30 45 -30 96v1zM129 577q0 -61 43 -103
q43 -43 105 -43t105 43q43 42 43 104t-43 105t-105 43t-105 -43t-43 -105v-1zM82 208q0 -81 57 -137q56 -57 138 -57q83 0 138 57q57 56 57 138q0 83 -57 138q-55 57 -138 57q-82 0 -138 -57q-57 -55 -57 -138v-1z" />
    <glyph glyph-name="nine" unicode="9" 
d="M203 0l155 231q7 10 16.5 24.5t22.5 33.5q-20 -14 -52 -26q-34 -12 -70 -12q-98 0 -169 69q-72 72 -72 180q0 104 69 177q70 76 175 76q116 0 186 -82q58 -70 58 -160q0 -57 -20 -108q-7 -17 -18 -36t-25 -41l-224 -326h-32zM492 510q0 88 -56 150q-60 66 -157 66
q-93 0 -155 -66q-60 -64 -60 -157q0 -106 69 -169q62 -56 141 -56q80 0 141 52q77 65 77 179v1z" />
    <glyph glyph-name="colon" unicode=":" horiz-adv-x="277" 
d="M154 449h-30v81h30v-81zM154 0h-30v81h30v-81z" />
    <glyph glyph-name="semicolon" unicode=";" horiz-adv-x="277" 
d="M153 449h-30v81h30v-81zM93 -72h-32l63 154h32z" />
    <glyph glyph-name="less" unicode="&#x3c;" horiz-adv-x="600" 
d="M550 502v-31l-467 -220l467 -220v-31l-500 235v32z" />
    <glyph glyph-name="equal" unicode="=" horiz-adv-x="600" 
d="M550 361v-28h-500v28h500zM550 167v-28h-500v28h500z" />
    <glyph glyph-name="greater" unicode="&#x3e;" horiz-adv-x="600" 
d="M517 251l-467 220v31l500 -235v-32l-500 -235v31z" />
    <glyph glyph-name="question" unicode="?" horiz-adv-x="536" 
d="M243 166q1 63 14 99q19 58 77 113l19 20l19 18q10 11 18 20t14 17q31 42 33 92q0 73 -51 125q-52 52 -130 52q-61 0 -111 -33q-60 -40 -72 -115q-3 -15 -3 -30h-30q0 5 0.5 11.5t1.5 15.5q13 93 87 143q57 39 126 39q87 0 148 -58q64 -61 64 -152q0 -54 -38 -107
q-17 -22 -39 -44l-21 -22l-21 -20q-50 -50 -66 -103q-7 -23 -8 -44l-1 -19v-18h-30zM272 0h-29v81h29v-81z" />
    <glyph glyph-name="at" unicode="@" horiz-adv-x="875" 
d="M779 83q-42 -100 -147 -154q-86 -46 -183 -46q-158 0 -268 110q-109 109 -109 268q0 162 111 274q111 114 273 114q134 0 232 -79q111 -88 111 -233q0 -131 -90 -214q-73 -66 -145 -66h-8q-3 1 -6 1t-6 1q-14 2 -26 9q-33 18 -34 64q-2 -3 -4 -5.5t-4 -4.5l-9 -12
q-6 -7 -12.5 -12.5t-13.5 -10.5q-38 -26 -85 -26q-13 0 -31 5q-20 6 -36 19q-41 35 -41 106q0 104 65 193q64 88 147 88q78 0 108 -83l23 67h28l-96 -272q0 1 -2 -7l-3 -6l-2 -6q-6 -19 -6 -32q-1 -31 20 -43q7 -4 19 -6l8 -1h8q66 0 130 64q76 75 76 189q0 136 -102 217
q-88 70 -211 70q-148 0 -251 -100q-107 -104 -107 -262q0 -156 107 -257q101 -95 241 -95q87 0 169 41q94 49 137 133h25zM276 190q0 -56 29 -83q22 -20 53 -20q64 0 106 51q8 10 14.5 20.5t12.5 23.5l9 21q2 4 3 8t3 9q1 2 2 5t3 7l3 7l3 8q5 11 8.5 20.5t6.5 17.5
q18 50 18 73q-1 44 -33 70q-25 18 -55 18q-65 0 -124 -75q-62 -80 -62 -180v-1z" />
    <glyph glyph-name="A" unicode="A" horiz-adv-x="687" 
d="M39 0h-32l317 740h39l317 -740h-32l-111 258h-387zM343 712l-180 -427h361z" />
    <glyph glyph-name="B" unicode="B" horiz-adv-x="540" 
d="M77 740h157q84 0 130 -27q47 -25 69 -72q18 -39 18 -87q0 -67 -36 -111q-14 -17 -34 -31q-7 -5 -15.5 -10t-19.5 -10q91 -26 128 -99q13 -24 19 -56q1 -6 1.5 -12t1.5 -11t1 -9v-8q-1 -130 -117 -180q-51 -17 -118 -17h-185v740zM107 401h134q71 0 105 19q75 42 75 138
q0 47 -23 85q-21 35 -52 48q-35 20 -112 22h-127v-312zM107 27h156q64 0 106 16q96 40 98 154q0 116 -100 159q-42 18 -126 18h-134v-347z" />
    <glyph glyph-name="C" unicode="C" horiz-adv-x="786" 
d="M748 161q-42 -71 -122 -119q-92 -55 -201 -55q-161 0 -271 108q-113 110 -113 275t113 275q110 108 271 108q110 -2 201 -58q77 -46 123 -120h-35q-3 5 -6.5 9t-7.5 9q-5 5 -10 11t-10 11q-14 14 -28.5 26.5t-30.5 23.5q-89 59 -196 61q-147 0 -250 -101
q-104 -104 -104 -255t104 -255q103 -101 250 -101q111 0 202 63q33 22 57 49q5 5 9.5 10t9.5 10q3 4 6 7.5t5 7.5h34z" />
    <glyph glyph-name="D" unicode="D" horiz-adv-x="701" 
d="M77 740h209q176 0 274 -98q99 -97 99 -272q0 -174 -99 -272q-100 -98 -274 -98h-209v740zM107 27h179q161 0 252 90q91 91 91 251q0 163 -90 254q-91 91 -253 91h-179v-686z" />
    <glyph glyph-name="E" unicode="E" horiz-adv-x="547" 
d="M77 740h406v-27h-376v-327h376v-27h-376v-332h376v-27h-406v740z" />
    <glyph glyph-name="F" unicode="F" horiz-adv-x="477" 
d="M77 740h363v-27h-333v-327h333v-27h-333v-359h-30v740z" />
    <glyph glyph-name="G" unicode="G" horiz-adv-x="853" 
d="M725 576q-45 59 -104 95q-86 55 -196 55q-147 0 -250 -101q-104 -104 -104 -255t104 -255q103 -101 250 -101q136 0 239 84q99 80 119 188h-441v27h477q-6 -55 -32 -109q-46 -97 -143 -156q-98 -61 -219 -61q-161 0 -271 108q-113 110 -113 275t113 275q110 108 271 108
q102 0 194 -47q93 -49 142 -130h-36z" />
    <glyph glyph-name="H" unicode="H" horiz-adv-x="628" 
d="M77 0v740h30v-354h414v354h30v-740h-30v359h-414v-359h-30z" />
    <glyph glyph-name="I" unicode="I" horiz-adv-x="185" 
d="M77 740h30v-740h-30v740z" />
    <glyph glyph-name="J" unicode="J" horiz-adv-x="453" 
d="M377 184q-1 -16 -3 -30q-4 -35 -15 -64q-20 -41 -51 -65q-52 -38 -118 -38q-59 0 -107 33q-51 33 -71 97q-1 5 -3 12l-3 12h33l2 -5l1 -6q19 -67 75 -97q19 -10 43 -15l18 -3q5 -1 14 -1q55 2 93 29q33 24 46 58q16 39 16 111v528h30v-556z" />
    <glyph glyph-name="K" unicode="K" horiz-adv-x="536" 
d="M91 740h30v-371l345 371h36l-342 -370l376 -370h-40l-375 367v-367h-30v740z" />
    <glyph glyph-name="L" unicode="L" horiz-adv-x="423" 
d="M77 740h30v-713h313v-27h-343v740z" />
    <glyph glyph-name="M" unicode="M" horiz-adv-x="933" 
d="M77 0v740h48l342 -692l341 692h47v-740h-30v710l-350 -710h-17l-351 710v-710h-30z" />
    <glyph glyph-name="N" unicode="N" horiz-adv-x="738" 
d="M631 40v700h30v-740h-38l-516 710v-710h-30v740h45z" />
    <glyph glyph-name="O" unicode="O" horiz-adv-x="851" 
d="M41 371q0 164 113 274q110 108 271 108t272 -108q112 -109 112 -275t-112 -275q-111 -108 -272 -108t-271 108q-113 110 -113 275v1zM71 369q0 -152 104 -254q103 -101 250 -101t251 101q103 103 103 255t-103 255q-104 101 -251 101t-250 -101q-104 -104 -104 -255v-1z
" />
    <glyph glyph-name="P" unicode="P" horiz-adv-x="511" 
d="M239 740q124 0 185 -44q33 -24 54 -70t21 -96q0 -49 -21 -96q-21 -46 -54 -70q-61 -44 -185 -44h-142v-320h-30v740h172zM97 347h143q112 0 168 41q28 20 44 59q17 42 17 82q0 42 -17 84q-16 39 -44 59q-56 41 -168 41h-143v-366z" />
    <glyph glyph-name="Q" unicode="Q" horiz-adv-x="882" 
d="M885 -13q-17 2 -33.5 4.5t-33.5 6.5q-66 15 -147 63q-18 -13 -35 -23q-25 -13 -51 -24q-69 -27 -142 -27q-173 0 -282 115q-105 110 -105 268q0 165 113 275q110 108 271 108t272 -108q112 -109 112 -275q0 -106 -49 -191q-16 -31 -42 -60q-5 -5 -10 -11t-10 -11l-17 -17
q81 -47 189 -62v-31zM439 726q-147 0 -250 -101q-103 -103 -103 -255q0 -20 1.5 -39.5t5.5 -36.5q2 -7 3.5 -13.5t3.5 -13.5q2 -5 3.5 -10.5t3.5 -10.5l16 5l17 5q10 3 19.5 5.5t18.5 4.5q47 10 101 10q120 0 220 -54q17 -10 60.5 -40.5t112.5 -83.5q122 105 122 272
q0 152 -103 255q-104 101 -251 101h-1zM445 14q62 0 121 22q46 17 82 44q-6 4 -23 16.5t-45 34.5q-10 7 -19 14l-18 14l-17 13q-118 77 -251 77q-50 0 -90 -10q-8 -2 -17 -4.5t-18 -6.5l-16 -5l-15 -6q59 -119 169 -170q41 -19 87 -27q35 -6 69 -6h1z" />
    <glyph glyph-name="R" unicode="R" horiz-adv-x="554" 
d="M67 740h169q145 0 197 -31q45 -22 76 -77t31 -120q4 -82 -47 -150q-37 -49 -89 -67q-36 -13 -111 -16l199 -279h-38l-217 306h43l24 1q14 1 27 2t24 3q62 11 92 41q63 66 63 158q0 48 -23 96t-65 76q-46 30 -186 30h-139v-713h-30v740z" />
    <glyph glyph-name="S" unicode="S" horiz-adv-x="518" 
d="M75 187q12 -93 77 -140q13 -8 26.5 -14.5t29.5 -11.5q24 -7 50 -7q73 0 128 48q58 52 58 128q0 88 -68 135q-25 18 -62 31q-13 5 -30 9l-15 4l-14 4l-13 3l-14 4q-8 2 -16 4.5t-15 4.5q-39 14 -63 31q-73 49 -73 140q-1 88 59 143q58 50 142 50q70 0 122 -41
q59 -47 69 -131h-30q-2 13 -5.5 25t-7.5 23q-10 26 -28 47q-44 50 -122 50q-71 0 -120 -44q-49 -46 -49 -117q-1 -78 61 -121q38 -26 138 -52l8 -2l10 -3q7 -2 13.5 -4t12.5 -4q34 -12 62 -29q78 -54 78 -156q0 -89 -66 -149q-64 -58 -149 -58q-77 0 -137 48q-70 55 -77 152
h30z" />
    <glyph glyph-name="T" unicode="T" horiz-adv-x="443" 
d="M206 713h-201v27h432v-27h-201v-713h-30v713z" />
    <glyph glyph-name="U" unicode="U" horiz-adv-x="605" 
d="M106 740v-480q0 -64 6 -93q9 -46 40 -85q53 -68 152 -68q96 0 149 68q31 39 40 85q6 29 6 93v480h30v-480v-30t-1 -25q-3 -36 -10 -61q-21 -71 -78 -112q-61 -45 -138 -45q-75 0 -137 45q-58 41 -77 112q-4 14 -6.5 29t-4.5 32q-1 11 -1 25v30v480h30z" />
    <glyph glyph-name="V" unicode="V" horiz-adv-x="666" 
d="M7 740h34l292 -690l293 690h33l-316 -740h-21z" />
    <glyph glyph-name="W" unicode="W" horiz-adv-x="888" 
d="M12 740h32l200 -699l189 699h21l193 -699l198 699h31l-212 -740h-39l-181 661l-181 -661h-40z" />
    <glyph glyph-name="X" unicode="X" 
d="M260 376l-243 364h36l223 -336l225 336h35l-243 -364l254 -376h-35l-236 350l-235 -350h-33z" />
    <glyph glyph-name="Y" unicode="Y" horiz-adv-x="554" 
d="M262 255l-247 485h33l229 -451l228 451h34l-247 -485v-255h-30v255z" />
    <glyph glyph-name="Z" unicode="Z" horiz-adv-x="499" 
d="M55 27h438v-27h-473v18l417 695h-431v27h466v-18z" />
    <glyph glyph-name="bracketleft" unicode="[" horiz-adv-x="425" 
d="M355 -147h-216v924h216v-30h-186v-864h186v-30z" />
    <glyph glyph-name="backslash" unicode="\" horiz-adv-x="518" 
d="M67 740h33l351 -840h-33z" />
    <glyph glyph-name="bracketright" unicode="]" horiz-adv-x="425" 
d="M70 -118h186v864h-186v30h216v-924h-216v30z" />
    <glyph glyph-name="asciicircum" unicode="^" horiz-adv-x="600" 
d="M284 740h32l172 -365h-32l-156 332l-156 -332h-32z" />
    <glyph glyph-name="underscore" unicode="_" horiz-adv-x="500" 
d="M448 49v-29h-395v29h395z" />
    <glyph glyph-name="grave" unicode="`" 
d="M395 613l-13 -23l-175 100l14 23z" />
    <glyph glyph-name="a" unicode="a" horiz-adv-x="674" 
d="M596 0h-28v137q-76 -150 -248 -150q-126 0 -205 85q-74 80 -74 193q0 115 75 194q80 84 204 84q91 0 162 -49q64 -44 86 -104v140h28v-530zM69 264q2 -100 63 -170q71 -81 191 -81q82 0 146 47q61 43 87 118q17 44 15 93q0 50 -18 92q-27 69 -89 112q-64 42 -144 42
q-106 0 -177 -70q-74 -72 -74 -182v-1z" />
    <glyph glyph-name="b" unicode="b" horiz-adv-x="674" 
d="M78 740h28v-350q70 150 248 153q125 0 204 -84q75 -79 75 -194q0 -113 -74 -193q-79 -85 -205 -85q-171 0 -248 150v-137h-28v740zM605 266q0 109 -74 181q-71 70 -177 70q-107 0 -179 -72t-72 -180q0 -105 69 -177q71 -75 179 -75q121 0 191 81q62 71 63 171v1z" />
    <glyph glyph-name="c" unicode="c" horiz-adv-x="619" 
d="M583 167q-29 -81 -98 -130q-71 -50 -160 -50q-134 0 -213 88q-71 80 -71 189q0 119 79 198q80 81 200 81q87 0 157 -46q77 -50 107 -139h-31q-29 81 -101 124q-62 36 -131 35q-102 -2 -179 -71q-73 -66 -73 -181q0 -110 75 -182q71 -70 176 -70q87 2 151 48q60 44 81 106
h31z" />
    <glyph glyph-name="d" unicode="d" horiz-adv-x="677" 
d="M596 0h-28v137q-76 -150 -248 -150q-126 0 -205 85q-74 80 -74 193q0 115 75 194q80 84 204 84q91 0 162 -49q64 -44 86 -104v350h28v-740zM69 264q2 -100 63 -170q71 -81 191 -81q106 0 178 74q73 75 70 180q0 106 -72 178t-179 72q-106 0 -177 -70q-74 -72 -74 -182v-1
z" />
    <glyph glyph-name="e" unicode="e" horiz-adv-x="619" 
d="M60 262q2 -120 87 -190q74 -60 164 -59q74 0 134 36q61 37 92 104h31q-34 -81 -107 -126q-67 -40 -151 -40q-138 0 -214 94q-65 80 -65 183q0 120 81 199q80 80 199 80q110 0 190 -71q95 -85 87 -210h-528zM560 288q-5 96 -80 164q-75 69 -169 65q-101 0 -171 -64
q-73 -66 -79 -165h499z" />
    <glyph glyph-name="f" unicode="f" horiz-adv-x="263" 
d="M94 504h-87v26h87v53q0 108 73 148q12 7 25.5 12t29.5 7q5 1 11 1.5t12 0.5l9 1h6v-27l-8 -1h-9q-12 -1 -21 -3q-25 -4 -46 -17q-54 -34 -54 -130v-45h138v-26h-138v-504h-28v504z" />
    <glyph glyph-name="g" unicode="g" horiz-adv-x="675" 
d="M598 59q0 -146 -104 -226q-38 -29 -88 -46q-40 -13 -77 -13q-82 0 -153 42q-75 45 -108 121h32l5 -8l6 -10q4 -5 7 -10t7 -10q19 -25 44 -44q68 -55 156 -55q97 0 169 69q76 73 76 185v86q-75 -153 -248 -153q-128 0 -207 85q-75 80 -75 193q0 115 76 194q80 84 206 84
q91 0 162 -49q64 -44 86 -104v140h28v-471zM68 264q2 -100 64 -170q72 -81 193 -81q107 0 178 74q70 73 70 180q0 88 -55 159q-70 91 -196 91q-107 0 -180 -70q-74 -72 -74 -182v-1z" />
    <glyph glyph-name="h" unicode="h" horiz-adv-x="640" 
d="M78 740h28v-317q25 58 89 92q58 30 126 28q122 0 185 -72q58 -67 58 -191v-280h-28v280q0 111 -50 172q-56 65 -165 65q-100 -1 -157 -57q-58 -55 -58 -155v-305h-28v740z" />
    <glyph glyph-name="i" unicode="i" horiz-adv-x="184" 
d="M78 740h28v-91h-28v91zM78 530h28v-530h-28v530z" />
    <glyph glyph-name="j" unicode="j" horiz-adv-x="219" 
d="M95 740h28v-92h-28v92zM123 -25q-1 -10 -1 -18t-1 -15q-3 -41 -13 -66q-27 -72 -108 -87l-7 -1l-7 -1v30l6 1l5 1q61 13 82 63q16 36 16 124v524h28v-555z" />
    <glyph glyph-name="k" unicode="k" horiz-adv-x="467" 
d="M78 740h28v-442l285 232h38l-283 -233l305 -297h-38l-307 296v-296h-28v740z" />
    <glyph glyph-name="l" unicode="l" horiz-adv-x="183" 
d="M78 740h28v-740h-28v740z" />
    <glyph glyph-name="m" unicode="m" horiz-adv-x="949" 
d="M78 530h28v-99q33 65 95 94q23 11 48 15q5 1 10 1.5t10 0.5q5 1 15 1q102 0 156 -65q16 -17 36 -62q2 4 3 7l2 6q2 4 4 7.5t4 7.5q11 18 25 34q59 65 154 65q92 0 145 -53q61 -60 61 -193v-297h-28v297q0 121 -54 175q-43 45 -124 45q-91 0 -137 -61q-25 -33 -33 -65
q-8 -34 -8 -94v-297h-28v297q2 104 -38 157q-47 60 -140 63q-83 3 -129 -58q-49 -55 -49 -157v-302h-28v530z" />
    <glyph glyph-name="n" unicode="n" horiz-adv-x="641" 
d="M78 530h28v-64t-1 -51q25 66 89 99q57 31 133 29q116 -3 178 -71q59 -67 59 -187v-285h-28v285q0 109 -53 170q-56 63 -162 62q-97 -1 -155 -55q-60 -55 -60 -157v-305h-28v530z" />
    <glyph glyph-name="o" unicode="o" horiz-adv-x="641" 
d="M41 266q0 117 80 197t199 80t199 -80t80 -198q0 -119 -80 -199q-79 -79 -199 -79t-199 79q-80 80 -80 199v1zM69 264q0 -107 72 -179t179 -72t179 72t72 180t-72 180t-179 72t-179 -72t-72 -180v-1z" />
    <glyph glyph-name="p" unicode="p" horiz-adv-x="677" 
d="M78 530h28v-137q77 150 248 150q126 0 205 -85q74 -80 74 -193q0 -114 -75 -194q-79 -84 -204 -84q-91 0 -161 49q-65 44 -87 104v-353h-28v743zM605 266q-2 100 -63 170q-70 81 -191 81q-105 0 -178 -73q-70 -73 -70 -180t72 -179t179 -72q106 0 177 70q74 72 74 182v1z
" />
    <glyph glyph-name="q" unicode="q" horiz-adv-x="674" 
d="M596 -213h-28v348q-22 -57 -86 -100q-73 -48 -162 -48q-124 0 -204 84q-75 80 -75 194q0 113 74 193q79 85 205 85q172 0 248 -145v132h28v-743zM69 264q0 -109 74 -181q71 -70 177 -70q107 0 179 72t72 179q3 104 -70 179q-72 74 -178 74q-120 0 -191 -81
q-61 -70 -63 -171v-1z" />
    <glyph glyph-name="r" unicode="r" horiz-adv-x="302" 
d="M78 530h28v-101q33 68 95 95q22 10 50 15q5 1 11 1.5t12 1.5h10l9 1v-27h-8q-85 0 -132 -59t-47 -167v-290h-28v530z" />
    <glyph glyph-name="s" unicode="s" horiz-adv-x="426" 
d="M323 405q0 56 -35 86q-31 27 -77 26q-52 0 -86 -32q-31 -31 -30 -79q1 -45 31 -71q27 -22 85 -38l27 -7l26 -9q31 -11 49 -24q48 -35 53 -111q5 -65 -41 -112q-47 -47 -114 -47q-68 0 -117 44q-50 47 -46 116h28q0 -61 39 -99q38 -35 96 -35t94 39q35 38 33 90
q-2 55 -32 84q-29 28 -96 43q-72 21 -100 43q-41 32 -43 94q0 65 42 102q41 35 102 35q63 -2 99 -35q41 -38 41 -103h-28z" />
    <glyph glyph-name="t" unicode="t" horiz-adv-x="296" 
d="M124 504h-117v26h117v210h28v-210h136v-26h-136v-504h-28v504z" />
    <glyph glyph-name="u" unicode="u" horiz-adv-x="641" 
d="M563 0h-28v64t1 51q-25 -66 -89 -99q-57 -31 -133 -29q-116 3 -178 71q-59 67 -59 187v285h28v-285q0 -109 53 -170q56 -63 162 -62q97 1 155 55q60 56 60 157v305h28v-530z" />
    <glyph glyph-name="v" unicode="v" horiz-adv-x="481" 
d="M258 0h-36l-218 530h31l205 -498l205 498h31z" />
    <glyph glyph-name="w" unicode="w" horiz-adv-x="758" 
d="M10 530h31l180 -492l147 420h22l148 -420l179 492h31l-195 -530h-32l-143 408l-141 -408h-32z" />
    <glyph glyph-name="x" unicode="x" horiz-adv-x="407" 
d="M187 266l-177 264h36l158 -237l159 237h34l-176 -264l176 -266h-34l-159 239l-158 -239h-36z" />
    <glyph glyph-name="y" unicode="y" horiz-adv-x="481" 
d="M221 1l-210 529h31l196 -491l209 491h33l-321 -743h-32z" />
    <glyph glyph-name="z" unicode="z" horiz-adv-x="407" 
d="M12 24l329 480h-311v26h347v-27l-329 -477h346v-26h-382v24z" />
    <glyph glyph-name="braceleft" unicode="{" horiz-adv-x="425" 
d="M344 852h-54q-39 0 -51 -23q-11 -22 -11 -92v-185q0 -58 -19 -108q-23 -60 -62 -82q37 -16 59 -68q22 -48 22 -115v-183q0 -75 12 -96q11 -21 50 -21h54v-26h-66q-46 0 -65 31q-17 29 -17 95v183q0 76 -16 115q-18 48 -65 71v28q36 9 59 62q22 51 22 130v187q0 65 17 93
q20 30 65 30h66v-26z" />
    <glyph glyph-name="bar" unicode="|" 
d="M293 750v-1000h-30v1000h30z" />
    <glyph glyph-name="braceright" unicode="}" horiz-adv-x="425" 
d="M81 877h66q46 0 65 -30q17 -28 17 -93v-187q0 -76 23 -130q23 -53 58 -62v-28q-47 -23 -65 -71q-16 -39 -16 -115v-183q0 -66 -17 -95q-19 -31 -65 -31h-66v26h54q40 0 50 21q12 21 12 96v183q0 67 22 115q22 52 59 68q-39 22 -62 82q-19 50 -19 108v185q0 70 -11 92
q-12 23 -51 23h-54v26z" />
    <glyph glyph-name="asciitilde" unicode="~" horiz-adv-x="600" 
d="M523 271q-39 -71 -99 -71q-36 0 -114 36l-29 13q-8 4 -15.5 7t-13.5 5q-31 12 -54 12q-64 4 -103 -62l-19 18q42 80 122 72q26 0 60 -12l29 -12l29 -13q78 -36 106 -36q26 0 49 20q14 14 33 42z" />
    <glyph glyph-name="uni00A0" unicode="&#xa0;" horiz-adv-x="277" 
 />
    <glyph glyph-name="exclamdown" unicode="&#xa1;" horiz-adv-x="259" 
d="M115 531h30v-81h-30v81zM115 365h30v-574h-30v574z" />
    <glyph glyph-name="cent" unicode="&#xa2;" 
d="M277 39v108q-100 6 -158 79q-51 63 -51 143t48 141q58 73 161 82v95h30v-96q58 -8 94 -28q54 -29 86 -94h-33q-30 56 -82 78q-11 5 -22 8t-22 5q-18 3 -37 3q-87 0 -141 -58q-52 -53 -52 -133q0 -79 48 -135q54 -61 144 -61q63 0 112 32q9 7 17 14t16 15q6 7 10.5 14
t8.5 14h34q-35 -66 -97 -96q-24 -11 -49 -17q-5 -1 -10 -1.5t-10 -1.5q-10 -2 -15 -2v-108h-30z" />
    <glyph glyph-name="sterling" unicode="&#xa3;" 
d="M404 366h-244l16 -14t16 -15q10 -10 18.5 -20.5t15.5 -21.5q38 -58 38 -123v-9q0 -8 -1 -12l-2 -16t-3 -16q-11 -49 -39 -92h92q103 0 151 45q53 58 53 127q0 8 -0.5 15.5t-1.5 14.5l-3 11l-2 9h31q6 -28 6 -49q0 -49 -22 -93q-4 -8 -9 -16l-10 -16q-9 -12 -19 -22
q-38 -32 -70 -42q-38 -11 -109 -11h-270v27h148q1 1 2 3t3 4l3 5l4 5q5 8 9 15t8 15q21 44 21 97q0 103 -116 195h-112v27h86q-17 24 -27 50q-7 17 -10 35.5t-4 37.5q0 101 67 168q68 69 171 69q79 0 143 -47q66 -48 89 -136h-31q-19 68 -74 112q-56 44 -127 44
q-90 -1 -148 -59q-57 -57 -60 -151q2 -33 10 -57q14 -36 40 -66h273v-27z" />
    <glyph glyph-name="currency" unicode="&#xa4;" 
d="M416 181q-64 -51 -139 -51q-76 0 -139 51l-77 -76l-20 21l77 77q-56 62 -56 140q0 80 54 138l-77 77l21 21l77 -77q62 54 140 54t140 -53l76 76l22 -21l-76 -77q53 -59 53 -138q0 -78 -56 -140l77 -77l-21 -21zM92 342q0 -74 56 -128t129 -54q75 0 130 54t55 129
q0 76 -55 130q-56 53 -130 53t-129 -52q-56 -54 -56 -131v-1z" />
    <glyph glyph-name="yen" unicode="&#xa5;" 
d="M509 383h-205l-13 -26v-82h218v-26h-218v-249h-30v249h-214v26h214v82l-14 26h-200v26h185l-200 331h32l212 -350l216 350h32l-204 -331h189v-26z" />
    <glyph glyph-name="brokenbar" unicode="&#xa6;" 
d="M293 675v-350h-30v350h30zM293 175v-350h-30v350h30z" />
    <glyph glyph-name="section" unicode="&#xa7;" horiz-adv-x="573" 
d="M448 586q-12 137 -154 137q-66 0 -109 -38q-41 -38 -42 -98q2 -54 35 -86q15 -15 32 -24l17 -9l17 -8l150 -71l6 -3l7 -3q4 -2 8 -4.5t9 -4.5q11 -7 21 -14t18 -15q50 -47 50 -110q0 -99 -95 -155q41 -29 58 -67q12 -27 12 -60q0 -76 -56 -126t-143 -50q-108 0 -164 59
q-55 58 -48 165h28q-11 -194 183 -194q77 0 123 39q48 40 49 107q-1 42 -23 70q-24 32 -81 57l-195 90l-5 3l-6 3q-4 2 -7.5 4t-7.5 4q-19 12 -33 27q-42 44 -42 113q0 102 101 153q-4 4 -7.5 8t-7.5 8q-4 5 -7.5 11t-7.5 12q-16 29 -16 68q0 78 52 124q50 45 127 45
q83 0 132 -43q50 -45 50 -124h-28zM485 234q-2 53 -37 87q-7 7 -15.5 13t-18.5 12l-17 9l-17 8l-198 95q-92 -45 -94 -137q1 -82 77 -120l225 -104q33 13 61 49q32 40 34 87v1z" />
    <glyph glyph-name="dieresis" unicode="&#xa8;" 
d="M209 608h-29v116h29v-116zM375 608h-29v116h29v-116z" />
    <glyph glyph-name="copyright" unicode="&#xa9;" horiz-adv-x="800" 
d="M401 751q162 0 271 -111q109 -110 109 -270q0 -162 -111 -272q-110 -109 -270 -109q-161 0 -271 108q-111 110 -111 273q0 160 108 269q109 112 274 112h1zM399 725q-152 0 -253 -105q-100 -103 -100 -250q0 -150 102 -252q102 -103 252 -103q148 0 250 102
q103 103 103 253q0 149 -100 250q-100 105 -253 105h-1zM572 451q-12 63 -64 96q-43 28 -102 28q-80 0 -133 -54q-55 -55 -55 -151q0 -102 62 -158q50 -46 125 -46h8t8 1q5 1 11 1.5t12 1.5q28 6 55 20q72 41 82 138h28q-6 -86 -68 -139q-56 -49 -137 -49q-87 0 -146 55
q-68 63 -68 174q0 103 60 167q60 65 157 65q75 0 130 -42q56 -42 63 -108h-28z" />
    <glyph glyph-name="ordfeminine" unicode="&#xaa;" horiz-adv-x="439" 
d="M388 412h-28v83q-45 -91 -153 -91q-78 0 -131 53q-50 52 -50 122q0 72 52 123q53 51 129 51q104 0 153 -93v85h28v-333zM54 574q0 -53 40 -96q45 -48 114 -48q94 0 136 80q16 33 16 68q0 31 -13 61q-20 41 -56 64q-39 24 -84 24q-62 0 -105 -40q-48 -43 -48 -112v-1z" />
    <glyph glyph-name="guillemotleft" unicode="&#xab;" horiz-adv-x="351" 
d="M160 470h35l-114 -194l114 -191h-35l-114 191zM271 470h35l-114 -194l114 -191h-35l-114 191z" />
    <glyph glyph-name="logicalnot" unicode="&#xac;" horiz-adv-x="600" 
d="M550 361v-222h-28v194h-472v28h500z" />
    <glyph glyph-name="uni00AD" unicode="&#xad;" horiz-adv-x="266" 
d="M266 291v-29h-266v29h266z" />
    <glyph glyph-name="registered" unicode="&#xae;" horiz-adv-x="800" 
d="M401 751q162 0 271 -111q109 -110 109 -270q0 -162 -111 -272q-110 -109 -270 -109q-161 0 -271 108q-111 110 -111 273q0 160 108 269q109 112 274 112h1zM399 725q-152 0 -253 -105q-100 -103 -100 -250q0 -150 102 -252q102 -103 252 -103q148 0 250 102
q103 103 103 253q0 149 -100 250q-100 105 -253 105h-1zM434 589q5 -1 10.5 -1t10.5 -1q30 -3 51 -13q67 -28 67 -104q0 -77 -86 -109q73 -20 77 -101q8 -99 15 -114h-29q-8 11 -12 100q-4 55 -22 74q-27 27 -111 27h-142v-201h-28v443h199zM263 563v-190h140l7 1h8
q6 1 11 1t10 1q14 2 25.5 4.5t21.5 6.5q59 23 59 83t-53 81q-20 8 -43 11q-5 1 -9.5 1h-9.5h-167z" />
    <glyph glyph-name="macron" unicode="&#xaf;" 
d="M455 645h-356v30h356v-30z" />
    <glyph glyph-name="degree" unicode="&#xb0;" horiz-adv-x="400" 
d="M343 565q0 -58 -41 -101q-43 -41 -102 -41q-60 0 -101 42q-42 41 -42 101t42 102q41 41 101 41q59 0 102 -41q41 -43 41 -102v-1zM85 565q0 -46 33 -81q35 -33 82 -33q49 0 82 34q33 33 33 81t-33 82q-33 33 -82 33t-82 -33q-33 -34 -33 -82v-1z" />
    <glyph glyph-name="plusminus" unicode="&#xb1;" horiz-adv-x="600" 
d="M286 506h28v-197h238v-28h-238v-197h-28v197h-238v28h238v197zM48 28h504v-28h-504v28z" />
    <glyph glyph-name="uni00B2" unicode="&#xb2;" horiz-adv-x="351" 
d="M307 296h-271v23l93 97l92 96q55 61 55 104q0 44 -22 72q-26 35 -80 35q-46 0 -75 -33q-28 -32 -28 -90h-28q0 60 29 98q38 50 104 50q58 0 93 -35q35 -37 35 -97q0 -54 -64 -122l-82 -86l-83 -87h232v-25z" />
    <glyph glyph-name="uni00B3" unicode="&#xb3;" horiz-adv-x="351" 
d="M61 430q1 -60 40 -91q31 -26 71 -26q50 0 82 32q29 32 29 80q0 42 -27 73q-33 39 -92 39h-27v25h27q54 0 77 35q8 12 12 27q1 2 1 5t1 6v7q0 34 -21 56q-21 23 -57 25q-35 1 -58 -22q-22 -22 -24 -59h-28q3 54 39 82q32 24 71 24q41 0 73 -29q33 -30 33 -76
q0 -39 -22 -64q-6 -9 -19 -18l-9 -6q-2 -1 -3.5 -2t-3.5 -2q39 -16 61 -48q24 -34 24 -76q0 -61 -39 -100t-100 -39q-73 0 -114 57q-25 37 -25 85h28z" />
    <glyph glyph-name="acute" unicode="&#xb4;" 
d="M331 715l14 -23l-172 -102l-13 23z" />
    <glyph glyph-name="mu" unicode="&#xb5;" horiz-adv-x="561" 
d="M78 530h28v-300v-23.5t1 -18.5q1 -11 1.5 -21.5t2.5 -20.5q9 -49 34 -77q29 -34 69 -47q8 -2 16.5 -4t17.5 -3q7 -1 14.5 -1.5t15.5 -0.5q85 0 132 65q51 66 51 200v252h28v-530h-28v119q-2 -5 -3.5 -9.5t-3.5 -8.5q-2 -5 -5 -10.5t-5 -10.5q-13 -25 -33 -43
q-50 -50 -133 -50q-73 0 -120 33q-18 12 -32 29q-3 4 -6 7.5t-5 7.5q-2 2 -4.5 5.5t-4.5 7.5v-258h-28v711z" />
    <glyph glyph-name="paragraph" unicode="&#xb6;" horiz-adv-x="561" 
d="M239 343q-98 0 -160 47q-67 52 -67 150q0 100 69 152q63 48 165 48h246v-28h-64v-838h-30v836h-129v-836h-30v469z" />
    <glyph glyph-name="periodcentered" unicode="&#xb7;" horiz-adv-x="277" 
d="M154 215h-30v81h30v-81z" />
    <glyph glyph-name="cedilla" unicode="&#xb8;" 
d="M266 -57l2 1l3 1q3 1 8 1q33 0 54 -23q18 -20 18 -48q0 -30 -18 -51q-21 -25 -55 -25h-7q-3 1 -9 1q-6 2 -11.5 4t-10.5 4q-30 15 -36 53h27q6 -22 24 -31q4 -1 7 -1.5t7 -1.5l5 -1h4q18 0 31 12q13 13 15 37q-2 21 -14 33q-13 12 -32 12q-26 0 -41 -25l-22 5l46 100h29z
" />
    <glyph glyph-name="uni00B9" unicode="&#xb9;" horiz-adv-x="351" 
d="M197 296h-28v419h-95v25h123v-444z" />
    <glyph glyph-name="ordmasculine" unicode="&#xba;" horiz-adv-x="439" 
d="M44 576q0 74 50 126q49 49 124 51q77 0 128 -52q49 -49 49 -122q0 -76 -55 -127q-52 -48 -122 -48t-122 50q-52 49 -52 121v1zM72 575q0 -58 43 -101q44 -44 103 -44q60 0 103 42q45 43 46 107q-1 60 -42 104q-42 44 -105 44q-60 0 -103 -41q-45 -43 -45 -110v-1z" />
    <glyph glyph-name="guillemotright" unicode="&#xbb;" horiz-adv-x="351" 
d="M305 275l-114 -191h-35l114 191l-114 194h35zM194 275l-114 -191h-35l114 191l-114 194h35z" />
    <glyph glyph-name="onequarter" unicode="&#xbc;" horiz-adv-x="700" 
d="M172 0h-29l329 740h30zM615 110h42v-25h-42v-85h-28v85h-228v21l223 338h33v-334zM167 296h-28v419h-95v25h123v-444zM393 110h194v297z" />
    <glyph glyph-name="onehalf" unicode="&#xbd;" horiz-adv-x="750" 
d="M167 296h-28v419h-95v25h123v-444zM172 0h-29l329 740h30zM707 0h-271v23l93 97l92 96q55 61 55 104q0 44 -22 72q-26 35 -80 35q-46 0 -75 -33q-28 -32 -28 -90h-28q0 53 23 90q37 58 110 58q58 0 93 -35q35 -37 35 -97q0 -54 -64 -122l-82 -86l-83 -87h232v-25z" />
    <glyph glyph-name="threequarters" unicode="&#xbe;" horiz-adv-x="807" 
d="M723 110h42v-25h-42v-85h-28v85h-228v21l223 338h33v-334zM280 0h-29l329 740h30zM501 110h194v297zM68 430q1 -60 40 -91q31 -26 71 -26q50 0 82 32q29 32 29 80q0 42 -27 73q-33 39 -92 39h-27v25h27q54 0 77 35q8 12 12 27q1 2 1 5t1 6v7q0 34 -21 56q-21 23 -57 25
q-35 1 -58 -22q-22 -22 -24 -59h-28q3 54 39 82q32 24 71 24q41 0 73 -29q33 -30 33 -76q0 -39 -22 -64q-6 -9 -19 -18l-9 -6q-2 -1 -3.5 -2t-3.5 -2q39 -16 61 -48q24 -34 24 -76q0 -61 -39 -100t-100 -39q-77 0 -116 61q-23 35 -23 81h28z" />
    <glyph glyph-name="questiondown" unicode="&#xbf;" horiz-adv-x="536" 
d="M264 530h29v-81h-29v81zM293 364q-1 -63 -14 -99q-19 -58 -77 -113l-19 -20l-19 -18q-10 -11 -18 -20t-14 -17q-31 -40 -33 -91q0 -73 51 -124q53 -53 130 -53q62 0 111 34q60 40 72 114q3 15 3 30h30q0 -5 -0.5 -11.5t-1.5 -15.5q-13 -93 -87 -143q-57 -39 -126 -39
q-87 0 -148 58q-64 61 -64 152q0 54 39 106q14 20 38 44l21 22l21 20q50 50 66 103q7 23 8 44l1 19v18h30z" />
    <glyph glyph-name="Agrave" unicode="&#xc0;" horiz-adv-x="687" 
d="M39 0h-32l317 740h39l317 -740h-32l-111 258h-387zM343 712l-180 -427h361zM406 808l-13 -23l-175 100l14 23z" />
    <glyph glyph-name="Aacute" unicode="&#xc1;" horiz-adv-x="687" 
d="M39 0h-32l317 740h39l317 -740h-32l-111 258h-387zM343 712l-180 -427h361zM453 910l14 -23l-172 -102l-13 23z" />
    <glyph glyph-name="Acircumflex" unicode="&#xc2;" horiz-adv-x="687" 
d="M39 0h-32l317 740h39l317 -740h-32l-111 258h-387zM343 712l-180 -427h361zM470 803h-45l-82 68l-80 -68h-45l111 90h28z" />
    <glyph glyph-name="Atilde" unicode="&#xc3;" horiz-adv-x="687" 
d="M39 0h-32l317 740h39l317 -740h-32l-111 258h-387zM343 712l-180 -427h361zM319 842q-31 22 -59 12q-29 -11 -29 -44h-30q0 54 46 70q42 16 81 -11l40 -27q34 -24 61 -13q28 12 28 45h29q0 -56 -43 -72q-40 -16 -84 12z" />
    <glyph glyph-name="Adieresis" unicode="&#xc4;" horiz-adv-x="687" 
d="M39 0h-32l317 740h39l317 -740h-32l-111 258h-387zM343 712l-180 -427h361zM275 798h-29v116h29v-116zM441 798h-29v116h29v-116z" />
    <glyph glyph-name="Aring" unicode="&#xc5;" horiz-adv-x="687" 
d="M39 0h-32l317 740h39l317 -740h-32l-111 258h-387zM343 712l-180 -427h361zM344 942q39 0 64 -27q27 -25 27 -64q0 -38 -27 -64q-27 -27 -65 -27q-37 0 -64 27t-27 64q0 38 27 65q28 26 64 26h1zM342 916q-25 0 -44 -19q-18 -19 -18 -45t18 -44q19 -19 45 -19q27 0 46 19
q18 18 18 44t-18 45q-19 19 -46 19h-1z" />
    <glyph glyph-name="AE" unicode="&#xc6;" horiz-adv-x="944" 
d="M504 740h366v-27h-316v-327h316v-27h-316v-332h316v-27h-346v264h-315l-183 -264h-34zM524 291v431l-293 -431h293z" />
    <glyph glyph-name="Ccedilla" unicode="&#xc7;" horiz-adv-x="786" 
d="M400 -57l7 2q3 1 8 1q33 0 54 -23q18 -20 18 -48q0 -30 -18 -51q-21 -25 -55 -25h-7q-3 1 -9 1q-6 2 -11.5 4t-10.5 4q-30 15 -36 53h27q6 -22 24 -31q4 -1 7 -1.5t7 -1.5l5 -1h4q18 0 31 12q13 13 15 37q-2 21 -14 33q-13 12 -32 12q-26 0 -41 -25l-22 5l41 89
q-148 10 -249 117q-102 108 -102 264q0 165 113 275q110 108 271 108q110 -2 201 -58q77 -46 123 -120h-35q-3 5 -6.5 9t-7.5 9q-5 5 -10 11t-10 11q-14 14 -28.5 26.5t-30.5 23.5q-89 59 -196 61q-147 0 -250 -101q-104 -104 -104 -255t104 -255q103 -101 250 -101
q111 0 202 63q33 22 57 49q5 5 9.5 10t9.5 10q3 4 6 7.5t5 7.5h34q-42 -71 -123 -119q-92 -55 -205 -55z" />
    <glyph glyph-name="Egrave" unicode="&#xc8;" horiz-adv-x="547" 
d="M77 740h406v-27h-376v-327h376v-27h-376v-332h376v-27h-406v740zM343 808l-13 -23l-175 100l14 23z" />
    <glyph glyph-name="Eacute" unicode="&#xc9;" horiz-adv-x="547" 
d="M77 740h406v-27h-376v-327h376v-27h-376v-332h376v-27h-406v740zM389 910l14 -23l-172 -102l-13 23z" />
    <glyph glyph-name="Ecircumflex" unicode="&#xca;" horiz-adv-x="547" 
d="M77 740h406v-27h-376v-327h376v-27h-376v-332h376v-27h-406v740zM406 803h-45l-82 68l-80 -68h-45l111 90h28z" />
    <glyph glyph-name="Edieresis" unicode="&#xcb;" horiz-adv-x="547" 
d="M77 740h406v-27h-376v-327h376v-27h-376v-332h376v-27h-406v740zM205 803h-29v116h29v-116zM371 803h-29v116h29v-116z" />
    <glyph glyph-name="Igrave" unicode="&#xcc;" horiz-adv-x="185" 
d="M77 740h30v-740h-30v740zM155 808l-13 -23l-175 100l14 23z" />
    <glyph glyph-name="Iacute" unicode="&#xcd;" horiz-adv-x="185" 
d="M77 740h30v-740h-30v740zM201 910l14 -23l-172 -102l-13 23z" />
    <glyph glyph-name="Icircumflex" unicode="&#xce;" horiz-adv-x="185" 
d="M77 740h30v-740h-30v740zM218 803h-45l-82 68l-80 -68h-45l111 90h28z" />
    <glyph glyph-name="Idieresis" unicode="&#xcf;" horiz-adv-x="185" 
d="M77 740h30v-740h-30v740zM24 798h-29v116h29v-116zM190 798h-29v116h29v-116z" />
    <glyph glyph-name="Eth" unicode="&#xd0;" horiz-adv-x="701" 
d="M77 740h209q176 0 274 -98q99 -97 99 -272q0 -174 -99 -272q-100 -98 -274 -98h-209v359h-77v27h77v354zM107 386h251v-27h-251v-332h179q161 0 252 90q91 91 91 251q0 163 -90 254q-91 91 -253 91h-179v-327z" />
    <glyph glyph-name="Ntilde" unicode="&#xd1;" horiz-adv-x="738" 
d="M631 40v700h30v-740h-38l-516 710v-710h-30v740h45zM345 842q-31 22 -59 12q-29 -11 -29 -44h-30q0 54 46 70q42 16 81 -11l40 -27q34 -24 61 -13q28 12 28 45h29q0 -56 -43 -72q-40 -16 -84 12z" />
    <glyph glyph-name="Ograve" unicode="&#xd2;" horiz-adv-x="851" 
d="M41 371q0 164 113 274q110 108 271 108t272 -108q112 -109 112 -275t-112 -275q-111 -108 -272 -108t-271 108q-113 110 -113 275v1zM71 369q0 -152 104 -254q103 -101 250 -101t251 101q103 103 103 255t-103 255q-104 101 -251 101t-250 -101q-104 -104 -104 -255v-1z
M488 808l-13 -23l-175 100l14 23z" />
    <glyph glyph-name="Oacute" unicode="&#xd3;" horiz-adv-x="851" 
d="M41 371q0 164 113 274q110 108 271 108t272 -108q112 -109 112 -275t-112 -275q-111 -108 -272 -108t-271 108q-113 110 -113 275v1zM71 369q0 -152 104 -254q103 -101 250 -101t251 101q103 103 103 255t-103 255q-104 101 -251 101t-250 -101q-104 -104 -104 -255v-1z
M534 910l14 -23l-172 -102l-13 23z" />
    <glyph glyph-name="Ocircumflex" unicode="&#xd4;" horiz-adv-x="851" 
d="M41 371q0 164 113 274q110 108 271 108t272 -108q112 -109 112 -275t-112 -275q-111 -108 -272 -108t-271 108q-113 110 -113 275v1zM71 369q0 -152 104 -254q103 -101 250 -101t251 101q103 103 103 255t-103 255q-104 101 -251 101t-250 -101q-104 -104 -104 -255v-1z
M551 803h-45l-82 68l-80 -68h-45l111 90h28z" />
    <glyph glyph-name="Otilde" unicode="&#xd5;" horiz-adv-x="851" 
d="M41 371q0 164 113 274q110 108 271 108t272 -108q112 -109 112 -275t-112 -275q-111 -108 -272 -108t-271 108q-113 110 -113 275v1zM71 369q0 -152 104 -254q103 -101 250 -101t251 101q103 103 103 255t-103 255q-104 101 -251 101t-250 -101q-104 -104 -104 -255v-1z
M401 842q-31 22 -59 12q-29 -11 -29 -44h-30q0 54 46 70q42 16 81 -11l40 -27q34 -24 61 -13q28 12 28 45h29q0 -56 -43 -72q-40 -16 -84 12z" />
    <glyph glyph-name="Odieresis" unicode="&#xd6;" horiz-adv-x="851" 
d="M41 371q0 164 113 274q110 108 271 108t272 -108q112 -109 112 -275t-112 -275q-111 -108 -272 -108t-271 108q-113 110 -113 275v1zM71 369q0 -152 104 -254q103 -101 250 -101t251 101q103 103 103 255t-103 255q-104 101 -251 101t-250 -101q-104 -104 -104 -255v-1z
M357 803h-29v116h29v-116zM523 803h-29v116h29v-116z" />
    <glyph glyph-name="multiply" unicode="&#xd7;" horiz-adv-x="600" 
d="M50 21l229 230l-229 226l20 22l230 -228l230 228l20 -22l-229 -226l229 -230l-20 -21l-230 231l-230 -231z" />
    <glyph glyph-name="Oslash" unicode="&#xd8;" horiz-adv-x="851" 
d="M718 790h37l-87 -120q141 -112 141 -300q0 -166 -112 -275q-111 -108 -272 -108q-119 0 -210 61l-72 -98h-37l84 114q-149 113 -149 306q0 165 113 275q110 108 271 108q121 0 219 -65zM626 664q-89 62 -201 62q-147 0 -250 -101q-104 -104 -104 -255q0 -180 136 -283z
M232 71q86 -57 193 -57q147 0 251 101q103 103 103 255q0 172 -127 278z" />
    <glyph glyph-name="Ugrave" unicode="&#xd9;" horiz-adv-x="605" 
d="M106 740v-480q0 -64 6 -93q9 -46 40 -85q53 -68 152 -68q96 0 149 68q31 39 40 85q6 29 6 93v480h30v-480v-30t-1 -25q-3 -36 -10 -61q-21 -71 -78 -112q-61 -45 -138 -45q-75 0 -137 45q-58 41 -77 112q-4 14 -6.5 29t-4.5 32q-1 11 -1 25v30v480h30zM365 808l-13 -23
l-175 100l14 23z" />
    <glyph glyph-name="Uacute" unicode="&#xda;" horiz-adv-x="605" 
d="M106 740v-480q0 -64 6 -93q9 -46 40 -85q53 -68 152 -68q96 0 149 68q31 39 40 85q6 29 6 93v480h30v-480v-30t-1 -25q-3 -36 -10 -61q-21 -71 -78 -112q-61 -45 -138 -45q-75 0 -137 45q-58 41 -77 112q-4 14 -6.5 29t-4.5 32q-1 11 -1 25v30v480h30zM412 910l14 -23
l-172 -102l-13 23z" />
    <glyph glyph-name="Ucircumflex" unicode="&#xdb;" horiz-adv-x="605" 
d="M106 740v-480q0 -64 6 -93q9 -46 40 -85q53 -68 152 -68q96 0 149 68q31 39 40 85q6 29 6 93v480h30v-480v-30t-1 -25q-3 -36 -10 -61q-21 -71 -78 -112q-61 -45 -138 -45q-75 0 -137 45q-58 41 -77 112q-4 14 -6.5 29t-4.5 32q-1 11 -1 25v30v480h30zM429 803h-45
l-82 68l-80 -68h-45l111 90h28z" />
    <glyph glyph-name="Udieresis" unicode="&#xdc;" horiz-adv-x="605" 
d="M106 740v-480q0 -64 6 -93q9 -46 40 -85q53 -68 152 -68q96 0 149 68q31 39 40 85q6 29 6 93v480h30v-480v-30t-1 -25q-3 -36 -10 -61q-21 -71 -78 -112q-61 -45 -138 -45q-75 0 -137 45q-58 41 -77 112q-4 14 -6.5 29t-4.5 32q-1 11 -1 25v30v480h30zM234 788h-29v116
h29v-116zM400 788h-29v116h29v-116z" />
    <glyph glyph-name="Yacute" unicode="&#xdd;" horiz-adv-x="554" 
d="M262 255l-247 485h33l229 -451l228 451h34l-247 -485v-255h-30v255zM386 910l14 -23l-172 -102l-13 23z" />
    <glyph glyph-name="Thorn" unicode="&#xde;" horiz-adv-x="511" 
d="M67 740h30v-156h142q124 0 185 -44q33 -24 54 -70t21 -96q0 -49 -21 -96q-21 -46 -54 -70q-61 -44 -185 -44h-142v-164h-30v740zM97 191h143q112 0 168 41q26 20 44 60q17 40 17 81t-17 83q-16 38 -44 60q-56 41 -168 41h-143v-366z" />
    <glyph glyph-name="germandbls" unicode="&#xdf;" horiz-adv-x="559" 
d="M76 473q0 149 39 201q51 79 152 79q90 0 144 -55q52 -53 52 -142q0 -124 -111 -180q79 -10 125 -70q40 -52 40 -121q0 -88 -63 -144q-61 -54 -153 -54q-75 2 -125 41q-62 50 -72 148v-176h-28v473zM104 191h26q5 -96 65 -142q45 -35 109 -36q79 0 132 47t53 120v11
q-1 4 -1 7.5t-1 7.5q-1 17 -8 35q-14 45 -53 77q-52 37 -151 39h-28v26h27q65 0 111 49q50 50 50 124q0 80 -47 127q-46 44 -120 44q-37 0 -73 -17q-35 -18 -54 -46q-37 -53 -37 -191v-282z" />
    <glyph glyph-name="agrave" unicode="&#xe0;" horiz-adv-x="674" 
d="M596 0h-28v137q-76 -150 -248 -150q-126 0 -205 85q-74 80 -74 193q0 115 75 194q80 84 204 84q91 0 162 -49q64 -44 86 -104v140h28v-530zM69 264q2 -100 63 -170q71 -81 191 -81q82 0 146 47q61 43 87 118q17 44 15 93q0 50 -18 92q-27 69 -89 112q-64 42 -144 42
q-106 0 -177 -70q-74 -72 -74 -182v-1zM408 613l-13 -23l-175 100l14 23z" />
    <glyph glyph-name="aacute" unicode="&#xe1;" horiz-adv-x="674" 
d="M596 0h-28v137q-76 -150 -248 -150q-126 0 -205 85q-74 80 -74 193q0 115 75 194q80 84 204 84q91 0 162 -49q64 -44 86 -104v140h28v-530zM69 264q2 -100 63 -170q71 -81 191 -81q82 0 146 47q61 43 87 118q17 44 15 93q0 50 -18 92q-27 69 -89 112q-64 42 -144 42
q-106 0 -177 -70q-74 -72 -74 -182v-1zM466 715l14 -23l-172 -102l-13 23z" />
    <glyph glyph-name="acircumflex" unicode="&#xe2;" horiz-adv-x="674" 
d="M596 0h-28v137q-76 -150 -248 -150q-126 0 -205 85q-74 80 -74 193q0 115 75 194q80 84 204 84q91 0 162 -49q64 -44 86 -104v140h28v-530zM69 264q2 -100 63 -170q71 -81 191 -81q82 0 146 47q61 43 87 118q17 44 15 93q0 50 -18 92q-27 69 -89 112q-64 42 -144 42
q-106 0 -177 -70q-74 -72 -74 -182v-1zM472 608h-45l-82 68l-80 -68h-45l111 90h28z" />
    <glyph glyph-name="atilde" unicode="&#xe3;" horiz-adv-x="674" 
d="M596 0h-28v137q-76 -150 -248 -150q-126 0 -205 85q-74 80 -74 193q0 115 75 194q80 84 204 84q91 0 162 -49q64 -44 86 -104v140h28v-530zM69 264q2 -100 63 -170q71 -81 191 -81q82 0 146 47q61 43 87 118q17 44 15 93q0 50 -18 92q-27 69 -89 112q-64 42 -144 42
q-106 0 -177 -70q-74 -72 -74 -182v-1zM338 647q-31 22 -59 12q-29 -11 -29 -44h-30q0 54 46 70q42 16 81 -11l40 -27q34 -24 61 -13q28 12 28 45h29q0 -56 -43 -72q-40 -16 -84 12z" />
    <glyph glyph-name="adieresis" unicode="&#xe4;" horiz-adv-x="674" 
d="M596 0h-28v137q-76 -150 -248 -150q-126 0 -205 85q-74 80 -74 193q0 115 75 194q80 84 204 84q91 0 162 -49q64 -44 86 -104v140h28v-530zM69 264q2 -100 63 -170q71 -81 191 -81q82 0 146 47q61 43 87 118q17 44 15 93q0 50 -18 92q-27 69 -89 112q-64 42 -144 42
q-106 0 -177 -70q-74 -72 -74 -182v-1zM259 608h-29v116h29v-116zM425 608h-29v116h29v-116z" />
    <glyph glyph-name="aring" unicode="&#xe5;" horiz-adv-x="674" 
d="M596 0h-28v137q-76 -150 -248 -150q-126 0 -205 85q-74 80 -74 193q0 115 75 194q80 84 204 84q91 0 162 -49q64 -44 86 -104v140h28v-530zM69 264q2 -100 63 -170q71 -81 191 -81q82 0 146 47q61 43 87 118q17 44 15 93q0 50 -18 92q-27 69 -89 112q-64 42 -144 42
q-106 0 -177 -70q-74 -72 -74 -182v-1zM328 762q39 0 64 -27q27 -25 27 -64q0 -38 -27 -64q-27 -27 -65 -27q-37 0 -64 27t-27 64q0 38 27 65q28 26 64 26h1zM326 736q-25 0 -44 -19q-18 -19 -18 -45t18 -44q19 -19 45 -19q27 0 46 19q18 18 18 44t-18 45q-19 19 -46 19h-1z
" />
    <glyph glyph-name="ae" unicode="&#xe6;" horiz-adv-x="1154" 
d="M595 262q12 -135 103 -201q17 -13 36.5 -22t41.5 -16q33 -10 67 -10q76 0 137 45q51 38 84 95h33q-31 -70 -97 -116q-71 -50 -154 -50q-185 0 -251 175v-162h-28v162q-20 -74 -89 -123q-71 -52 -158 -52q-137 0 -214 95q-65 80 -65 182q0 119 80 199t197 80
q174 0 249 -168v155h28v-154q71 167 240 167q125 0 203 -86q74 -79 75 -195h-518zM69 264q0 -107 72 -179t180 -72q102 0 175 76q72 75 72 176q0 103 -72 176q-73 76 -175 76q-108 0 -180 -72t-72 -180v-1zM1082 288q-18 112 -85 171q-64 58 -160 58q-108 0 -178 -82
q-46 -52 -63 -147h486z" />
    <glyph glyph-name="ccedilla" unicode="&#xe7;" horiz-adv-x="619" 
d="M298 -57l7 2q3 1 8 1q33 0 54 -23q18 -20 18 -48q0 -30 -18 -51q-21 -25 -55 -25h-7q-3 1 -9 1q-6 2 -11.5 4t-10.5 4q-30 15 -36 53h27q6 -22 24 -31q4 -1 7 -1.5t7 -1.5l5 -1h4q18 0 31 12q13 13 15 37q-2 21 -14 33q-13 12 -32 12q-26 0 -41 -25l-22 5l41 90
q-106 9 -177 84q-72 77 -72 191q2 120 80 198q80 80 199 80q87 0 157 -46q77 -50 107 -139h-31q-29 81 -101 124q-62 36 -131 35q-102 -2 -179 -71q-73 -66 -73 -181q0 -110 75 -182q71 -70 176 -70q87 2 151 48q60 44 81 106h31q-29 -81 -98 -130q-70 -48 -167 -50z" />
    <glyph glyph-name="egrave" unicode="&#xe8;" horiz-adv-x="619" 
d="M60 262q2 -120 87 -190q74 -60 164 -59q74 0 134 36q61 37 92 104h31q-34 -81 -107 -126q-67 -40 -151 -40q-138 0 -214 94q-65 80 -65 183q0 120 81 199q80 80 199 80q110 0 190 -71q95 -85 87 -210h-528zM560 288q-5 96 -80 164q-75 69 -169 65q-101 0 -171 -64
q-73 -66 -79 -165h499zM372 613l-13 -23l-175 100l14 23z" />
    <glyph glyph-name="eacute" unicode="&#xe9;" horiz-adv-x="619" 
d="M60 262q2 -120 87 -190q74 -60 164 -59q74 0 134 36q61 37 92 104h31q-34 -81 -107 -126q-67 -40 -151 -40q-138 0 -214 94q-65 80 -65 183q0 120 81 199q80 80 199 80q110 0 190 -71q95 -85 87 -210h-528zM560 288q-5 96 -80 164q-75 69 -169 65q-101 0 -171 -64
q-73 -66 -79 -165h499zM419 715l14 -23l-172 -102l-13 23z" />
    <glyph glyph-name="ecircumflex" unicode="&#xea;" horiz-adv-x="619" 
d="M60 262q2 -120 87 -190q74 -60 164 -59q74 0 134 36q61 37 92 104h31q-34 -81 -107 -126q-67 -40 -151 -40q-138 0 -214 94q-65 80 -65 183q0 120 81 199q80 80 199 80q110 0 190 -71q95 -85 87 -210h-528zM560 288q-5 96 -80 164q-75 69 -169 65q-101 0 -171 -64
q-73 -66 -79 -165h499zM436 608h-45l-82 68l-80 -68h-45l111 90h28z" />
    <glyph glyph-name="edieresis" unicode="&#xeb;" horiz-adv-x="619" 
d="M60 262q2 -120 87 -190q74 -60 164 -59q74 0 134 36q61 37 92 104h31q-34 -81 -107 -126q-67 -40 -151 -40q-138 0 -214 94q-65 80 -65 183q0 120 81 199q80 80 199 80q110 0 190 -71q95 -85 87 -210h-528zM560 288q-5 96 -80 164q-75 69 -169 65q-101 0 -171 -64
q-73 -66 -79 -165h499zM236 608h-29v116h29v-116zM402 608h-29v116h29v-116z" />
    <glyph glyph-name="igrave" unicode="&#xec;" horiz-adv-x="184" 
d="M78 530h28v-530h-28v530zM155 613l-13 -23l-175 100l14 23z" />
    <glyph glyph-name="iacute" unicode="&#xed;" horiz-adv-x="184" 
d="M78 530h28v-530h-28v530zM201 715l14 -23l-172 -102l-13 23z" />
    <glyph glyph-name="icircumflex" unicode="&#xee;" horiz-adv-x="184" 
d="M78 530h28v-530h-28v530zM218 608h-45l-82 68l-80 -68h-45l111 90h28z" />
    <glyph glyph-name="idieresis" unicode="&#xef;" horiz-adv-x="184" 
d="M78 530h28v-530h-28v530zM24 608h-29v116h29v-116zM190 608h-29v116h29v-116z" />
    <glyph glyph-name="eth" unicode="&#xf0;" horiz-adv-x="641" 
d="M90 555v30l191 70q-78 38 -170 70l34 15q47 -16 89.5 -34.5t80.5 -38.5l200 73v-30l-166 -61q142 -82 205 -193q46 -83 46 -190q0 -126 -89 -206q-81 -72 -191 -73q-113 0 -192 70q-85 77 -87 207q1 124 82 201q77 77 198 78q125 0 198 -88q-19 36 -53 70
q-63 66 -152 112zM69 264q-1 -106 71 -179q72 -72 180 -72q109 0 181 73q71 73 71 180q0 105 -75 178q-73 73 -175 73q-109 -1 -182 -73q-72 -72 -71 -179v-1z" />
    <glyph glyph-name="ntilde" unicode="&#xf1;" horiz-adv-x="641" 
d="M78 530h28v-64t-1 -51q25 66 89 99q57 31 133 29q116 -3 178 -71q59 -67 59 -187v-285h-28v285q0 109 -53 170q-56 63 -162 62q-97 -1 -155 -55q-60 -55 -60 -157v-305h-28v530zM297 647q-31 22 -59 12q-29 -11 -29 -44h-30q0 54 46 70q42 16 81 -11l40 -27
q34 -24 61 -13q28 12 28 45h29q0 -56 -43 -72q-40 -16 -84 12z" />
    <glyph glyph-name="ograve" unicode="&#xf2;" horiz-adv-x="641" 
d="M41 266q0 117 80 197t199 80t199 -80t80 -198q0 -119 -80 -199q-79 -79 -199 -79t-199 79q-80 80 -80 199v1zM69 264q0 -107 72 -179t179 -72t179 72t72 180t-72 180t-179 72t-179 -72t-72 -180v-1zM383 613l-13 -23l-175 100l14 23z" />
    <glyph glyph-name="oacute" unicode="&#xf3;" horiz-adv-x="641" 
d="M41 266q0 117 80 197t199 80t199 -80t80 -198q0 -119 -80 -199q-79 -79 -199 -79t-199 79q-80 80 -80 199v1zM69 264q0 -107 72 -179t179 -72t179 72t72 180t-72 180t-179 72t-179 -72t-72 -180v-1zM429 715l14 -23l-172 -102l-13 23z" />
    <glyph glyph-name="ocircumflex" unicode="&#xf4;" horiz-adv-x="641" 
d="M41 266q0 117 80 197t199 80t199 -80t80 -198q0 -119 -80 -199q-79 -79 -199 -79t-199 79q-80 80 -80 199v1zM69 264q0 -107 72 -179t179 -72t179 72t72 180t-72 180t-179 72t-179 -72t-72 -180v-1zM446 608h-45l-82 68l-80 -68h-45l111 90h28z" />
    <glyph glyph-name="otilde" unicode="&#xf5;" horiz-adv-x="641" 
d="M41 266q0 117 80 197t199 80t199 -80t80 -198q0 -119 -80 -199q-79 -79 -199 -79t-199 79q-80 80 -80 199v1zM69 264q0 -107 72 -179t179 -72t179 72t72 180t-72 180t-179 72t-179 -72t-72 -180v-1zM296 647q-31 22 -59 12q-29 -11 -29 -44h-30q0 54 46 70q42 16 81 -11
l40 -27q34 -24 61 -13q28 12 28 45h29q0 -56 -43 -72q-40 -16 -84 12z" />
    <glyph glyph-name="odieresis" unicode="&#xf6;" horiz-adv-x="641" 
d="M41 266q0 117 80 197t199 80t199 -80t80 -198q0 -119 -80 -199q-79 -79 -199 -79t-199 79q-80 80 -80 199v1zM69 264q0 -107 72 -179t179 -72t179 72t72 180t-72 180t-179 72t-179 -72t-72 -180v-1zM252 608h-29v116h29v-116zM418 608h-29v116h29v-116z" />
    <glyph glyph-name="divide" unicode="&#xf7;" horiz-adv-x="600" 
d="M315 419h-30v81h30v-81zM50 264h500v-28h-500v28zM315 0h-30v81h30v-81z" />
    <glyph glyph-name="oslash" unicode="&#xf8;" horiz-adv-x="641" 
d="M554 565l-58 -81q103 -84 103 -219q0 -119 -80 -199q-79 -79 -199 -79q-85 0 -153 44l-48 -66h-34l60 82q-104 80 -104 218q0 118 80 198t199 80q86 0 153 -44l47 66h34zM457 477q-59 40 -137 40q-107 0 -179 -72t-72 -180q0 -124 91 -197zM182 52q62 -39 138 -39
q107 0 179 72t72 180q0 124 -91 197z" />
    <glyph glyph-name="ugrave" unicode="&#xf9;" horiz-adv-x="641" 
d="M563 0h-28v64t1 51q-25 -66 -89 -99q-57 -31 -133 -29q-116 3 -178 71q-59 67 -59 187v285h28v-285q0 -109 53 -170q56 -63 162 -62q97 1 155 55q60 56 60 157v305h28v-530zM383 613l-13 -23l-175 100l14 23z" />
    <glyph glyph-name="uacute" unicode="&#xfa;" horiz-adv-x="641" 
d="M563 0h-28v64t1 51q-25 -66 -89 -99q-57 -31 -133 -29q-116 3 -178 71q-59 67 -59 187v285h28v-285q0 -109 53 -170q56 -63 162 -62q97 1 155 55q60 56 60 157v305h28v-530zM429 715l14 -23l-172 -102l-13 23z" />
    <glyph glyph-name="ucircumflex" unicode="&#xfb;" horiz-adv-x="641" 
d="M563 0h-28v64t1 51q-25 -66 -89 -99q-57 -31 -133 -29q-116 3 -178 71q-59 67 -59 187v285h28v-285q0 -109 53 -170q56 -63 162 -62q97 1 155 55q60 56 60 157v305h28v-530zM446 608h-45l-82 68l-80 -68h-45l111 90h28z" />
    <glyph glyph-name="udieresis" unicode="&#xfc;" horiz-adv-x="641" 
d="M563 0h-28v64t1 51q-25 -66 -89 -99q-57 -31 -133 -29q-116 3 -178 71q-59 67 -59 187v285h28v-285q0 -109 53 -170q56 -63 162 -62q97 1 155 55q60 56 60 157v305h28v-530zM252 608h-29v116h29v-116zM418 608h-29v116h29v-116z" />
    <glyph glyph-name="yacute" unicode="&#xfd;" horiz-adv-x="481" 
d="M221 1l-210 529h31l196 -491l209 491h33l-321 -743h-32zM355 715l14 -23l-172 -102l-13 23z" />
    <glyph glyph-name="thorn" unicode="&#xfe;" horiz-adv-x="681" 
d="M78 740h28v-353q42 88 129 128q30 14 69 22q29 6 55 6q118 0 200 -80q80 -80 80 -198q0 -119 -80 -199q-80 -79 -200 -79q-82 0 -153 44q-65 41 -100 109v-353h-28v953zM611 266q0 106 -71 179q-72 72 -180 72q-103 0 -176 -70q-78 -73 -78 -185q0 -97 72 -171
q75 -78 182 -78q108 0 180 72q71 73 71 180v1z" />
    <glyph glyph-name="ydieresis" unicode="&#xff;" horiz-adv-x="481" 
d="M221 1l-210 529h31l196 -491l209 491h33l-321 -743h-32zM172 608h-29v116h29v-116zM338 608h-29v116h29v-116z" />
    <glyph glyph-name="Abreve" unicode="&#x102;" horiz-adv-x="687" 
d="M39 0h-32l317 740h39l317 -740h-32l-111 258h-387zM343 712l-180 -427h361zM476 921q0 -34 -41 -69q-38 -32 -91 -32t-91 32q-41 35 -41 69h28q0 -22 33 -51q29 -24 71 -24t70 24q34 28 34 51h28z" />
    <glyph glyph-name="abreve" unicode="&#x103;" horiz-adv-x="674" 
d="M596 0h-28v137q-76 -150 -248 -150q-126 0 -205 85q-74 80 -74 193q0 115 75 194q80 84 204 84q91 0 162 -49q64 -44 86 -104v140h28v-530zM69 264q2 -100 63 -170q71 -81 191 -81q82 0 146 47q61 43 87 118q17 44 15 93q0 50 -18 92q-27 69 -89 112q-64 42 -144 42
q-106 0 -177 -70q-74 -72 -74 -182v-1zM485 726q0 -34 -41 -69q-38 -32 -91 -32t-91 32q-41 35 -41 69h28q0 -22 33 -51q29 -24 71 -24t70 24q34 28 34 51h28z" />
    <glyph glyph-name="Dcroat" unicode="&#x110;" horiz-adv-x="701" 
d="M77 740h209q176 0 274 -98q99 -97 99 -272q0 -174 -99 -272q-100 -98 -274 -98h-209v359h-77v27h77v354zM107 386h251v-27h-251v-332h179q161 0 252 90q91 91 91 251q0 163 -90 254q-91 91 -253 91h-179v-327z" />
    <glyph glyph-name="dcroat" unicode="&#x111;" horiz-adv-x="677" 
d="M69 264q2 -100 63 -170q71 -81 191 -81q106 0 178 74q73 75 70 180q0 106 -72 178t-179 72q-106 0 -177 -70q-74 -72 -74 -182v-1zM596 601v-601h-28v137q-76 -150 -248 -150q-126 0 -205 85q-74 80 -74 193q0 115 75 194q80 84 204 84q91 0 162 -49q64 -44 86 -104v211
h-217v27h217v112h28v-112h43v-27h-43z" />
    <glyph glyph-name="Itilde" unicode="&#x128;" horiz-adv-x="185" 
d="M77 740h30v-740h-30v740zM68 842q-31 22 -59 12q-29 -11 -29 -44h-30q0 54 46 70q42 16 81 -11l40 -27q34 -24 61 -13q28 12 28 45h29q0 -56 -43 -72q-40 -16 -84 12z" />
    <glyph glyph-name="itilde" unicode="&#x129;" horiz-adv-x="184" 
d="M78 530h28v-530h-28v530zM68 647q-31 22 -59 12q-29 -11 -29 -44h-30q0 54 46 70q42 16 81 -11l40 -27q34 -24 61 -13q28 12 28 45h29q0 -56 -43 -72q-40 -16 -84 12z" />
    <glyph glyph-name="dotlessi" unicode="&#x131;" horiz-adv-x="184" 
d="M78 530h28v-530h-28v530z" />
    <glyph glyph-name="Lslash" unicode="&#x141;" horiz-adv-x="423" 
d="M0 315l81 60v365h30v-343l157 115v-35l-157 -118v-332h313v-27h-343v340l-81 -60v35z" />
    <glyph glyph-name="lslash" unicode="&#x142;" horiz-adv-x="219" 
d="M16 324v30l79 58v328h28v-312l97 71v-29l-97 -72v-398h-28v382z" />
    <glyph glyph-name="OE" unicode="&#x152;" horiz-adv-x="1178" 
d="M802 386h315v-27h-315v-332h315v-27h-345v229q-31 -106 -129 -174t-221 -68q-161 0 -270 107q-111 110 -111 276t110 276q109 107 267 107q126 0 224 -68q97 -67 130 -174v229h345v-27h-315v-327zM71 369q0 -154 101 -255q100 -100 248 -100q149 0 251 104
q101 104 101 253q-5 153 -101 252q-100 103 -251 103q-148 0 -248 -100q-101 -101 -101 -256v-1z" />
    <glyph glyph-name="oe" unicode="&#x153;" horiz-adv-x="1156" 
d="M598 263q6 -119 83 -188q70 -62 164 -62q71 0 130 35q65 39 89 107h31l-6 -14l-7 -15q-5 -8 -9 -16t-9 -15q-26 -37 -68 -66q-70 -42 -151 -42q-96 0 -167 54q-66 51 -95 137q-41 -101 -119 -150q-65 -41 -144 -41q-147 0 -224 108q-14 20 -25 42.5t-18 48.5
q-12 42 -12 78q0 119 80 199t199 80q92 0 163 -53q68 -53 98 -141q4 14 9.5 27.5t13.5 27.5q10 18 22.5 33.5t26.5 29.5q74 72 188 72q117 0 197 -83q78 -81 78 -193h-518zM69 264q0 -107 72 -179t179 -72q105 0 178 78q70 73 70 172q0 98 -67 172q-73 82 -181 82
q-107 0 -179 -72t-72 -180v-1zM1083 289q-5 77 -62 143q-70 81 -181 81q-94 0 -162 -63q-69 -64 -79 -161h484z" />
    <glyph glyph-name="Scaron" unicode="&#x160;" horiz-adv-x="518" 
d="M75 187q12 -93 77 -140q13 -8 26.5 -14.5t29.5 -11.5q24 -7 50 -7q73 0 128 48q58 52 58 128q0 88 -68 135q-25 18 -62 31q-13 5 -30 9l-15 4l-14 4l-13 3l-14 4q-8 2 -16 4.5t-15 4.5q-39 14 -63 31q-73 49 -73 140q-1 88 59 143q58 50 142 50q70 0 122 -41
q59 -47 69 -131h-30q-2 13 -5.5 25t-7.5 23q-10 26 -28 47q-44 50 -122 50q-71 0 -120 -44q-49 -46 -49 -117q-1 -78 61 -121q38 -26 138 -52l8 -2l10 -3q7 -2 13.5 -4t12.5 -4q34 -12 62 -29q78 -54 78 -156q0 -89 -66 -149q-64 -58 -149 -58q-77 0 -137 48q-70 55 -77 152
h30zM109 905l151 -95l150 95h45l-180 -115h-30l-181 115h45z" />
    <glyph glyph-name="scaron" unicode="&#x161;" horiz-adv-x="426" 
d="M323 405q0 56 -35 86q-31 27 -77 26q-52 0 -86 -32q-31 -31 -30 -79q1 -45 31 -71q27 -22 85 -38l27 -7l26 -9q31 -11 49 -24q48 -35 53 -111q5 -65 -41 -112q-47 -47 -114 -47q-68 0 -117 44q-50 47 -46 116h28q0 -61 39 -99q38 -35 96 -35t94 39q35 38 33 90
q-2 55 -32 84q-29 28 -96 43q-72 21 -100 43q-41 32 -43 94q0 65 42 102q41 35 102 35q63 -2 99 -35q41 -38 41 -103h-28zM63 720l151 -95l150 95h45l-180 -115h-30l-181 115h45z" />
    <glyph glyph-name="Utilde" unicode="&#x168;" horiz-adv-x="605" 
d="M106 740v-480q0 -64 6 -93q9 -46 40 -85q53 -68 152 -68q96 0 149 68q31 39 40 85q6 29 6 93v480h30v-480v-30t-1 -25q-3 -36 -10 -61q-21 -71 -78 -112q-61 -45 -138 -45q-75 0 -137 45q-58 41 -77 112q-4 14 -6.5 29t-4.5 32q-1 11 -1 25v30v480h30zM278 842
q-31 22 -59 12q-29 -11 -29 -44h-30q0 54 46 70q42 16 81 -11l40 -27q34 -24 61 -13q28 12 28 45h29q0 -56 -43 -72q-40 -16 -84 12z" />
    <glyph glyph-name="utilde" unicode="&#x169;" horiz-adv-x="641" 
d="M563 0h-28v64t1 51q-25 -66 -89 -99q-57 -31 -133 -29q-116 3 -178 71q-59 67 -59 187v285h28v-285q0 -109 53 -170q56 -63 162 -62q97 1 155 55q60 56 60 157v305h28v-530zM296 647q-31 22 -59 12q-29 -11 -29 -44h-30q0 54 46 70q42 16 81 -11l40 -27q34 -24 61 -13
q28 12 28 45h29q0 -56 -43 -72q-40 -16 -84 12z" />
    <glyph glyph-name="Ydieresis" unicode="&#x178;" horiz-adv-x="554" 
d="M262 255l-247 485h33l229 -451l228 451h34l-247 -485v-255h-30v255zM209 788h-29v116h29v-116zM375 788h-29v116h29v-116z" />
    <glyph glyph-name="Zcaron" unicode="&#x17d;" horiz-adv-x="499" 
d="M55 27h438v-27h-473v18l417 695h-431v27h466v-18zM89 905l151 -95l150 95h45l-180 -115h-30l-181 115h45z" />
    <glyph glyph-name="zcaron" unicode="&#x17e;" horiz-adv-x="407" 
d="M12 24l329 480h-311v26h347v-27l-329 -477h346v-26h-382v24zM48 720l151 -95l150 95h45l-180 -115h-30l-181 115h45z" />
    <glyph glyph-name="florin" unicode="&#x192;" 
d="M482 502v-27h-145l-94 -498q-3 -18 -6 -31q-2 -9 -4 -17l-4 -16q-5 -18 -12.5 -33t-15.5 -28q-43 -64 -141 -64q-31 0 -60 8l6 28l12 -3l12 -3q15 -3 30 -3q79 0 117 53q14 22 23 51l6 26l5 26l95 504h-144v27h148l5 28l5 28q3 17 6 31t7 26q20 64 57 98q49 40 110 40
q15 0 27 -3l-6 -26q-7 1 -13 1.5t-11 0.5q-58 -4 -90 -36q-30 -28 -46 -89q-7 -21 -12 -51l-4 -25l-4 -23h141z" />
    <glyph glyph-name="Ohorn" unicode="&#x1a0;" horiz-adv-x="851" 
d="M71 369q0 -152 104 -254q103 -101 250 -101t251 101q103 103 103 255t-103 255q-104 101 -251 101t-250 -101q-104 -104 -104 -255v-1zM581 723q64 -27 116 -78q112 -109 112 -275t-112 -275q-111 -108 -272 -108t-271 108q-113 110 -113 275v1q0 164 113 274
q110 108 271 108q56 0 109 -14q35 1 64 26q39 32 40 91h28q0 -46 -23 -81q-23 -37 -62 -52z" />
    <glyph glyph-name="ohorn" unicode="&#x1a1;" horiz-adv-x="641" 
d="M69 264q0 -107 72 -179t179 -72t179 72t72 180t-72 180t-179 72t-179 -72t-72 -180v-1zM457 510q33 -18 62 -47q80 -80 80 -198q0 -119 -80 -199q-79 -79 -199 -79t-199 79q-80 80 -80 199v1q0 117 80 197t199 80q52 0 95 -15q36 1 65 26q39 32 40 91h28q0 -46 -23 -81
q-25 -40 -68 -54z" />
    <glyph glyph-name="Uhorn" unicode="&#x1af;" horiz-adv-x="605" 
d="M529 715v-455v-30t-1 -25q-3 -36 -10 -61q-21 -71 -78 -112q-61 -45 -138 -45q-75 0 -137 45q-58 41 -77 112q-4 14 -6.5 29t-4.5 32q-1 11 -1 25v30v480h30v-480q0 -64 6 -93q9 -46 40 -85q53 -68 152 -68q96 0 149 68q31 39 40 85q6 29 6 93v480h24q31 4 56 25
q39 32 40 91h28q0 -46 -23 -81q-33 -52 -95 -60z" />
    <glyph glyph-name="uhorn" unicode="&#x1b0;" horiz-adv-x="641" 
d="M563 505v-505h-28v64t1 51q-25 -66 -89 -99q-57 -31 -133 -29q-116 3 -178 71q-59 67 -59 187v285h28v-285q0 -109 53 -170q56 -63 162 -62q97 1 155 55q60 56 60 157v305h24q26 4 49 24q39 32 40 91h28q0 -46 -23 -81q-32 -50 -90 -59z" />
    <glyph glyph-name="circumflex" unicode="&#x2c6;" 
d="M404 608h-45l-82 68l-80 -68h-45l111 90h28z" />
    <glyph glyph-name="caron" unicode="&#x2c7;" 
d="M127 720l151 -95l150 95h45l-180 -115h-30l-181 115h45z" />
    <glyph glyph-name="uni02C9" unicode="&#x2c9;" 
d="M455 645h-356v30h356v-30z" />
    <glyph glyph-name="breve" unicode="&#x2d8;" 
d="M409 726q0 -34 -41 -69q-38 -32 -91 -32t-91 32q-41 35 -41 69h28q0 -22 33 -51q29 -24 71 -24t70 24q34 28 34 51h28z" />
    <glyph glyph-name="dotaccent" unicode="&#x2d9;" 
d="M293 608h-31v116h31v-116z" />
    <glyph glyph-name="ring" unicode="&#x2da;" 
d="M278 762q39 0 64 -27q27 -25 27 -64q0 -38 -27 -64q-27 -27 -65 -27q-37 0 -64 27t-27 64q0 38 27 65q28 26 64 26h1zM276 736q-25 0 -44 -19q-18 -19 -18 -45t18 -44q19 -19 45 -19q27 0 46 19q18 18 18 44t-18 45q-19 19 -46 19h-1z" />
    <glyph glyph-name="ogonek" unicode="&#x2db;" 
d="M314 0q-26 -19 -42 -32t-23 -21q-21 -23 -21 -53q0 -31 22 -52q20 -19 51 -19q24 0 56 13v-29l-9 -5q-2 -1 -5 -2l-6 -2q-13 -4 -36 -4q-47 0 -76 27q-28 25 -28 70q0 43 33 75q11 9 29 21q4 3 14 7q5 3 12 6h29z" />
    <glyph glyph-name="tilde" unicode="&#x2dc;" 
d="M252 647q-31 22 -59 12q-29 -11 -29 -44h-30q0 54 46 70q42 16 81 -11l40 -27q34 -24 61 -13q28 12 28 45h29q0 -56 -43 -72q-40 -16 -84 12z" />
    <glyph glyph-name="hungarumlaut" unicode="&#x2dd;" 
d="M307 751l16 -20l-193 -141l-16 21zM448 751l16 -20l-193 -141l-16 21z" />
    <glyph glyph-name="gravecomb" unicode="&#x300;" horiz-adv-x="0" 
d="M-154 613l-13 -23l-175 100l14 23z" />
    <glyph glyph-name="acutecomb" unicode="&#x301;" horiz-adv-x="0" 
d="M-156 715l14 -23l-172 -102l-13 23z" />
    <glyph glyph-name="tildecomb" unicode="&#x303;" horiz-adv-x="0" 
d="M-253 647q-31 22 -59 12q-29 -11 -29 -44h-30q0 54 46 70q42 16 81 -11l40 -27q34 -24 61 -13q28 12 28 45h29q0 -56 -43 -72q-41 -16 -84 12z" />
    <glyph glyph-name="hookabovecomb" unicode="&#x309;" horiz-adv-x="567" 
d="M215 622q0 18 19 37q8 8 14 14.5t9 10.5q8 13 10 29q0 21 -14 35q-13 15 -36 15q-20 0 -34 -12q-13 -13 -18 -36h-24q2 32 26 52q23 18 52 18q32 0 53 -21q20 -20 20 -47q0 -17 -11 -34q-2 -4 -5.5 -7.5l-7.5 -7.5l-7 -7l-7 -7q-17 -17 -16 -32h-23z" />
    <glyph glyph-name="uni031B" unicode="&#x31b;" horiz-adv-x="807" 
d="M179 430q0 -46 -23 -81q-39 -61 -116 -61v25q40 0 71 26q39 31 40 91h28z" />
    <glyph glyph-name="dotbelowcomb" unicode="&#x323;" horiz-adv-x="0" 
d="M-243 -215h-30v81h30v-81z" />
    <glyph glyph-name="uni03A9" unicode="&#x3a9;" horiz-adv-x="731" 
d="M221 33q-148 133 -148 356q0 166 88 266q83 95 208 95q124 0 207 -101q82 -101 82 -258q0 -116 -47 -219q-40 -86 -102 -139v-3h162v-30h-222v22q72 51 121 145q54 104 54 220q0 124 -64 221q-74 113 -192 113q-117 0 -191 -98q-71 -95 -71 -236q0 -112 55 -218
q50 -97 120 -147v-22h-221v30h161v3z" />
    <glyph glyph-name="uni03BC" unicode="&#x3bc;" horiz-adv-x="561" 
d="M78 530h28v-300v-23.5t1 -18.5q1 -11 1.5 -21.5t2.5 -20.5q9 -49 34 -77q29 -34 69 -47q8 -2 16.5 -4t17.5 -3q7 -1 14.5 -1.5t15.5 -0.5q85 0 132 65q51 66 51 200v252h28v-530h-28v119q-2 -5 -3.5 -9.5t-3.5 -8.5q-2 -5 -5 -10.5t-5 -10.5q-13 -25 -33 -43
q-50 -50 -133 -50q-73 0 -120 33q-18 12 -32 29q-3 4 -6 7.5t-5 7.5q-2 2 -4.5 5.5t-4.5 7.5v-258h-28v711z" />
    <glyph glyph-name="pi" unicode="&#x3c0;" horiz-adv-x="548" 
d="M429 515v-362q0 -106 16 -153h-33q-6 10 -11 42q-2 20 -3.5 45.5t-1.5 57.5v370h-216q-3 -65 -10 -135t-18 -147q-13 -85 -26 -143t-27 -90h-34q30 75 54 236q21 146 27 279q-89 0 -122 -15l-9 22q43 23 127 23h381l-6 -30h-88z" />
    <glyph glyph-name="uni1EA0" unicode="&#x1ea0;" horiz-adv-x="687" 
d="M39 0h-32l317 740h39l317 -740h-32l-111 258h-387zM343 712l-180 -427h361zM359 -215h-30v81h30v-81z" />
    <glyph glyph-name="uni1EA1" unicode="&#x1ea1;" horiz-adv-x="674" 
d="M596 0h-28v137q-76 -150 -248 -150q-126 0 -205 85q-74 80 -74 193q0 115 75 194q80 84 204 84q91 0 162 -49q64 -44 86 -104v140h28v-530zM69 264q2 -100 63 -170q71 -81 191 -81q82 0 146 47q61 43 87 118q17 44 15 93q0 50 -18 92q-27 69 -89 112q-64 42 -144 42
q-106 0 -177 -70q-74 -72 -74 -182v-1zM334 -215h-30v81h30v-81z" />
    <glyph glyph-name="uni1EA2" unicode="&#x1ea2;" horiz-adv-x="687" 
d="M39 0h-32l317 740h39l317 -740h-32l-111 258h-387zM343 712l-180 -427h361zM328 817q0 18 19 37q8 8 14 14.5t9 10.5q8 13 10 29q0 21 -14 35q-13 15 -36 15q-20 0 -34 -12q-13 -13 -18 -36h-24q2 32 26 52q23 18 52 18q32 0 53 -21q20 -20 20 -47q0 -17 -11 -34
q-2 -4 -5.5 -7.5l-7.5 -7.5l-7 -7l-7 -7q-17 -17 -16 -32h-23z" />
    <glyph glyph-name="uni1EA3" unicode="&#x1ea3;" horiz-adv-x="674" 
d="M596 0h-28v137q-76 -150 -248 -150q-126 0 -205 85q-74 80 -74 193q0 115 75 194q80 84 204 84q91 0 162 -49q64 -44 86 -104v140h28v-530zM69 264q2 -100 63 -170q71 -81 191 -81q82 0 146 47q61 43 87 118q17 44 15 93q0 50 -18 92q-27 69 -89 112q-64 42 -144 42
q-106 0 -177 -70q-74 -72 -74 -182v-1zM344 622q0 18 19 37q8 8 14 14.5t9 10.5q8 13 10 29q0 21 -14 35q-13 15 -36 15q-20 0 -34 -12q-13 -13 -18 -36h-24q2 32 26 52q23 18 52 18q32 0 53 -21q20 -20 20 -47q0 -17 -11 -34q-2 -4 -5.5 -7.5l-7.5 -7.5l-7 -7l-7 -7
q-17 -17 -16 -32h-23z" />
    <glyph glyph-name="uni1EA4" unicode="&#x1ea4;" horiz-adv-x="687" 
d="M39 0h-32l317 740h39l317 -740h-32l-111 258h-387zM343 712l-180 -427h361zM470 798h-45l-82 68l-80 -68h-45l111 90h28zM626 980l14 -23l-172 -102l-13 23z" />
    <glyph glyph-name="uni1EA5" unicode="&#x1ea5;" horiz-adv-x="674" 
d="M596 0h-28v137q-76 -150 -248 -150q-126 0 -205 85q-74 80 -74 193q0 115 75 194q80 84 204 84q91 0 162 -49q64 -44 86 -104v140h28v-530zM69 264q2 -100 63 -170q71 -81 191 -81q82 0 146 47q61 43 87 118q17 44 15 93q0 50 -18 92q-27 69 -89 112q-64 42 -144 42
q-106 0 -177 -70q-74 -72 -74 -182v-1zM471 608h-45l-82 68l-80 -68h-45l111 90h28zM612 814l14 -23l-172 -102l-13 23z" />
    <glyph glyph-name="uni1EA6" unicode="&#x1ea6;" horiz-adv-x="687" 
d="M39 0h-32l317 740h39l317 -740h-32l-111 258h-387zM343 712l-180 -427h361zM470 800h-45l-82 68l-80 -68h-45l111 90h28zM471 924l-13 -23l-175 100l14 23z" />
    <glyph glyph-name="uni1EA7" unicode="&#x1ea7;" horiz-adv-x="674" 
d="M596 0h-28v137q-76 -150 -248 -150q-126 0 -205 85q-74 80 -74 193q0 115 75 194q80 84 204 84q91 0 162 -49q64 -44 86 -104v140h28v-530zM69 264q2 -100 63 -170q71 -81 191 -81q82 0 146 47q61 43 87 118q17 44 15 93q0 50 -18 92q-27 69 -89 112q-64 42 -144 42
q-106 0 -177 -70q-74 -72 -74 -182v-1zM472 608h-45l-82 68l-80 -68h-45l111 90h28zM451 744l-13 -23l-175 100l14 23z" />
    <glyph glyph-name="uni1EA8" unicode="&#x1ea8;" horiz-adv-x="687" 
d="M39 0h-32l317 740h39l317 -740h-32l-111 258h-387zM343 712l-180 -427h361zM475 798h-45l-82 68l-80 -68h-45l111 90h28zM477 874q0 18 19 37q8 8 14 14.5t9 10.5q8 13 10 29q0 21 -14 35q-13 15 -36 15q-20 0 -34 -12q-13 -13 -18 -36h-24q2 32 26 52q23 18 52 18
q32 0 53 -21q20 -20 20 -47q0 -17 -11 -34q-2 -4 -5.5 -7.5l-7.5 -7.5l-7 -7l-7 -7q-17 -17 -16 -32h-23z" />
    <glyph glyph-name="uni1EA9" unicode="&#x1ea9;" horiz-adv-x="674" 
d="M596 0h-28v137q-76 -150 -248 -150q-126 0 -205 85q-74 80 -74 193q0 115 75 194q80 84 204 84q91 0 162 -49q64 -44 86 -104v140h28v-530zM69 264q2 -100 63 -170q71 -81 191 -81q82 0 146 47q61 43 87 118q17 44 15 93q0 50 -18 92q-27 69 -89 112q-64 42 -144 42
q-106 0 -177 -70q-74 -72 -74 -182v-1zM472 608h-45l-82 68l-80 -68h-45l111 90h28zM459 676q0 18 19 37q8 8 14 14.5t9 10.5q8 13 10 29q0 21 -14 35q-13 15 -36 15q-20 0 -34 -12q-13 -13 -18 -36h-24q2 32 26 52q23 18 52 18q32 0 53 -21q20 -20 20 -47q0 -17 -11 -34
q-2 -4 -5.5 -7.5l-7.5 -7.5l-7 -7l-7 -7q-17 -17 -16 -32h-23z" />
    <glyph glyph-name="uni1EAA" unicode="&#x1eaa;" horiz-adv-x="687" 
d="M39 0h-32l317 740h39l317 -740h-32l-111 258h-387zM343 712l-180 -427h361zM471 799h-45l-82 68l-80 -68h-45l111 90h28zM402 967q-31 22 -59 12q-29 -11 -29 -44h-30q0 54 46 70q42 16 81 -11l40 -27q34 -24 61 -13q28 12 28 45h29q0 -56 -43 -72q-40 -16 -84 12z" />
    <glyph glyph-name="uni1EAB" unicode="&#x1eab;" horiz-adv-x="674" 
d="M596 0h-28v137q-76 -150 -248 -150q-126 0 -205 85q-74 80 -74 193q0 115 75 194q80 84 204 84q91 0 162 -49q64 -44 86 -104v140h28v-530zM69 264q2 -100 63 -170q71 -81 191 -81q82 0 146 47q61 43 87 118q17 44 15 93q0 50 -18 92q-27 69 -89 112q-64 42 -144 42
q-106 0 -177 -70q-74 -72 -74 -182v-1zM472 608h-45l-82 68l-80 -68h-45l111 90h28zM338 776q-31 22 -59 12q-29 -11 -29 -44h-30q0 54 46 70q42 16 81 -11l40 -27q34 -24 61 -13q28 12 28 45h29q0 -56 -43 -72q-40 -16 -84 12z" />
    <glyph glyph-name="uni1EAC" unicode="&#x1eac;" horiz-adv-x="687" 
d="M39 0h-32l317 740h39l317 -740h-32l-111 258h-387zM343 712l-180 -427h361zM470 803h-45l-82 68l-80 -68h-45l111 90h28zM359 -215h-30v81h30v-81z" />
    <glyph glyph-name="uni1EAD" unicode="&#x1ead;" horiz-adv-x="674" 
d="M596 0h-28v137q-76 -150 -248 -150q-126 0 -205 85q-74 80 -74 193q0 115 75 194q80 84 204 84q91 0 162 -49q64 -44 86 -104v140h28v-530zM69 264q2 -100 63 -170q71 -81 191 -81q82 0 146 47q61 43 87 118q17 44 15 93q0 50 -18 92q-27 69 -89 112q-64 42 -144 42
q-106 0 -177 -70q-74 -72 -74 -182v-1zM472 608h-45l-82 68l-80 -68h-45l111 90h28zM334 -215h-30v81h30v-81z" />
    <glyph glyph-name="uni1EAE" unicode="&#x1eae;" horiz-adv-x="687" 
d="M39 0h-32l317 740h39l317 -740h-32l-111 258h-387zM343 712l-180 -427h361zM476 901q0 -34 -41 -69q-38 -32 -91 -32t-91 32q-41 35 -41 69h28q0 -22 33 -51q29 -24 71 -24t70 24q34 28 34 51h28zM495 1051l14 -23l-172 -102l-13 23z" />
    <glyph glyph-name="uni1EAF" unicode="&#x1eaf;" horiz-adv-x="674" 
d="M596 0h-28v137q-76 -150 -248 -150q-126 0 -205 85q-74 80 -74 193q0 115 75 194q80 84 204 84q91 0 162 -49q64 -44 86 -104v140h28v-530zM69 264q2 -100 63 -170q71 -81 191 -81q82 0 146 47q61 43 87 118q17 44 15 93q0 50 -18 92q-27 69 -89 112q-64 42 -144 42
q-106 0 -177 -70q-74 -72 -74 -182v-1zM484 726q0 -34 -41 -69q-38 -32 -91 -32t-91 32q-41 35 -41 69h28q0 -22 33 -51q29 -24 71 -24t70 24q34 28 34 51h28zM498 902l14 -23l-172 -102l-13 23z" />
    <glyph glyph-name="uni1EB0" unicode="&#x1eb0;" horiz-adv-x="687" 
d="M39 0h-32l317 740h39l317 -740h-32l-111 258h-387zM343 712l-180 -427h361zM476 902q0 -34 -41 -69q-38 -32 -91 -32t-91 32q-41 35 -41 69h28q0 -22 33 -51q29 -24 71 -24t70 24q34 28 34 51h28zM370 934l-13 -23l-175 100l14 23z" />
    <glyph glyph-name="uni1EB1" unicode="&#x1eb1;" horiz-adv-x="674" 
d="M596 0h-28v137q-76 -150 -248 -150q-126 0 -205 85q-74 80 -74 193q0 115 75 194q80 84 204 84q91 0 162 -49q64 -44 86 -104v140h28v-530zM69 264q2 -100 63 -170q71 -81 191 -81q82 0 146 47q61 43 87 118q17 44 15 93q0 50 -18 92q-27 69 -89 112q-64 42 -144 42
q-106 0 -177 -70q-74 -72 -74 -182v-1zM485 726q0 -34 -41 -69q-38 -32 -91 -32t-91 32q-41 35 -41 69h28q0 -22 33 -51q29 -24 71 -24t70 24q34 28 34 51h28zM408 792l-13 -23l-175 100l14 23z" />
    <glyph glyph-name="uni1EB2" unicode="&#x1eb2;" horiz-adv-x="687" 
d="M39 0h-32l317 740h39l317 -740h-32l-111 258h-387zM343 712l-180 -427h361zM477 901q0 -34 -41 -69q-38 -32 -91 -32t-91 32q-41 35 -41 69h28q0 -22 33 -51q29 -24 71 -24t70 24q34 28 34 51h28zM332 920q0 12 19 27q8 7 14 11.5t9 7.5q8 10 10 22q0 15 -14 26t-36 11
q-20 0 -34 -9q-13 -9 -18 -27h-24q1 24 26 39q23 14 52 14q33 0 53 -16q20 -14 20 -35q0 -13 -11 -26q-2 -2 -5.5 -5t-7.5 -6l-7 -5l-7 -5q-17 -14 -16 -24h-23z" />
    <glyph glyph-name="uni1EB3" unicode="&#x1eb3;" horiz-adv-x="674" 
d="M596 0h-28v137q-76 -150 -248 -150q-126 0 -205 85q-74 80 -74 193q0 115 75 194q80 84 204 84q91 0 162 -49q64 -44 86 -104v140h28v-530zM69 264q2 -100 63 -170q71 -81 191 -81q82 0 146 47q61 43 87 118q17 44 15 93q0 50 -18 92q-27 69 -89 112q-64 42 -144 42
q-106 0 -177 -70q-74 -72 -74 -182v-1zM484 726q0 -34 -41 -69q-38 -32 -91 -32t-91 32q-41 35 -41 69h28q0 -22 33 -51q29 -24 71 -24t70 24q34 28 34 51h28zM338 759q0 18 19 37q8 8 14 14.5t9 10.5q8 13 10 29q0 21 -14 35q-13 15 -36 15q-20 0 -34 -12q-13 -13 -18 -36
h-24q2 32 26 52q23 18 52 18q32 0 53 -21q20 -20 20 -47q0 -17 -11 -34q-2 -4 -5.5 -7.5l-7.5 -7.5l-7 -7l-7 -7q-17 -17 -16 -32h-23z" />
    <glyph glyph-name="uni1EB4" unicode="&#x1eb4;" horiz-adv-x="687" 
d="M39 0h-32l317 740h39l317 -740h-32l-111 258h-387zM343 712l-180 -427h361zM476 903q0 -34 -41 -69q-38 -32 -91 -32t-91 32q-41 35 -41 69h28q0 -22 33 -51q29 -24 71 -24t70 24q34 28 34 51h28zM311 1014q-31 22 -59 12q-29 -11 -29 -44h-30q0 54 46 70q42 16 81 -11
l40 -27q34 -24 61 -13q28 12 28 45h29q0 -56 -43 -72q-40 -16 -84 12z" />
    <glyph glyph-name="uni1EB5" unicode="&#x1eb5;" horiz-adv-x="674" 
d="M596 0h-28v137q-76 -150 -248 -150q-126 0 -205 85q-74 80 -74 193q0 115 75 194q80 84 204 84q91 0 162 -49q64 -44 86 -104v140h28v-530zM69 264q2 -100 63 -170q71 -81 191 -81q82 0 146 47q61 43 87 118q17 44 15 93q0 50 -18 92q-27 69 -89 112q-64 42 -144 42
q-106 0 -177 -70q-74 -72 -74 -182v-1zM484 726q0 -34 -41 -69q-38 -32 -91 -32t-91 32q-41 35 -41 69h28q0 -22 33 -51q29 -24 71 -24t70 24q34 28 34 51h28zM338 819q-31 22 -59 12q-29 -11 -29 -44h-30q0 54 46 70q42 16 81 -11l40 -27q34 -24 61 -13q28 12 28 45h29
q0 -56 -43 -72q-40 -16 -84 12z" />
    <glyph glyph-name="uni1EB6" unicode="&#x1eb6;" horiz-adv-x="687" 
d="M39 0h-32l317 740h39l317 -740h-32l-111 258h-387zM343 712l-180 -427h361zM476 921q0 -34 -41 -69q-38 -32 -91 -32t-91 32q-41 35 -41 69h28q0 -22 33 -51q29 -24 71 -24t70 24q34 28 34 51h28zM359 -215h-30v81h30v-81z" />
    <glyph glyph-name="uni1EB7" unicode="&#x1eb7;" horiz-adv-x="674" 
d="M596 0h-28v137q-76 -150 -248 -150q-126 0 -205 85q-74 80 -74 193q0 115 75 194q80 84 204 84q91 0 162 -49q64 -44 86 -104v140h28v-530zM69 264q2 -100 63 -170q71 -81 191 -81q82 0 146 47q61 43 87 118q17 44 15 93q0 50 -18 92q-27 69 -89 112q-64 42 -144 42
q-106 0 -177 -70q-74 -72 -74 -182v-1zM484 726q0 -34 -41 -69q-38 -32 -91 -32t-91 32q-41 35 -41 69h28q0 -22 33 -51q29 -24 71 -24t70 24q34 28 34 51h28zM359 -215h-30v81h30v-81z" />
    <glyph glyph-name="uni1EB8" unicode="&#x1eb8;" horiz-adv-x="547" 
d="M77 740h406v-27h-376v-327h376v-27h-376v-332h376v-27h-406v740zM295 -215h-30v81h30v-81z" />
    <glyph glyph-name="uni1EB9" unicode="&#x1eb9;" horiz-adv-x="619" 
d="M60 262q2 -120 87 -190q74 -60 164 -59q74 0 134 36q61 37 92 104h31q-34 -81 -107 -126q-67 -40 -151 -40q-138 0 -214 94q-65 80 -65 183q0 120 81 199q80 80 199 80q110 0 190 -71q95 -85 87 -210h-528zM560 288q-5 96 -80 164q-75 69 -169 65q-101 0 -171 -64
q-73 -66 -79 -165h499zM325 -215h-30v81h30v-81z" />
    <glyph glyph-name="uni1EBA" unicode="&#x1eba;" horiz-adv-x="547" 
d="M77 740h406v-27h-376v-327h376v-27h-376v-332h376v-27h-406v740zM265 817q0 18 19 37q8 8 14 14.5t9 10.5q8 13 10 29q0 21 -14 35q-13 15 -36 15q-20 0 -34 -12q-13 -13 -18 -36h-24q2 32 26 52q23 18 52 18q32 0 53 -21q20 -20 20 -47q0 -17 -11 -34q-2 -4 -5.5 -7.5
l-7.5 -7.5l-7 -7l-7 -7q-17 -17 -16 -32h-23z" />
    <glyph glyph-name="uni1EBB" unicode="&#x1ebb;" horiz-adv-x="619" 
d="M60 262q2 -120 87 -190q74 -60 164 -59q74 0 134 36q61 37 92 104h31q-34 -81 -107 -126q-67 -40 -151 -40q-138 0 -214 94q-65 80 -65 183q0 120 81 199q80 80 199 80q110 0 190 -71q95 -85 87 -210h-528zM560 288q-5 96 -80 164q-75 69 -169 65q-101 0 -171 -64
q-73 -66 -79 -165h499zM295 622q0 18 19 37q8 8 14 14.5t9 10.5q8 13 10 29q0 21 -14 35q-13 15 -36 15q-20 0 -34 -12q-13 -13 -18 -36h-24q2 32 26 52q23 18 52 18q32 0 53 -21q20 -20 20 -47q0 -17 -11 -34q-2 -4 -5.5 -7.5l-7.5 -7.5l-7 -7l-7 -7q-17 -17 -16 -32h-23z
" />
    <glyph glyph-name="uni1EBC" unicode="&#x1ebc;" horiz-adv-x="547" 
d="M77 740h406v-27h-376v-327h376v-27h-376v-332h376v-27h-406v740zM256 842q-31 22 -59 12q-29 -11 -29 -44h-30q0 54 46 70q42 16 81 -11l40 -27q34 -24 61 -13q28 12 28 45h29q0 -56 -43 -72q-40 -16 -84 12z" />
    <glyph glyph-name="uni1EBD" unicode="&#x1ebd;" horiz-adv-x="619" 
d="M60 262q2 -120 87 -190q74 -60 164 -59q74 0 134 36q61 37 92 104h31q-34 -81 -107 -126q-67 -40 -151 -40q-138 0 -214 94q-65 80 -65 183q0 120 81 199q80 80 199 80q110 0 190 -71q95 -85 87 -210h-528zM560 288q-5 96 -80 164q-75 69 -169 65q-101 0 -171 -64
q-73 -66 -79 -165h499zM285 647q-31 22 -59 12q-29 -11 -29 -44h-30q0 54 46 70q42 16 81 -11l40 -27q34 -24 61 -13q28 12 28 45h29q0 -56 -43 -72q-40 -16 -84 12z" />
    <glyph glyph-name="uni1EBE" unicode="&#x1ebe;" horiz-adv-x="547" 
d="M77 740h406v-27h-376v-327h376v-27h-376v-332h376v-27h-406v740zM406 798h-45l-82 68l-80 -68h-45l111 90h28zM562 980l14 -23l-172 -102l-13 23z" />
    <glyph glyph-name="uni1EBF" unicode="&#x1ebf;" horiz-adv-x="619" 
d="M60 262q2 -120 87 -190q74 -60 164 -59q74 0 134 36q61 37 92 104h31q-34 -81 -107 -126q-67 -40 -151 -40q-138 0 -214 94q-65 80 -65 183q0 120 81 199q80 80 199 80q110 0 190 -71q95 -85 87 -210h-528zM560 288q-5 96 -80 164q-75 69 -169 65q-101 0 -171 -64
q-73 -66 -79 -165h499zM436 608h-45l-82 68l-80 -68h-45l111 90h28zM620 778l14 -23l-172 -102l-13 23z" />
    <glyph glyph-name="uni1EC0" unicode="&#x1ec0;" horiz-adv-x="547" 
d="M77 740h406v-27h-376v-327h376v-27h-376v-332h376v-27h-406v740zM406 800h-45l-82 68l-80 -68h-45l111 90h28zM407 924l-13 -23l-175 100l14 23z" />
    <glyph glyph-name="uni1EC1" unicode="&#x1ec1;" horiz-adv-x="619" 
d="M60 262q2 -120 87 -190q74 -60 164 -59q74 0 134 36q61 37 92 104h31q-34 -81 -107 -126q-67 -40 -151 -40q-138 0 -214 94q-65 80 -65 183q0 120 81 199q80 80 199 80q110 0 190 -71q95 -85 87 -210h-528zM560 288q-5 96 -80 164q-75 69 -169 65q-101 0 -171 -64
q-73 -66 -79 -165h499zM436 608h-45l-82 68l-80 -68h-45l111 90h28zM440 741l-13 -23l-175 100l14 23z" />
    <glyph glyph-name="uni1EC2" unicode="&#x1ec2;" horiz-adv-x="547" 
d="M77 740h406v-27h-376v-327h376v-27h-376v-332h376v-27h-406v740zM412 798h-45l-82 68l-80 -68h-45l111 90h28zM414 874q0 18 19 37q8 8 14 14.5t9 10.5q8 13 10 29q0 21 -14 35q-13 15 -36 15q-20 0 -34 -12q-13 -13 -18 -36h-24q2 32 26 52q23 18 52 18q32 0 53 -21
q20 -20 20 -47q0 -17 -11 -34q-2 -4 -5.5 -7.5l-7.5 -7.5l-7 -7l-7 -7q-17 -17 -16 -32h-23z" />
    <glyph glyph-name="uni1EC3" unicode="&#x1ec3;" horiz-adv-x="619" 
d="M60 262q2 -120 87 -190q74 -60 164 -59q74 0 134 36q61 37 92 104h31q-34 -81 -107 -126q-67 -40 -151 -40q-138 0 -214 94q-65 80 -65 183q0 120 81 199q80 80 199 80q110 0 190 -71q95 -85 87 -210h-528zM560 288q-5 96 -80 164q-75 69 -169 65q-101 0 -171 -64
q-73 -66 -79 -165h499zM436 608h-45l-82 68l-80 -68h-45l111 90h28zM440 653q0 18 19 37q8 8 14 14.5t9 10.5q8 13 10 29q0 21 -14 35q-13 15 -36 15q-20 0 -34 -12q-13 -13 -18 -36h-24q2 32 26 52q23 18 52 18q32 0 53 -21q20 -20 20 -47q0 -17 -11 -34q-2 -4 -5.5 -7.5
l-7.5 -7.5l-7 -7l-7 -7q-17 -17 -16 -32h-23z" />
    <glyph glyph-name="uni1EC4" unicode="&#x1ec4;" horiz-adv-x="547" 
d="M77 740h406v-27h-376v-327h376v-27h-376v-332h376v-27h-406v740zM408 799h-45l-82 68l-80 -68h-45l111 90h28zM339 967q-31 22 -59 12q-29 -11 -29 -44h-30q0 54 46 70q42 16 81 -11l40 -27q34 -24 61 -13q28 12 28 45h29q0 -56 -43 -72q-40 -16 -84 12z" />
    <glyph glyph-name="uni1EC5" unicode="&#x1ec5;" horiz-adv-x="619" 
d="M60 262q2 -120 87 -190q74 -60 164 -59q74 0 134 36q61 37 92 104h31q-34 -81 -107 -126q-67 -40 -151 -40q-138 0 -214 94q-65 80 -65 183q0 120 81 199q80 80 199 80q110 0 190 -71q95 -85 87 -210h-528zM560 288q-5 96 -80 164q-75 69 -169 65q-101 0 -171 -64
q-73 -66 -79 -165h499zM436 608h-45l-82 68l-80 -68h-45l111 90h28zM285 767q-31 22 -59 12q-29 -11 -29 -44h-30q0 54 46 70q42 16 81 -11l40 -27q34 -24 61 -13q28 12 28 45h29q0 -56 -43 -72q-40 -16 -84 12z" />
    <glyph glyph-name="uni1EC6" unicode="&#x1ec6;" horiz-adv-x="547" 
d="M77 740h406v-27h-376v-327h376v-27h-376v-332h376v-27h-406v740zM406 803h-45l-82 68l-80 -68h-45l111 90h28zM295 -215h-30v81h30v-81z" />
    <glyph glyph-name="uni1EC7" unicode="&#x1ec7;" horiz-adv-x="619" 
d="M60 262q2 -120 87 -190q74 -60 164 -59q74 0 134 36q61 37 92 104h31q-34 -81 -107 -126q-67 -40 -151 -40q-138 0 -214 94q-65 80 -65 183q0 120 81 199q80 80 199 80q110 0 190 -71q95 -85 87 -210h-528zM560 288q-5 96 -80 164q-75 69 -169 65q-101 0 -171 -64
q-73 -66 -79 -165h499zM436 608h-45l-82 68l-80 -68h-45l111 90h28zM325 -215h-30v81h30v-81z" />
    <glyph glyph-name="uni1EC8" unicode="&#x1ec8;" horiz-adv-x="185" 
d="M77 740h30v-740h-30v740zM77 817q0 18 19 37q8 8 14 14.5t9 10.5q8 13 10 29q0 21 -14 35q-13 15 -36 15q-20 0 -34 -12q-13 -13 -18 -36h-24q2 32 26 52q23 18 52 18q32 0 53 -21q20 -20 20 -47q0 -17 -11 -34q-2 -4 -5.5 -7.5l-7.5 -7.5l-7 -7l-7 -7q-17 -17 -16 -32
h-23z" />
    <glyph glyph-name="uni1EC9" unicode="&#x1ec9;" horiz-adv-x="184" 
d="M78 530h28v-530h-28v530zM77 622q0 18 19 37q8 8 14 14.5t9 10.5q8 13 10 29q0 21 -14 35q-13 15 -36 15q-20 0 -34 -12q-13 -13 -18 -36h-24q2 32 26 52q23 18 52 18q32 0 53 -21q20 -20 20 -47q0 -17 -11 -34q-2 -4 -5.5 -7.5l-7.5 -7.5l-7 -7l-7 -7q-17 -17 -16 -32
h-23z" />
    <glyph glyph-name="uni1ECA" unicode="&#x1eca;" horiz-adv-x="185" 
d="M77 740h30v-740h-30v740zM107 -215h-30v81h30v-81z" />
    <glyph glyph-name="uni1ECB" unicode="&#x1ecb;" horiz-adv-x="184" 
d="M78 740h28v-91h-28v91zM78 530h28v-530h-28v530zM107 -215h-30v81h30v-81z" />
    <glyph glyph-name="uni1ECC" unicode="&#x1ecc;" horiz-adv-x="851" 
d="M41 371q0 164 113 274q110 108 271 108t272 -108q112 -109 112 -275t-112 -275q-111 -108 -272 -108t-271 108q-113 110 -113 275v1zM71 369q0 -152 104 -254q103 -101 250 -101t251 101q103 103 103 255t-103 255q-104 101 -251 101t-250 -101q-104 -104 -104 -255v-1z
M440 -215h-30v81h30v-81z" />
    <glyph glyph-name="uni1ECD" unicode="&#x1ecd;" horiz-adv-x="641" 
d="M41 266q0 117 80 197t199 80t199 -80t80 -198q0 -119 -80 -199q-79 -79 -199 -79t-199 79q-80 80 -80 199v1zM69 264q0 -107 72 -179t179 -72t179 72t72 180t-72 180t-179 72t-179 -72t-72 -180v-1zM335 -215h-30v81h30v-81z" />
    <glyph glyph-name="uni1ECE" unicode="&#x1ece;" horiz-adv-x="851" 
d="M41 371q0 164 113 274q110 108 271 108t272 -108q112 -109 112 -275t-112 -275q-111 -108 -272 -108t-271 108q-113 110 -113 275v1zM71 369q0 -152 104 -254q103 -101 250 -101t251 101q103 103 103 255t-103 255q-104 101 -251 101t-250 -101q-104 -104 -104 -255v-1z
M410 817q0 18 19 37q8 8 14 14.5t9 10.5q8 13 10 29q0 21 -14 35q-13 15 -36 15q-20 0 -34 -12q-13 -13 -18 -36h-24q2 32 26 52q23 18 52 18q32 0 53 -21q20 -20 20 -47q0 -17 -11 -34q-2 -4 -5.5 -7.5l-7.5 -7.5l-7 -7l-7 -7q-17 -17 -16 -32h-23z" />
    <glyph glyph-name="uni1ECF" unicode="&#x1ecf;" horiz-adv-x="641" 
d="M41 266q0 117 80 197t199 80t199 -80t80 -198q0 -119 -80 -199q-79 -79 -199 -79t-199 79q-80 80 -80 199v1zM69 264q0 -107 72 -179t179 -72t179 72t72 180t-72 180t-179 72t-179 -72t-72 -180v-1zM305 622q0 18 19 37q8 8 14 14.5t9 10.5q8 13 10 29q0 21 -14 35
q-13 15 -36 15q-20 0 -34 -12q-13 -13 -18 -36h-24q2 32 26 52q23 18 52 18q32 0 53 -21q20 -20 20 -47q0 -17 -11 -34q-2 -4 -5.5 -7.5l-7.5 -7.5l-7 -7l-7 -7q-17 -17 -16 -32h-23z" />
    <glyph glyph-name="uni1ED0" unicode="&#x1ed0;" horiz-adv-x="851" 
d="M41 371q0 164 113 274q110 108 271 108t272 -108q112 -109 112 -275t-112 -275q-111 -108 -272 -108t-271 108q-113 110 -113 275v1zM71 369q0 -152 104 -254q103 -101 250 -101t251 101q103 103 103 255t-103 255q-104 101 -251 101t-250 -101q-104 -104 -104 -255v-1z
M551 798h-45l-82 68l-80 -68h-45l111 90h28zM707 980l14 -23l-172 -102l-13 23z" />
    <glyph glyph-name="uni1ED1" unicode="&#x1ed1;" horiz-adv-x="641" 
d="M41 266q0 117 80 197t199 80t199 -80t80 -198q0 -119 -80 -199q-79 -79 -199 -79t-199 79q-80 80 -80 199v1zM69 264q0 -107 72 -179t179 -72t179 72t72 180t-72 180t-179 72t-179 -72t-72 -180v-1zM446 608h-45l-82 68l-80 -68h-45l111 90h28zM598 799l14 -23l-172 -102
l-13 23z" />
    <glyph glyph-name="uni1ED2" unicode="&#x1ed2;" horiz-adv-x="851" 
d="M41 371q0 164 113 274q110 108 271 108t272 -108q112 -109 112 -275t-112 -275q-111 -108 -272 -108t-271 108q-113 110 -113 275v1zM71 369q0 -152 104 -254q103 -101 250 -101t251 101q103 103 103 255t-103 255q-104 101 -251 101t-250 -101q-104 -104 -104 -255v-1z
M551 800h-45l-82 68l-80 -68h-45l111 90h28zM552 924l-13 -23l-175 100l14 23z" />
    <glyph glyph-name="uni1ED3" unicode="&#x1ed3;" horiz-adv-x="641" 
d="M41 266q0 117 80 197t199 80t199 -80t80 -198q0 -119 -80 -199q-79 -79 -199 -79t-199 79q-80 80 -80 199v1zM69 264q0 -107 72 -179t179 -72t179 72t72 180t-72 180t-179 72t-179 -72t-72 -180v-1zM446 608h-45l-82 68l-80 -68h-45l111 90h28zM428 747l-13 -23l-175 100
l14 23z" />
    <glyph glyph-name="uni1ED4" unicode="&#x1ed4;" horiz-adv-x="851" 
d="M41 371q0 164 113 274q110 108 271 108t272 -108q112 -109 112 -275t-112 -275q-111 -108 -272 -108t-271 108q-113 110 -113 275v1zM71 369q0 -152 104 -254q103 -101 250 -101t251 101q103 103 103 255t-103 255q-104 101 -251 101t-250 -101q-104 -104 -104 -255v-1z
M557 798h-45l-82 68l-80 -68h-45l111 90h28zM559 874q0 18 19 37q8 8 14 14.5t9 10.5q8 13 10 29q0 21 -14 35q-13 15 -36 15q-20 0 -34 -12q-13 -13 -18 -36h-24q2 32 26 52q23 18 52 18q32 0 53 -21q20 -20 20 -47q0 -17 -11 -34q-2 -4 -5.5 -7.5l-7.5 -7.5l-7 -7l-7 -7
q-17 -17 -16 -32h-23z" />
    <glyph glyph-name="uni1ED5" unicode="&#x1ed5;" horiz-adv-x="641" 
d="M41 266q0 117 80 197t199 80t199 -80t80 -198q0 -119 -80 -199q-79 -79 -199 -79t-199 79q-80 80 -80 199v1zM69 264q0 -107 72 -179t179 -72t179 72t72 180t-72 180t-179 72t-179 -72t-72 -180v-1zM446 608h-45l-82 68l-80 -68h-45l111 90h28zM450 653q0 18 19 37
q8 8 14 14.5t9 10.5q8 13 10 29q0 21 -14 35q-13 15 -36 15q-20 0 -34 -12q-13 -13 -18 -36h-24q2 32 26 52q23 18 52 18q32 0 53 -21q20 -20 20 -47q0 -17 -11 -34q-2 -4 -5.5 -7.5l-7.5 -7.5l-7 -7l-7 -7q-17 -17 -16 -32h-23z" />
    <glyph glyph-name="uni1ED6" unicode="&#x1ed6;" horiz-adv-x="851" 
d="M41 371q0 164 113 274q110 108 271 108t272 -108q112 -109 112 -275t-112 -275q-111 -108 -272 -108t-271 108q-113 110 -113 275v1zM71 369q0 -152 104 -254q103 -101 250 -101t251 101q103 103 103 255t-103 255q-104 101 -251 101t-250 -101q-104 -104 -104 -255v-1z
M553 799h-45l-82 68l-80 -68h-45l111 90h28zM484 967q-31 22 -59 12q-29 -11 -29 -44h-30q0 54 46 70q42 16 81 -11l40 -27q34 -24 61 -13q28 12 28 45h29q0 -56 -43 -72q-40 -16 -84 12z" />
    <glyph glyph-name="uni1ED7" unicode="&#x1ed7;" horiz-adv-x="641" 
d="M41 266q0 117 80 197t199 80t199 -80t80 -198q0 -119 -80 -199q-79 -79 -199 -79t-199 79q-80 80 -80 199v1zM69 264q0 -107 72 -179t179 -72t179 72t72 180t-72 180t-179 72t-179 -72t-72 -180v-1zM446 608h-45l-82 68l-80 -68h-45l111 90h28zM296 767q-31 22 -59 12
q-29 -11 -29 -44h-30q0 54 46 70q42 16 81 -11l40 -27q34 -24 61 -13q28 12 28 45h29q0 -56 -43 -72q-40 -16 -84 12z" />
    <glyph glyph-name="uni1ED8" unicode="&#x1ed8;" horiz-adv-x="851" 
d="M41 371q0 164 113 274q110 108 271 108t272 -108q112 -109 112 -275t-112 -275q-111 -108 -272 -108t-271 108q-113 110 -113 275v1zM71 369q0 -152 104 -254q103 -101 250 -101t251 101q103 103 103 255t-103 255q-104 101 -251 101t-250 -101q-104 -104 -104 -255v-1z
M551 803h-45l-82 68l-80 -68h-45l111 90h28zM440 -215h-30v81h30v-81z" />
    <glyph glyph-name="uni1ED9" unicode="&#x1ed9;" horiz-adv-x="641" 
d="M41 266q0 117 80 197t199 80t199 -80t80 -198q0 -119 -80 -199q-79 -79 -199 -79t-199 79q-80 80 -80 199v1zM69 264q0 -107 72 -179t179 -72t179 72t72 180t-72 180t-179 72t-179 -72t-72 -180v-1zM446 608h-45l-82 68l-80 -68h-45l111 90h28zM335 -215h-30v81h30v-81z
" />
    <glyph glyph-name="uni1EDA" unicode="&#x1eda;" horiz-adv-x="851" 
d="M71 369q0 -152 104 -254q103 -101 250 -101t251 101q103 103 103 255t-103 255q-104 101 -251 101t-250 -101q-104 -104 -104 -255v-1zM581 723q64 -27 116 -78q112 -109 112 -275t-112 -275q-111 -108 -272 -108t-271 108q-113 110 -113 275v1q0 164 113 274
q110 108 271 108q56 0 109 -14q35 1 64 26q39 32 40 91h28q0 -46 -23 -81q-23 -37 -62 -52zM521 951l14 -23l-172 -102l-13 23z" />
    <glyph glyph-name="uni1EDB" unicode="&#x1edb;" horiz-adv-x="641" 
d="M69 264q0 -107 72 -179t179 -72t179 72t72 180t-72 180t-179 72t-179 -72t-72 -180v-1zM457 510q33 -18 62 -47q80 -80 80 -198q0 -119 -80 -199q-79 -79 -199 -79t-199 79q-80 80 -80 199v1q0 117 80 197t199 80q52 0 95 -15q36 1 65 26q39 32 40 91h28q0 -46 -23 -81
q-25 -40 -68 -54zM448 765l14 -23l-172 -102l-13 23z" />
    <glyph glyph-name="uni1EDC" unicode="&#x1edc;" horiz-adv-x="851" 
d="M71 369q0 -152 104 -254q103 -101 250 -101t251 101q103 103 103 255t-103 255q-104 101 -251 101t-250 -101q-104 -104 -104 -255v-1zM581 723q64 -27 116 -78q112 -109 112 -275t-112 -275q-111 -108 -272 -108t-271 108q-113 110 -113 275v1q0 164 113 274
q110 108 271 108q56 0 109 -14q35 1 64 26q39 32 40 91h28q0 -46 -23 -81q-23 -37 -62 -52zM503 843l-13 -23l-175 100l14 23z" />
    <glyph glyph-name="uni1EDD" unicode="&#x1edd;" horiz-adv-x="641" 
d="M69 264q0 -107 72 -179t179 -72t179 72t72 180t-72 180t-179 72t-179 -72t-72 -180v-1zM457 510q33 -18 62 -47q80 -80 80 -198q0 -119 -80 -199q-79 -79 -199 -79t-199 79q-80 80 -80 199v1q0 117 80 197t199 80q52 0 95 -15q36 1 65 26q39 32 40 91h28q0 -46 -23 -81
q-25 -40 -68 -54zM341 613l-13 -23l-175 100l14 23z" />
    <glyph glyph-name="uni1EDE" unicode="&#x1ede;" horiz-adv-x="851" 
d="M71 369q0 -152 104 -254q103 -101 250 -101t251 101q103 103 103 255t-103 255q-104 101 -251 101t-250 -101q-104 -104 -104 -255v-1zM581 723q64 -27 116 -78q112 -109 112 -275t-112 -275q-111 -108 -272 -108t-271 108q-113 110 -113 275v1q0 164 113 274
q110 108 271 108q56 0 109 -14q35 1 64 26q39 32 40 91h28q0 -46 -23 -81q-23 -37 -62 -52zM410 817q0 18 19 37q8 8 14 14.5t9 10.5q8 13 10 29q0 21 -14 35q-13 15 -36 15q-20 0 -34 -12q-13 -13 -18 -36h-24q2 32 26 52q23 18 52 18q32 0 53 -21q20 -20 20 -47
q0 -17 -11 -34q-2 -4 -5.5 -7.5l-7.5 -7.5l-7 -7l-7 -7q-17 -17 -16 -32h-23z" />
    <glyph glyph-name="uni1EDF" unicode="&#x1edf;" horiz-adv-x="641" 
d="M69 264q0 -107 72 -179t179 -72t179 72t72 180t-72 180t-179 72t-179 -72t-72 -180v-1zM457 510q33 -18 62 -47q80 -80 80 -198q0 -119 -80 -199q-79 -79 -199 -79t-199 79q-80 80 -80 199v1q0 117 80 197t199 80q52 0 95 -15q36 1 65 26q39 32 40 91h28q0 -46 -23 -81
q-25 -40 -68 -54zM288 622q0 18 19 37q8 8 14 14.5t9 10.5q8 13 10 29q0 21 -14 35q-13 15 -36 15q-20 0 -34 -12q-13 -13 -18 -36h-24q2 32 26 52q23 18 52 18q32 0 53 -21q20 -20 20 -47q0 -17 -11 -34q-2 -4 -5.5 -7.5l-7.5 -7.5l-7 -7l-7 -7q-17 -17 -16 -32h-23z" />
    <glyph glyph-name="uni1EE0" unicode="&#x1ee0;" horiz-adv-x="851" 
d="M71 369q0 -152 104 -254q103 -101 250 -101t251 101q103 103 103 255t-103 255q-104 101 -251 101t-250 -101q-104 -104 -104 -255v-1zM581 723q64 -27 116 -78q112 -109 112 -275t-112 -275q-111 -108 -272 -108t-271 108q-113 110 -113 275v1q0 164 113 274
q110 108 271 108q56 0 109 -14q35 1 64 26q39 32 40 91h28q0 -46 -23 -81q-23 -37 -62 -52zM406 872q-31 22 -59 12q-29 -11 -29 -44h-30q0 54 46 70q42 16 81 -11l40 -27q34 -24 61 -13q28 12 28 45h29q0 -56 -43 -72q-40 -16 -84 12z" />
    <glyph glyph-name="uni1EE1" unicode="&#x1ee1;" horiz-adv-x="641" 
d="M69 264q0 -107 72 -179t179 -72t179 72t72 180t-72 180t-179 72t-179 -72t-72 -180v-1zM457 510q33 -18 62 -47q80 -80 80 -198q0 -119 -80 -199q-79 -79 -199 -79t-199 79q-80 80 -80 199v1q0 117 80 197t199 80q52 0 95 -15q36 1 65 26q39 32 40 91h28q0 -46 -23 -81
q-25 -40 -68 -54zM301 698q-31 22 -59 12q-29 -11 -29 -44h-30q0 54 46 70q42 16 81 -11l40 -27q34 -24 61 -13q28 12 28 45h29q0 -56 -43 -72q-40 -16 -84 12z" />
    <glyph glyph-name="uni1EE2" unicode="&#x1ee2;" horiz-adv-x="851" 
d="M71 369q0 -152 104 -254q103 -101 250 -101t251 101q103 103 103 255t-103 255q-104 101 -251 101t-250 -101q-104 -104 -104 -255v-1zM581 723q64 -27 116 -78q112 -109 112 -275t-112 -275q-111 -108 -272 -108t-271 108q-113 110 -113 275v1q0 164 113 274
q110 108 271 108q56 0 109 -14q35 1 64 26q39 32 40 91h28q0 -46 -23 -81q-23 -37 -62 -52zM440 -215h-30v81h30v-81z" />
    <glyph glyph-name="uni1EE3" unicode="&#x1ee3;" horiz-adv-x="641" 
d="M69 264q0 -107 72 -179t179 -72t179 72t72 180t-72 180t-179 72t-179 -72t-72 -180v-1zM457 510q33 -18 62 -47q80 -80 80 -198q0 -119 -80 -199q-79 -79 -199 -79t-199 79q-80 80 -80 199v1q0 117 80 197t199 80q52 0 95 -15q36 1 65 26q39 32 40 91h28q0 -46 -23 -81
q-25 -40 -68 -54zM298 -215h-30v81h30v-81z" />
    <glyph glyph-name="uni1EE4" unicode="&#x1ee4;" horiz-adv-x="605" 
d="M106 740v-480q0 -64 6 -93q9 -46 40 -85q53 -68 152 -68q96 0 149 68q31 39 40 85q6 29 6 93v480h30v-480v-30t-1 -25q-3 -36 -10 -61q-21 -71 -78 -112q-61 -45 -138 -45q-75 0 -137 45q-58 41 -77 112q-4 14 -6.5 29t-4.5 32q-1 11 -1 25v30v480h30zM318 -215h-30v81
h30v-81z" />
    <glyph glyph-name="uni1EE5" unicode="&#x1ee5;" horiz-adv-x="641" 
d="M563 0h-28v64t1 51q-25 -66 -89 -99q-57 -31 -133 -29q-116 3 -178 71q-59 67 -59 187v285h28v-285q0 -109 53 -170q56 -63 162 -62q97 1 155 55q60 56 60 157v305h28v-530zM335 -215h-30v81h30v-81z" />
    <glyph glyph-name="uni1EE6" unicode="&#x1ee6;" horiz-adv-x="605" 
d="M106 740v-480q0 -64 6 -93q9 -46 40 -85q53 -68 152 -68q96 0 149 68q31 39 40 85q6 29 6 93v480h30v-480v-30t-1 -25q-3 -36 -10 -61q-21 -71 -78 -112q-61 -45 -138 -45q-75 0 -137 45q-58 41 -77 112q-4 14 -6.5 29t-4.5 32q-1 11 -1 25v30v480h30zM287 817
q0 18 19 37q8 8 14 14.5t9 10.5q8 13 10 29q0 21 -14 35q-13 15 -36 15q-20 0 -34 -12q-13 -13 -18 -36h-24q2 32 26 52q23 18 52 18q32 0 53 -21q20 -20 20 -47q0 -17 -11 -34q-2 -4 -5.5 -7.5l-7.5 -7.5l-7 -7l-7 -7q-17 -17 -16 -32h-23z" />
    <glyph glyph-name="uni1EE7" unicode="&#x1ee7;" horiz-adv-x="641" 
d="M563 0h-28v64t1 51q-25 -66 -89 -99q-57 -31 -133 -29q-116 3 -178 71q-59 67 -59 187v285h28v-285q0 -109 53 -170q56 -63 162 -62q97 1 155 55q60 56 60 157v305h28v-530zM305 622q0 18 19 37q8 8 14 14.5t9 10.5q8 13 10 29q0 21 -14 35q-13 15 -36 15q-20 0 -34 -12
q-13 -13 -18 -36h-24q2 32 26 52q23 18 52 18q32 0 53 -21q20 -20 20 -47q0 -17 -11 -34q-2 -4 -5.5 -7.5l-7.5 -7.5l-7 -7l-7 -7q-17 -17 -16 -32h-23z" />
    <glyph glyph-name="uni1EE8" unicode="&#x1ee8;" horiz-adv-x="605" 
d="M529 715v-455v-30t-1 -25q-3 -36 -10 -61q-21 -71 -78 -112q-61 -45 -138 -45q-75 0 -137 45q-58 41 -77 112q-4 14 -6.5 29t-4.5 32q-1 11 -1 25v30v480h30v-480q0 -64 6 -93q9 -46 40 -85q53 -68 152 -68q96 0 149 68q31 39 40 85q6 29 6 93v480h24q31 4 56 25
q39 32 40 91h28q0 -46 -23 -81q-33 -52 -95 -60zM388 924l14 -23l-172 -102l-13 23z" />
    <glyph glyph-name="uni1EE9" unicode="&#x1ee9;" horiz-adv-x="641" 
d="M563 505v-505h-28v64t1 51q-25 -66 -89 -99q-57 -31 -133 -29q-116 3 -178 71q-59 67 -59 187v285h28v-285q0 -109 53 -170q56 -63 162 -62q97 1 155 55q60 56 60 157v305h24q26 4 49 24q39 32 40 91h28q0 -46 -23 -81q-32 -50 -90 -59zM424 715l14 -23l-172 -102l-13 23
z" />
    <glyph glyph-name="uni1EEA" unicode="&#x1eea;" horiz-adv-x="605" 
d="M529 715v-455v-30t-1 -25q-3 -36 -10 -61q-21 -71 -78 -112q-61 -45 -138 -45q-75 0 -137 45q-58 41 -77 112q-4 14 -6.5 29t-4.5 32q-1 11 -1 25v30v480h30v-480q0 -64 6 -93q9 -46 40 -85q53 -68 152 -68q96 0 149 68q31 39 40 85q6 29 6 93v480h24q31 4 56 25
q39 32 40 91h28q0 -46 -23 -81q-33 -52 -95 -60zM383 822l-13 -23l-175 100l14 23z" />
    <glyph glyph-name="uni1EEB" unicode="&#x1eeb;" horiz-adv-x="641" 
d="M563 505v-505h-28v64t1 51q-25 -66 -89 -99q-57 -31 -133 -29q-116 3 -178 71q-59 67 -59 187v285h28v-285q0 -109 53 -170q56 -63 162 -62q97 1 155 55q60 56 60 157v305h24q26 4 49 24q39 32 40 91h28q0 -46 -23 -81q-32 -50 -90 -59zM415 613l-13 -23l-175 100l14 23z
" />
    <glyph glyph-name="uni1EEC" unicode="&#x1eec;" horiz-adv-x="605" 
d="M529 715v-455v-30t-1 -25q-3 -36 -10 -61q-21 -71 -78 -112q-61 -45 -138 -45q-75 0 -137 45q-58 41 -77 112q-4 14 -6.5 29t-4.5 32q-1 11 -1 25v30v480h30v-480q0 -64 6 -93q9 -46 40 -85q53 -68 152 -68q96 0 149 68q31 39 40 85q6 29 6 93v480h24q31 4 56 25
q39 32 40 91h28q0 -46 -23 -81q-33 -52 -95 -60zM291 799q0 18 19 37q8 8 14 14.5t9 10.5q8 13 10 29q0 21 -14 35q-13 15 -36 15q-20 0 -34 -12q-13 -13 -18 -36h-24q2 32 26 52q23 18 52 18q32 0 53 -21q20 -20 20 -47q0 -17 -11 -34q-2 -4 -5.5 -7.5l-7.5 -7.5l-7 -7
l-7 -7q-17 -17 -16 -32h-23z" />
    <glyph glyph-name="uni1EED" unicode="&#x1eed;" horiz-adv-x="641" 
d="M563 505v-505h-28v64t1 51q-25 -66 -89 -99q-57 -31 -133 -29q-116 3 -178 71q-59 67 -59 187v285h28v-285q0 -109 53 -170q56 -63 162 -62q97 1 155 55q60 56 60 157v305h24q26 4 49 24q39 32 40 91h28q0 -46 -23 -81q-32 -50 -90 -59zM315 622q0 18 19 37q8 8 14 14.5
t9 10.5q8 13 10 29q0 21 -14 35q-13 15 -36 15q-20 0 -34 -12q-13 -13 -18 -36h-24q2 32 26 52q23 18 52 18q32 0 53 -21q20 -20 20 -47q0 -17 -11 -34q-2 -4 -5.5 -7.5l-7.5 -7.5l-7 -7l-7 -7q-17 -17 -16 -32h-23z" />
    <glyph glyph-name="uni1EEE" unicode="&#x1eee;" horiz-adv-x="605" 
d="M529 715v-455v-30t-1 -25q-3 -36 -10 -61q-21 -71 -78 -112q-61 -45 -138 -45q-75 0 -137 45q-58 41 -77 112q-4 14 -6.5 29t-4.5 32q-1 11 -1 25v30v480h30v-480q0 -64 6 -93q9 -46 40 -85q53 -68 152 -68q96 0 149 68q31 39 40 85q6 29 6 93v480h24q31 4 56 25
q39 32 40 91h28q0 -46 -23 -81q-33 -52 -95 -60zM288 845q-31 22 -59 12q-29 -11 -29 -44h-30q0 54 46 70q42 16 81 -11l40 -27q34 -24 61 -13q28 12 28 45h29q0 -56 -43 -72q-40 -16 -84 12z" />
    <glyph glyph-name="uni1EEF" unicode="&#x1eef;" horiz-adv-x="641" 
d="M563 505v-505h-28v64t1 51q-25 -66 -89 -99q-57 -31 -133 -29q-116 3 -178 71q-59 67 -59 187v285h28v-285q0 -109 53 -170q56 -63 162 -62q97 1 155 55q60 56 60 157v305h24q26 4 49 24q39 32 40 91h28q0 -46 -23 -81q-32 -50 -90 -59zM292 647q-31 22 -59 12
q-29 -11 -29 -44h-30q0 54 46 70q42 16 81 -11l40 -27q34 -24 61 -13q28 12 28 45h29q0 -56 -43 -72q-40 -16 -84 12z" />
    <glyph glyph-name="uni1EF0" unicode="&#x1ef0;" horiz-adv-x="605" 
d="M529 715v-455v-30t-1 -25q-3 -36 -10 -61q-21 -71 -78 -112q-61 -45 -138 -45q-75 0 -137 45q-58 41 -77 112q-4 14 -6.5 29t-4.5 32q-1 11 -1 25v30v480h30v-480q0 -64 6 -93q9 -46 40 -85q53 -68 152 -68q96 0 149 68q31 39 40 85q6 29 6 93v480h24q31 4 56 25
q39 32 40 91h28q0 -46 -23 -81q-33 -52 -95 -60zM325 -215h-30v81h30v-81z" />
    <glyph glyph-name="uni1EF1" unicode="&#x1ef1;" horiz-adv-x="641" 
d="M563 505v-505h-28v64t1 51q-25 -66 -89 -99q-57 -31 -133 -29q-116 3 -178 71q-59 67 -59 187v285h28v-285q0 -109 53 -170q56 -63 162 -62q97 1 155 55q60 56 60 157v305h24q26 4 49 24q39 32 40 91h28q0 -46 -23 -81q-32 -50 -90 -59zM375 -215h-30v81h30v-81z" />
    <glyph glyph-name="Ygrave" unicode="&#x1ef2;" horiz-adv-x="554" 
d="M262 255l-247 485h33l229 -451l228 451h34l-247 -485v-255h-30v255zM340 808l-13 -23l-175 100l14 23z" />
    <glyph glyph-name="ygrave" unicode="&#x1ef3;" horiz-adv-x="481" 
d="M221 1l-210 529h31l196 -491l209 491h33l-321 -743h-32zM308 613l-13 -23l-175 100l14 23z" />
    <glyph glyph-name="uni1EF4" unicode="&#x1ef4;" horiz-adv-x="554" 
d="M262 255l-247 485h33l229 -451l228 451h34l-247 -485v-255h-30v255zM292 -215h-30v81h30v-81z" />
    <glyph glyph-name="uni1EF5" unicode="&#x1ef5;" horiz-adv-x="481" 
d="M221 1l-210 529h31l196 -491l209 491h33l-321 -743h-32zM359 -215h-30v81h30v-81z" />
    <glyph glyph-name="uni1EF6" unicode="&#x1ef6;" horiz-adv-x="554" 
d="M262 255l-247 485h33l229 -451l228 451h34l-247 -485v-255h-30v255zM262 817q0 18 19 37q8 8 14 14.5t9 10.5q8 13 10 29q0 21 -14 35q-13 15 -36 15q-20 0 -34 -12q-13 -13 -18 -36h-24q2 32 26 52q23 18 52 18q32 0 53 -21q20 -20 20 -47q0 -17 -11 -34
q-2 -4 -5.5 -7.5l-7.5 -7.5l-7 -7l-7 -7q-17 -17 -16 -32h-23z" />
    <glyph glyph-name="uni1EF7" unicode="&#x1ef7;" horiz-adv-x="481" 
d="M221 1l-210 529h31l196 -491l209 491h33l-321 -743h-32zM230 622q0 18 19 37q8 8 14 14.5t9 10.5q8 13 10 29q0 21 -14 35q-13 15 -36 15q-20 0 -34 -12q-13 -13 -18 -36h-24q2 32 26 52q23 18 52 18q32 0 53 -21q20 -20 20 -47q0 -17 -11 -34q-2 -4 -5.5 -7.5l-7.5 -7.5
l-7 -7l-7 -7q-17 -17 -16 -32h-23z" />
    <glyph glyph-name="uni1EF8" unicode="&#x1ef8;" horiz-adv-x="554" 
d="M262 255l-247 485h33l229 -451l228 451h34l-247 -485v-255h-30v255zM253 842q-31 22 -59 12q-29 -11 -29 -44h-30q0 54 46 70q42 16 81 -11l40 -27q34 -24 61 -13q28 12 28 45h29q0 -56 -43 -72q-40 -16 -84 12z" />
    <glyph glyph-name="uni1EF9" unicode="&#x1ef9;" horiz-adv-x="481" 
d="M221 1l-210 529h31l196 -491l209 491h33l-321 -743h-32zM221 647q-31 22 -59 12q-29 -11 -29 -44h-30q0 54 46 70q42 16 81 -11l40 -27q34 -24 61 -13q28 12 28 45h29q0 -56 -43 -72q-40 -16 -84 12z" />
    <glyph glyph-name="uni2010" unicode="&#x2010;" horiz-adv-x="266" 
d="M266 291v-29h-266v29h266z" />
    <glyph glyph-name="endash" unicode="&#x2013;" horiz-adv-x="500" 
d="M465 291v-29h-430v29h430z" />
    <glyph glyph-name="emdash" unicode="&#x2014;" horiz-adv-x="1000" 
d="M965 291v-29h-930v29h930z" />
    <glyph glyph-name="quoteleft" unicode="&#x2018;" horiz-adv-x="277" 
d="M187 586h-33l-64 154h33z" />
    <glyph glyph-name="quoteright" unicode="&#x2019;" horiz-adv-x="277" 
d="M154 740h33l-64 -154h-33z" />
    <glyph glyph-name="quotesinglbase" unicode="&#x201a;" horiz-adv-x="277" 
d="M154 82h33l-64 -154h-33z" />
    <glyph glyph-name="quotedblleft" unicode="&#x201c;" horiz-adv-x="370" 
d="M189 586h-33l-64 154h33zM278 586h-33l-64 154h33z" />
    <glyph glyph-name="quotedblright" unicode="&#x201d;" horiz-adv-x="370" 
d="M156 740h33l-64 -154h-33zM245 740h33l-64 -154h-33z" />
    <glyph glyph-name="quotedblbase" unicode="&#x201e;" horiz-adv-x="370" 
d="M156 82h33l-64 -154h-33zM245 82h33l-64 -154h-33z" />
    <glyph glyph-name="dagger" unicode="&#x2020;" horiz-adv-x="573" 
d="M301 526h190v-30h-190v-596h-30v596h-188v30h188v214h30v-214z" />
    <glyph glyph-name="daggerdbl" unicode="&#x2021;" horiz-adv-x="573" 
d="M303 555h188v-30h-188v-410h188v-30h-188v-185h-30v185h-190v30h190v410h-190v30h190v185h30v-185z" />
    <glyph glyph-name="bullet" unicode="&#x2022;" horiz-adv-x="375" 
d="M189 458q36 0 61 -25t25 -60t-25 -60t-62 -25q-38 0 -63 25t-25 60t25 60t63 25h1z" />
    <glyph glyph-name="ellipsis" unicode="&#x2026;" horiz-adv-x="1000" 
d="M152 82h30v-82h-30v82zM485 82h30v-82h-30v82zM818 82h30v-82h-30v82z" />
    <glyph glyph-name="perthousand" unicode="&#x2030;" horiz-adv-x="1089" 
d="M20 591q0 70 46 116t117 46t117 -46t46 -117t-46 -117t-117 -46t-117 46t-46 117v1zM48 589q0 -60 38 -98q38 -39 97 -39q61 0 98 39q37 38 37 99t-37 99q-37 39 -98 39q-59 0 -97 -39q-38 -40 -38 -99v-1zM369 151q0 70 46 116t117 46t117 -46t46 -117t-46 -117
t-117 -46t-117 46t-46 117v1zM397 149q0 -60 38 -98q38 -39 97 -39q61 0 98 39q37 38 37 99t-37 99q-37 39 -98 39q-59 0 -97 -39q-38 -40 -38 -99v-1zM744 151q0 70 46 116t117 46t117 -46t46 -117t-46 -117t-117 -46t-117 46t-46 117v1zM772 149q0 -60 38 -98
q38 -39 97 -39q61 0 98 39q37 38 37 99t-37 99q-37 39 -98 39q-59 0 -97 -39q-38 -40 -38 -99v-1zM144 0h-32l457 740h32z" />
    <glyph glyph-name="guilsinglleft" unicode="&#x2039;" horiz-adv-x="248" 
d="M164 469h35l-114 -194l114 -191h-35l-114 191z" />
    <glyph glyph-name="guilsinglright" unicode="&#x203a;" horiz-adv-x="248" 
d="M198 275l-114 -191h-35l114 191l-114 194h35z" />
    <glyph glyph-name="fraction" unicode="&#x2044;" horiz-adv-x="86" 
d="M192 740h30l-330 -740h-29z" />
    <glyph glyph-name="Euro" unicode="&#x20ac;" 
d="M414 297h-274q7 -156 59 -223q47 -60 138 -60q82 0 126 44q31 31 43 94h30q-14 -76 -55 -116q-50 -49 -145 -49q-106 0 -162 71q-33 42 -49 111q-6 28 -10 59.5t-6 68.5h-82l5 26h76v38v40.5t1 29.5h-82l5 26h78q8 138 56 210q57 86 171 86q91 0 143 -52q42 -44 50 -116
h-29q-7 65 -45 99q-43 42 -120 42q-97 0 -146 -76q-42 -64 -50 -193h304l-5 -26h-300l-1 -31v-29l1 -23v-25h280z" />
    <glyph glyph-name="uni2113" unicode="&#x2113;" horiz-adv-x="467" 
d="M439 109q-63 -116 -171 -116q-79 0 -119 64q-35 56 -35 151v16l-15 -13l-15 -13q-11 -9 -19 -16t-13 -12l-17 25q28 24 48 42t31 30v306q0 133 45 194q35 47 89 47t84 -44q28 -41 28 -111q0 -184 -215 -405v-28q0 -107 39 -160q33 -46 88 -46q49 0 89 34q35 29 54 70z
M145 296q185 206 185 357q0 131 -86 131q-39 0 -66 -45q-33 -54 -33 -155v-288z" />
    <glyph glyph-name="trademark" unicode="&#x2122;" horiz-adv-x="990" 
d="M348 740h37l208 -402l209 402h36v-444h-27v405l-210 -405h-16l-210 404v-404h-27v444zM133 716h-124v24h276v-24h-125v-420h-27v420z" />
    <glyph glyph-name="Omega" unicode="&#x2126;" horiz-adv-x="731" 
d="M221 33q-148 133 -148 356q0 166 88 266q83 95 208 95q124 0 207 -101q82 -101 82 -258q0 -116 -47 -219q-40 -86 -102 -139v-3h162v-30h-222v22q72 51 121 145q54 104 54 220q0 124 -64 221q-74 113 -192 113q-117 0 -191 -98q-71 -95 -71 -236q0 -112 55 -218
q50 -97 120 -147v-22h-221v30h161v3z" />
    <glyph glyph-name="estimated" unicode="&#x212e;" horiz-adv-x="924" 
d="M198 359q-6 0 -6 -4v-209q0 -10 9 -24q110 -113 261 -113q163 0 274 127h61q-60 -69 -145 -107q-91 -41 -191 -41q-177 0 -301 112t-124 270t124 270t301 112t301 -112q125 -113 125 -270v-11h-689zM730 596q0 15 -10 25q-110 109 -258 109q-151 0 -260 -112
q-10 -11 -10 -26v-206q0 -2 2 -4t4 -2h528q1 0 3 2q1 1 1 4v210z" />
    <glyph glyph-name="partialdiff" unicode="&#x2202;" horiz-adv-x="527" 
d="M83 767q67 56 154 56q98 0 162 -94q75 -106 75 -302q0 -193 -61 -309q-66 -126 -185 -126q-87 0 -136 70q-45 65 -45 167q0 117 66 193q61 73 147 73q66 0 120 -42q22 -18 38 -36q14 -16 21 -33h1q1 5 1 11.5v14.5v27q0 164 -63 264q-58 93 -141 93q-45 0 -81 -16
q-30 -12 -55 -34zM230 20q83 0 138 90q53 86 65 222q-17 50 -59 88q-52 46 -114 46q-73 0 -125 -67q-54 -69 -54 -165q0 -97 40 -155q41 -59 108 -59h1z" />
    <glyph glyph-name="Delta" unicode="&#x2206;" horiz-adv-x="642" 
d="M36 33l268 727h35l268 -727v-33h-571v33zM570 29l-174 484q-6 18 -18 48l-11 26l-10 27q-14 34 -22.5 58t-12.5 39h-5q-3 -13 -10.5 -34t-18.5 -52l-10 -26l-9 -24q-5 -14 -9.5 -26l-7.5 -20l-184 -500h502z" />
    <glyph glyph-name="product" unicode="&#x220f;" horiz-adv-x="683" 
d="M539 707v-809h-32v809h-333v-809h-31v809h-115v31h626v-31h-115z" />
    <glyph glyph-name="summation" unicode="&#x2211;" horiz-adv-x="554" 
d="M23 -102v25l294 392l-279 399v24h474v-31h-424v-4l268 -385l-285 -383v-4h457v-33h-505z" />
    <glyph glyph-name="minus" unicode="&#x2212;" horiz-adv-x="600" 
d="M50 264h500v-28h-500v28z" />
    <glyph glyph-name="uni2215" unicode="&#x2215;" horiz-adv-x="86" 
d="M192 740h30l-330 -740h-29z" />
    <glyph glyph-name="uni2219" unicode="&#x2219;" horiz-adv-x="277" 
d="M154 215h-30v81h30v-81z" />
    <glyph glyph-name="radical" unicode="&#x221a;" horiz-adv-x="562" 
d="M332 -167h-38l-172 514l-75 -28l-11 26l110 41l149 -436q6 -20 10 -37t6 -30h1q1 5 2 12t3 18l3 16l3 15l201 927h30z" />
    <glyph glyph-name="infinity" unicode="&#x221e;" horiz-adv-x="789" 
d="M735 308q0 -65 -45 -109q-44 -41 -104 -41q-47 0 -93 34q-15 11 -39.5 33.5t-58.5 57.5l-20 -22l-22 -22q-12 -13 -23 -23t-22 -18q-52 -40 -109 -40q-59 0 -103 44q-42 44 -42 103q0 64 43 107q44 44 108 44q52 0 106 -42q11 -8 22 -18t23 -23l22 -23l21 -23l23 25
l22 23q26 26 45 42q51 39 106 39q64 0 103 -42q37 -40 37 -105v-1zM205 187q47 0 97 43q8 7 18.5 16.5t21.5 21.5l19 19q5 5 9 9.5t8 8.5l-18 21l-20 21q-23 26 -41 40q-52 41 -103 41q-49 0 -81 -38q-29 -36 -27 -86q0 -51 31 -83q33 -34 85 -34h1zM589 428q-45 0 -100 -47
q-14 -12 -40 -39l-9 -10l-9 -9l-15 -15q66 -67 93 -88q44 -33 82 -33q51 0 82 37q29 35 29 82q0 57 -32 91q-30 31 -79 31h-2z" />
    <glyph glyph-name="integral" unicode="&#x222b;" horiz-adv-x="332" 
d="M307 853q-16 12 -38 12q-12 0 -26 -6q-16 -7 -26 -19q-40 -46 -40 -197q0 -40 1.5 -109t5.5 -168l2 -73q1 -20 1 -38t1 -34q1 -38 1.5 -71t0.5 -59q0 -148 -50 -215q-28 -36 -76 -36q-14 0 -32 6q-14 4 -24 11l12 26l3 -2l5 -2q2 -1 5 -2l6 -2q15 -5 27 -5q31 0 50 27
q40 50 40 197q0 79 -6 277l-2 73q-1 20 -1 38t-1 34q-1 39 -1.5 71.5t-0.5 58.5q0 160 49 212q33 35 76 35q31 0 50 -16z" />
    <glyph glyph-name="approxequal" unicode="&#x2248;" horiz-adv-x="579" 
d="M526 417q-43 -91 -125 -91q-36 0 -122 45q-65 35 -100 35q-60 0 -106 -79l-22 15q48 92 134 92q31 0 67 -17q11 -4 28 -15l13 -7l11 -6q68 -35 102 -35q58 0 100 79zM526 257q-45 -90 -124 -90q-39 0 -123 45l-25 13l-24 11q-30 11 -51 11q-60 0 -106 -79l-22 14
q47 93 134 93q31 0 67 -17q5 -2 12.5 -6t15.5 -9l12 -7l12 -6q65 -35 102 -35q58 0 100 78z" />
    <glyph glyph-name="notequal" unicode="&#x2260;" horiz-adv-x="579" 
d="M349 408h175v-29h-188l-75 -157h263v-29h-276l-58 -123l-24 13l52 110h-164v29h178l74 157h-252v29h265l57 121l24 -13z" />
    <glyph glyph-name="lessequal" unicode="&#x2264;" horiz-adv-x="579" 
d="M60 339v29l461 233v-38l-424 -207v-3l424 -210v-37zM54 30v31h469v-31h-469z" />
    <glyph glyph-name="greaterequal" unicode="&#x2265;" horiz-adv-x="579" 
d="M521 368v-29l-461 -233v37l424 209v2l-424 209v38zM54 30v31h469v-31h-469z" />
    <glyph glyph-name="lozenge" unicode="&#x25ca;" horiz-adv-x="563" 
d="M295 -41h-28l-208 410l208 410h28l208 -410zM300 698q-6 11 -11 26l-4 12l-2 5l-2 5h-2l-4 -10l-4 -12q-7 -17 -12 -26l-166 -328l169 -331q13 -27 19 -47h3l3 9l4 12q3 8 6 14.5t5 11.5l167 329z" />
    <glyph glyph-name="cir.acute" unicode="&#xe00d;" horiz-adv-x="0" 
d="M404 798h-45l-82 68l-80 -68h-45l111 90h28zM560 980l14 -23l-172 -102l-13 23z" />
    <glyph glyph-name="cir.grave" unicode="&#xe00e;" horiz-adv-x="0" 
d="M404 800h-45l-82 68l-80 -68h-45l111 90h28zM405 924l-13 -23l-175 100l14 23z" />
    <glyph glyph-name="cir.tilde" unicode="&#xe00f;" horiz-adv-x="0" 
d="M404 799h-45l-82 68l-80 -68h-45l111 90h28zM335 967q-31 22 -59 12q-29 -11 -29 -44h-30q0 54 46 70q42 16 81 -11l40 -27q34 -24 61 -13q28 12 28 45h29q0 -56 -43 -72q-40 -16 -84 12z" />
    <glyph glyph-name="breve.tilde" unicode="&#xe010;" horiz-adv-x="0" 
d="M409 903q0 -34 -41 -69q-38 -32 -91 -32t-91 32q-41 35 -41 69h28q0 -22 33 -51q29 -24 71 -24t70 24q34 28 34 51h28zM244 1014q-31 22 -59 12q-29 -11 -29 -44h-30q0 54 46 70q42 16 81 -11l40 -27q34 -24 61 -13q28 12 28 45h29q0 -56 -43 -72q-40 -16 -84 12z" />
    <glyph glyph-name="breve.acute" unicode="&#xe011;" horiz-adv-x="0" 
d="M409 901q0 -34 -41 -69q-38 -32 -91 -32t-91 32q-41 35 -41 69h28q0 -22 33 -51q29 -24 71 -24t70 24q34 28 34 51h28zM428 1051l14 -23l-172 -102l-13 23z" />
    <glyph glyph-name="breve.grave" unicode="&#xe012;" horiz-adv-x="0" 
d="M409 902q0 -34 -41 -69q-38 -32 -91 -32t-91 32q-41 35 -41 69h28q0 -22 33 -51q29 -24 71 -24t70 24q34 28 34 51h28zM303 934l-13 -23l-175 100l14 23z" />
    <glyph glyph-name="breve.hook" unicode="&#xe013;" horiz-adv-x="0" 
d="M409 901q0 -34 -41 -69q-38 -32 -91 -32t-91 32q-41 35 -41 69h28q0 -22 33 -51q29 -24 71 -24t70 24q34 28 34 51h28zM264 920q0 12 19 27q8 7 14 11.5t9 7.5q8 10 10 22q0 15 -14 26t-36 11q-20 0 -34 -9q-13 -9 -18 -27h-24q1 24 26 39q23 14 52 14q33 0 53 -16
q20 -14 20 -35q0 -13 -11 -26q-2 -2 -5.5 -5t-7.5 -6l-7 -5l-7 -5q-17 -14 -16 -24h-23z" />
    <glyph glyph-name="cir.hook" unicode="&#xe014;" horiz-adv-x="0" 
d="M404 798h-45l-82 68l-80 -68h-45l111 90h28zM406 874q0 18 19 37q8 8 14 14.5t9 10.5q8 13 10 29q0 21 -14 35q-13 15 -36 15q-20 0 -34 -12q-13 -13 -18 -36h-24q2 32 26 52q23 18 52 18q32 0 53 -21q20 -20 20 -47q0 -17 -11 -34q-2 -4 -5.5 -7.5l-7.5 -7.5l-7 -7
l-7 -7q-17 -17 -16 -32h-23z" />
    <glyph glyph-name="uniE015" unicode="&#xe015;" 
d="M395 613l-13 -23l-175 100l14 23z" />
    <glyph glyph-name="uniE016" unicode="&#xe016;" 
d="M331 715l14 -23l-172 -102l-13 23z" />
    <glyph glyph-name="uniE017" unicode="&#xe017;" 
d="M404 608h-45l-82 68l-80 -68h-45l111 90h28z" />
    <glyph glyph-name="uniE018" unicode="&#xe018;" 
d="M127 720l151 -95l150 95h45l-180 -115h-30l-181 115h45z" />
    <glyph glyph-name="uniE019" unicode="&#xe019;" 
d="M252 647q-31 22 -59 12q-29 -11 -29 -44h-30q0 54 46 70q42 16 81 -11l40 -27q34 -24 61 -13q28 12 28 45h29q0 -56 -43 -72q-40 -16 -84 12z" />
    <glyph glyph-name="uniE01A" unicode="&#xe01a;" 
d="M395 613l-13 -23l-175 100l14 23z" />
    <glyph glyph-name="uniE01B" unicode="&#xe01b;" 
d="M307 751l16 -20l-193 -141l-16 21zM448 751l16 -20l-193 -141l-16 21z" />
    <glyph glyph-name="uniE01C" unicode="&#xe01c;" 
d="M409 726q0 -34 -41 -69q-38 -32 -91 -32t-91 32q-41 35 -41 69h28q0 -22 33 -51q29 -24 71 -24t70 24q34 28 34 51h28z" />
    <glyph glyph-name="uniE01D" unicode="&#xe01d;" 
d="M409 726q0 -34 -41 -69q-38 -32 -91 -32t-91 32q-41 35 -41 69h28q0 -22 33 -51q29 -24 71 -24t70 24q34 28 34 51h28z" />
    <glyph glyph-name="uniE01E" unicode="&#xe01e;" 
d="M278 762q39 0 64 -27q27 -25 27 -64q0 -38 -27 -64q-27 -27 -65 -27q-37 0 -64 27t-27 64q0 38 27 65q28 26 64 26h1zM276 736q-25 0 -44 -19q-18 -19 -18 -45t18 -44q19 -19 45 -19q27 0 46 19q18 18 18 44t-18 45q-19 19 -46 19h-1z" />
    <glyph glyph-name="uniE01F" unicode="&#xe01f;" horiz-adv-x="567" 
d="M215 622q0 18 19 37q8 8 14 14.5t9 10.5q8 13 10 29q0 21 -14 35q-13 15 -36 15q-20 0 -34 -12q-13 -13 -18 -36h-24q2 32 26 52q23 18 52 18q32 0 53 -21q20 -20 20 -47q0 -17 -11 -34q-2 -4 -5.5 -7.5l-7.5 -7.5l-7 -7l-7 -7q-17 -17 -16 -32h-23z" />
    <glyph glyph-name="uniE020" unicode="&#xe020;" horiz-adv-x="453" 
d="M211 608h-31v116h31v-116zM273 608h-31v116h31v-116z" />
    <glyph glyph-name="uniFB01" unicode="&#xfb01;" horiz-adv-x="393" 
d="M122 504v-504h-28v504h-87v26h87v53q0 108 73 148q12 7 25.5 12t29.5 7q5 1 11 1.5t12 0.5l9 1h6v-27l-8 -1h-9q-12 -1 -21 -3q-25 -4 -46 -17q-54 -34 -54 -130v-45h193v-530h-28v504h-165zM287 649v91h28v-91h-28z" />
    <glyph glyph-name="uniFB02" unicode="&#xfb02;" horiz-adv-x="393" 
d="M122 504v-504h-28v504h-87v26h87v53q0 108 73 148q12 7 25.5 12t29.5 7q5 1 11 1.5t12 0.5l9 1h6v-27l-8 -1h-9q-12 -1 -21 -3q-25 -4 -46 -17q-54 -34 -54 -130v-45h165v210h28v-740h-28v504h-165z" />
    <glyph glyph-name="a.1" horiz-adv-x="439" 
d="M388 412h-28v83q-45 -91 -153 -91q-78 0 -131 53q-50 52 -50 122q0 72 52 123q53 51 129 51q104 0 153 -93v85h28v-333zM54 574q0 -53 40 -96q45 -48 114 -48q94 0 136 80q16 33 16 68q0 31 -13 61q-20 41 -56 64q-39 24 -84 24q-62 0 -105 -40q-48 -43 -48 -112v-1z" />
    <glyph glyph-name="o.1" horiz-adv-x="439" 
d="M44 576q0 74 50 126q49 49 124 51q77 0 128 -52q49 -49 49 -122q0 -76 -55 -127q-52 -48 -122 -48t-122 50q-52 49 -52 121v1zM72 575q0 -58 43 -101q44 -44 103 -44q60 0 103 42q45 43 46 107q-1 60 -42 104q-42 44 -105 44q-60 0 -103 -41q-45 -43 -45 -110v-1z" />
    <glyph glyph-name="one.1" horiz-adv-x="351" 
d="M197 296h-28v419h-95v25h123v-444z" />
    <glyph glyph-name="three.1" horiz-adv-x="351" 
d="M61 430q1 -60 40 -91q31 -26 71 -26q50 0 82 32q29 32 29 80q0 42 -27 73q-33 39 -92 39h-27v25h27q54 0 77 35q8 12 12 27q1 2 1 5t1 6v7q0 34 -21 56q-21 23 -57 25q-35 1 -58 -22q-22 -22 -24 -59h-28q3 54 39 82q32 24 71 24q41 0 73 -29q33 -30 33 -76
q0 -39 -22 -64q-6 -9 -19 -18l-9 -6q-2 -1 -3.5 -2t-3.5 -2q39 -16 61 -48q24 -34 24 -76q0 -61 -39 -100t-100 -39q-73 0 -114 57q-25 37 -25 85h28z" />
    <glyph glyph-name="two.1" horiz-adv-x="351" 
d="M307 296h-271v23l93 97l92 96q55 61 55 104q0 44 -22 72q-26 35 -80 35q-46 0 -75 -33q-28 -32 -28 -90h-28q0 60 29 98q38 50 104 50q58 0 93 -35q35 -37 35 -97q0 -54 -64 -122l-82 -86l-83 -87h232v-25z" />
    <glyph glyph-name="_391" horiz-adv-x="375" 
d="M189 509q47 0 80 -32q32 -33 32 -78q0 -46 -32 -78q-33 -33 -81 -33q-49 0 -82 33q-32 32 -32 78q0 45 32 78q33 32 82 32h1z" />
    <glyph glyph-name="_392" horiz-adv-x="375" 
d="M192 349q23 0 39 -16t16 -39q0 -22 -16 -38t-40 -16t-40 16t-16 38q0 23 16 39t40 16h1z" />
    </font>
</defs>
</svg>
